<svg width="228" height="228" viewBox="0 0 228 228" fill="none" xmlns="http://www.w3.org/2000/svg">
<g clip-path="url(#clip0)">
<path opacity="0.18" d="M49.5163 48.7082C36.0445 57.5146 22.1639 66.7372 12.7739 81.4858C7.13488 90.3533 3.37764 100.909 1.39915 111.892C-1.98986 130.639 0.519131 152.372 12.1778 165.265C16.2347 169.771 21.1965 172.952 26.3143 175.396C36.9229 180.453 48.3258 182.522 59.6771 181.449C68.9984 180.56 78.3041 177.554 87.5787 178.986C98.891 180.728 108.768 188.824 119.306 194.155C132.401 200.754 146.66 203.134 160.72 201.067C164.265 200.54 167.854 199.696 170.971 197.565C174.673 195.033 177.416 190.897 180.333 187.117C186.912 178.559 194.672 171.489 203.258 166.231C207.761 163.474 212.532 161.186 216.442 157.306C226.74 147.11 228.504 128.863 227.904 112.682C227.305 96.5018 224.325 78.6408 213.743 68.8147C211.381 66.6227 208.722 64.9233 206.431 62.6128C198.792 54.9063 196.508 42.006 191.614 31.462C180.642 7.88411 156.161 -2.43839 134.12 0.479256C102.536 4.66096 76.6689 30.9617 49.5163 48.7082Z" fill="#FD6868"/>
<path d="M214.987 112.849C214.7 116.095 211.426 121.544 206.898 127.67C199.477 137.691 188.696 149.51 182.211 156.396C178.866 159.951 176.665 162.193 176.665 162.193V100.502C176.665 100.502 184.517 88.1977 190.222 87.4072C195.926 86.6167 207.438 94.7815 207.438 94.7815C207.438 94.7815 215.948 101.56 214.987 112.849Z" fill="#FD6868"/>
<path d="M206.898 127.67C199.477 137.691 188.696 149.51 182.211 156.396C181.727 155.452 181.63 154.169 181.587 153.008C181.415 147.207 181.456 141.399 181.499 135.594C181.54 129.957 181.581 124.324 181.871 118.699C182.145 113.46 182.67 108.102 184.629 103.424C185.072 103.907 185.437 104.488 185.706 105.134C188.174 110.324 189.735 116.049 191.295 121.731C192.067 124.532 192.839 127.344 193.611 130.167C195.34 129.003 196.886 127.471 198.176 125.642C199.362 124.034 200.42 122.297 201.509 120.593C202.27 119.402 203.756 116.011 204.942 117.286C206.864 119.337 207.02 124.03 206.898 127.67Z" fill="url(#paint0_linear)"/>
<path d="M182.429 19.2778H54.6112V200.435H182.429V19.2778Z" fill="#FD6868"/>
<path d="M182.429 19.2778H54.6112V200.435H182.429V19.2778Z" fill="url(#paint1_linear)"/>
<path d="M164.863 28.0346L54.6112 40.129C55.1073 40.129 54.6112 23.3259 54.6112 19.2778H170.855V20.6985C170.855 22.6435 170.224 24.5089 169.1 25.8845C167.977 27.2602 166.453 28.0336 164.863 28.0346V28.0346Z" fill="url(#paint2_linear)"/>
<path d="M182.429 40.1292H54.6112V221.286H182.429V40.1292Z" fill="#FD6868"/>
<path d="M72.7826 40.1292H54.6112V221.286H72.7826V40.1292Z" fill="url(#paint3_linear)"/>
<path d="M83.8234 73.9875H61.7449V101.006H83.8234V73.9875Z" fill="white"/>
<path d="M107.128 73.9875H85.0498V101.006H107.128V73.9875Z" fill="white"/>
<path d="M130.436 73.9875H108.358V101.006H130.436V73.9875Z" fill="white"/>
<path d="M153.741 73.9875H131.663V101.006H153.741V73.9875Z" fill="white"/>
<path d="M83.8234 102.194H61.7449V129.213H83.8234V102.194Z" fill="white"/>
<path d="M107.128 102.194H85.0498V129.213H107.128V102.194Z" fill="white"/>
<path d="M130.436 102.194H108.358V129.213H130.436V102.194Z" fill="white"/>
<path d="M153.741 102.194H131.663V129.213H153.741V102.194Z" fill="white"/>
<path d="M83.8234 130.4H61.7449V157.419H83.8234V130.4Z" fill="white"/>
<path d="M107.128 130.4H85.0498V157.419H107.128V130.4Z" fill="white"/>
<path d="M130.436 130.4H108.358V157.419H130.436V130.4Z" fill="white"/>
<path d="M153.741 130.4H131.663V157.419H153.741V130.4Z" fill="white"/>
<path d="M83.8234 158.607H61.7449V185.625H83.8234V158.607Z" fill="white"/>
<path d="M107.128 158.607H85.0498V185.625H107.128V158.607Z" fill="white"/>
<path d="M130.436 158.607H108.358V185.625H130.436V158.607Z" fill="white"/>
<path d="M153.741 158.607H131.663V185.625H153.741V158.607Z" fill="white"/>
<path d="M83.8234 186.813H61.7449V213.832H83.8234V186.813Z" fill="white"/>
<path d="M107.128 186.813H85.0498V213.832H107.128V186.813Z" fill="white"/>
<path d="M130.436 186.813H108.358V213.832H130.436V186.813Z" fill="white"/>
<path d="M176.656 73.9875H154.578V101.006H176.656V73.9875Z" fill="white"/>
<path d="M176.656 45.7812H154.578V72.8H176.656V45.7812Z" fill="white"/>
<path d="M153.741 45.7812H131.663V72.8H153.741V45.7812Z" fill="white"/>
<path d="M176.656 102.194H154.578V129.213H176.656V102.194Z" fill="white"/>
<path d="M176.656 130.4H154.578V157.419H176.656V130.4Z" fill="white"/>
<path d="M176.656 158.607H154.578V185.625H176.656V158.607Z" fill="white"/>
<path d="M64.513 11.9531V26.6024C64.513 27.3929 65.3337 28.0345 66.3416 28.0345C67.3527 28.0345 68.1703 27.3929 68.1703 26.6024V11.9531C68.1703 11.1626 67.3527 10.521 66.3416 10.521C65.3337 10.521 64.513 11.1626 64.513 11.9531Z" fill="#FD6868"/>
<path d="M81.9948 11.9531V26.6024C81.9948 27.3929 82.8124 28.0345 83.8235 28.0345C84.8345 28.0345 85.6522 27.3929 85.6522 26.6024V11.9531C85.6522 11.1626 84.8345 10.521 83.8235 10.521C82.8124 10.521 81.9948 11.1626 81.9948 11.9531Z" fill="#FD6868"/>
<path d="M99.4765 11.9531V26.6024C99.4765 27.3929 100.294 28.0345 101.305 28.0345C102.316 28.0345 103.134 27.3929 103.134 26.6024V11.9531C103.134 11.1626 102.316 10.521 101.305 10.521C100.294 10.521 99.4765 11.1626 99.4765 11.9531Z" fill="#FD6868"/>
<path d="M116.958 11.9531V26.6024C116.958 27.3929 117.776 28.0345 118.787 28.0345C119.795 28.0345 120.616 27.3929 120.616 26.6024V11.9531C120.616 11.1626 119.795 10.521 118.787 10.521C117.776 10.521 116.958 11.1626 116.958 11.9531Z" fill="#FD6868"/>
<path d="M134.437 11.9531V26.6024C134.437 27.3929 135.258 28.0345 136.269 28.0345C137.277 28.0345 138.098 27.3929 138.098 26.6024V11.9531C138.098 11.1626 137.277 10.521 136.269 10.521C135.258 10.521 134.437 11.1626 134.437 11.9531Z" fill="#FD6868"/>
<path d="M151.919 11.9531V26.6024C151.919 27.3929 152.74 28.0345 153.748 28.0345C154.759 28.0345 155.579 27.3929 155.579 26.6024V11.9531C155.579 11.1626 154.759 10.521 153.748 10.521C152.74 10.521 151.919 11.1626 151.919 11.9531Z" fill="#FD6868"/>
<path d="M169.026 11.9531V26.6024C169.026 27.3929 169.847 28.0345 170.855 28.0345C171.866 28.0345 172.684 27.3929 172.684 26.6024V11.9531C172.684 11.1626 171.866 10.521 170.855 10.521C169.847 10.521 169.026 11.1626 169.026 11.9531Z" fill="#FD6868"/>
<path d="M185.341 19.2778H182.432V221.286H185.341V19.2778Z" fill="#FD6868"/>
<path d="M185.341 19.2778H182.432V221.286H185.341V19.2778Z" fill="url(#paint4_linear)"/>
<path d="M136.762 49.7412C136.763 50.1664 136.66 50.5823 136.468 50.9363C136.275 51.2903 136.001 51.5665 135.68 51.7299C135.359 51.8934 135.006 51.9367 134.665 51.8545C134.324 51.7723 134.011 51.5682 133.765 51.268C133.519 50.9679 133.351 50.5851 133.282 50.1682C133.214 49.7513 133.248 49.3189 133.381 48.9258C133.513 48.5326 133.738 48.1963 134.026 47.9594C134.315 47.7226 134.654 47.5957 135.002 47.595V47.595C135.468 47.595 135.914 47.8208 136.244 48.2231C136.574 48.6254 136.76 49.1713 136.762 49.7412V49.7412Z" fill="url(#paint5_linear)"/>
<path d="M136.762 77.9514C136.763 78.3766 136.66 78.7926 136.468 79.1465C136.275 79.5005 136.001 79.7767 135.68 79.9401C135.359 80.1036 135.006 80.1469 134.665 80.0647C134.324 79.9825 134.011 79.7784 133.765 79.4782C133.519 79.1781 133.351 78.7953 133.282 78.3784C133.214 77.9615 133.248 77.5291 133.381 77.136C133.513 76.7428 133.738 76.4065 134.026 76.1696C134.315 75.9328 134.654 75.8059 135.002 75.8052V75.8052C135.468 75.8052 135.914 76.031 136.244 76.4333C136.574 76.8356 136.76 77.3815 136.762 77.9514V77.9514Z" fill="url(#paint6_linear)"/>
<path d="M141.053 77.9514C141.053 78.3766 140.951 78.7926 140.758 79.1465C140.566 79.5005 140.292 79.7767 139.971 79.9401C139.65 80.1036 139.297 80.1469 138.956 80.0647C138.615 79.9825 138.302 79.7784 138.056 79.4782C137.81 79.1781 137.642 78.7953 137.573 78.3784C137.505 77.9615 137.539 77.5291 137.672 77.136C137.804 76.7428 138.029 76.4065 138.317 76.1696C138.606 75.9328 138.945 75.8059 139.293 75.8052V75.8052C139.758 75.8052 140.205 76.031 140.535 76.4333C140.865 76.8356 141.051 77.3815 141.053 77.9514V77.9514Z" fill="url(#paint7_linear)"/>
<path d="M145.369 77.9514C145.369 78.3766 145.267 78.7926 145.074 79.1465C144.882 79.5005 144.608 79.7767 144.287 79.9401C143.966 80.1036 143.613 80.1469 143.272 80.0647C142.931 79.9825 142.618 79.7784 142.372 79.4782C142.125 79.1781 141.958 78.7953 141.889 78.3784C141.821 77.9615 141.855 77.5291 141.987 77.136C142.12 76.7428 142.344 76.4065 142.633 76.1696C142.922 75.9328 143.261 75.8059 143.609 75.8052V75.8052C144.074 75.8052 144.521 76.031 144.851 76.4333C145.181 76.8356 145.367 77.3815 145.369 77.9514V77.9514Z" fill="url(#paint8_linear)"/>
<path d="M136.762 134.769C136.762 135.194 136.659 135.61 136.466 135.964C136.273 136.317 135.998 136.593 135.677 136.756C135.356 136.918 135.003 136.961 134.662 136.878C134.321 136.795 134.008 136.59 133.763 136.29C133.517 135.989 133.35 135.606 133.282 135.189C133.214 134.772 133.249 134.339 133.382 133.946C133.515 133.554 133.74 133.218 134.029 132.981C134.318 132.745 134.658 132.619 135.005 132.619V132.619C135.47 132.619 135.916 132.845 136.245 133.248C136.574 133.65 136.759 134.196 136.759 134.765L136.762 134.769Z" fill="url(#paint9_linear)"/>
<path d="M65.4523 136.915C66.4208 136.915 67.206 135.954 67.206 134.769C67.206 133.584 66.4208 132.623 65.4523 132.623C64.4837 132.623 63.6984 133.584 63.6984 134.769C63.6984 135.954 64.4837 136.915 65.4523 136.915Z" fill="#FF2235"/>
<path d="M141.053 134.769C141.053 135.194 140.95 135.61 140.757 135.964C140.564 136.317 140.289 136.593 139.968 136.756C139.647 136.918 139.294 136.961 138.953 136.878C138.612 136.795 138.299 136.59 138.054 136.29C137.808 135.989 137.64 135.606 137.573 135.189C137.505 134.772 137.54 134.339 137.673 133.946C137.806 133.554 138.031 133.218 138.32 132.981C138.609 132.745 138.948 132.619 139.296 132.619V132.619C139.761 132.619 140.207 132.845 140.536 133.248C140.865 133.65 141.05 134.196 141.05 134.765L141.053 134.769Z" fill="url(#paint10_linear)"/>
<path d="M145.369 134.769C145.369 135.194 145.266 135.61 145.073 135.964C144.879 136.317 144.605 136.593 144.284 136.756C143.963 136.918 143.61 136.961 143.269 136.878C142.928 136.795 142.615 136.59 142.369 136.29C142.124 135.989 141.956 135.606 141.889 135.189C141.821 134.772 141.856 134.339 141.989 133.946C142.121 133.554 142.347 133.218 142.636 132.981C142.925 132.745 143.264 132.619 143.612 132.619V132.619C144.077 132.619 144.523 132.845 144.852 133.248C145.181 133.65 145.366 134.196 145.366 134.765L145.369 134.769Z" fill="url(#paint11_linear)"/>
<path d="M214.778 77.0274C214.288 79.4792 214.943 82.878 214.013 85.1273C212.453 88.908 207.891 91.4171 207.217 95.5682C207.176 95.8088 202.099 98.8028 199.48 97.7793C198.111 97.2485 197.415 95.614 198.469 91.9173C198.8 90.7717 200.654 90.3439 201.153 89.2785L201.05 89.183C198.516 86.842 198.242 81.8813 198.766 78.5703C199.29 75.2593 200.492 72.0781 201.78 69.0536C202.773 66.724 205.013 65.46 207.16 65.502C209.86 65.5593 212.709 66.8806 214.113 69.7028C215.187 71.8528 215.265 74.5757 214.778 77.0274Z" fill="url(#paint12_linear)"/>
<path d="M202.308 59.193C200.925 60.0867 199.456 61.1407 197.908 60.8543C197.868 61.3092 197.928 61.7689 198.083 62.1854C198.238 62.6019 198.481 62.9599 198.788 63.222L197.827 63.4855C197.787 63.4889 197.749 63.5031 197.714 63.5268C197.68 63.5506 197.65 63.5834 197.627 63.623C197.615 63.6656 197.611 63.7109 197.614 63.7558C197.618 63.8006 197.63 63.8439 197.649 63.8826C197.885 64.5577 198.274 65.1365 198.769 65.5515C198.597 66.0021 197.976 65.9028 197.764 66.3153C197.719 66.4352 197.696 66.5654 197.696 66.6972C197.696 66.8289 197.719 66.9592 197.764 67.0791C197.979 67.7913 198.345 68.4203 198.825 68.9007C198.251 69.6645 198.61 71.0775 199.402 71.425C199.81 71.5642 200.246 71.5078 200.62 71.2671C200.995 71.0265 201.28 70.6199 201.418 70.1304C201.454 70.5721 201.371 71.0159 201.181 71.3944C203.799 71.8985 206.599 72.3721 209.008 71.0125C208.895 71.3177 208.833 71.6476 208.827 71.9825C209.408 72.2053 210.025 72.2524 210.624 72.12C210.749 73.693 210.634 75.2806 210.284 76.802C210.069 77.7491 209.76 78.6656 209.623 79.6318C209.443 80.6107 209.585 81.6368 210.019 82.4883C210.434 82.4425 210.727 81.9651 210.886 81.4954C211.001 81.006 211.175 80.5401 211.401 80.113C212.025 79.2194 213.324 79.5478 213.826 80.5369C214.328 81.526 214.138 82.855 213.658 83.8517C213.36 84.4394 212.968 84.9461 212.504 85.3402C212.04 85.7344 211.515 86.0077 210.961 86.143C211.052 87.2085 211.145 88.274 211.236 89.3356C212.881 87.4262 214.722 85.7879 216.201 83.6989C217.68 81.61 218.8 78.9368 218.61 76.1795C218.495 74.4801 217.889 72.8647 217.842 71.1577C217.82 70.3939 217.914 69.611 217.889 68.8396C217.831 67.6104 217.479 66.4292 216.877 65.4426C216.275 64.4561 215.45 63.7078 214.503 63.2907C213.707 62.9585 212.831 62.863 212.125 62.3016C211.248 61.6066 210.793 60.312 209.922 59.6017C208.986 58.8379 207.532 58.5247 206.443 58.1466C205.026 57.6655 203.553 58.3949 202.308 59.193Z" fill="#3F3D56"/>
<path d="M182.676 95.3274C182.565 95.4109 182.469 95.522 182.395 95.6536C182.32 95.7851 182.269 95.9342 182.245 96.0912C182.258 96.2558 182.313 96.411 182.404 96.5336C182.494 96.6561 182.615 96.7394 182.748 96.771C183.014 96.8283 183.288 96.8127 183.55 96.7252L185.135 96.3433C184.279 96.9287 183.569 97.7864 183.078 98.8255C183.021 98.9453 182.992 99.0831 182.997 99.2221C183.002 99.3611 183.04 99.4953 183.106 99.6084C183.319 99.9368 183.678 99.807 183.965 99.6695L185.341 98.9974L184.405 100.109C184.114 100.429 183.859 100.797 183.649 101.201C183.559 101.39 183.491 101.595 183.45 101.808C183.424 101.943 183.442 102.084 183.501 102.203C183.559 102.321 183.653 102.407 183.762 102.442C183.833 102.469 183.909 102.469 183.98 102.442C184.552 102.243 185.084 101.9 185.541 101.434C185.203 102.015 184.826 102.56 184.414 103.065C184.002 103.572 183.769 104.258 183.765 104.974C183.767 105.051 183.787 105.125 183.824 105.188C183.87 105.245 183.931 105.28 183.996 105.287C184.505 105.39 184.966 104.936 185.35 104.523L186.764 102.954C186.992 102.725 187.192 102.459 187.36 102.163C187.454 101.992 187.507 101.792 187.513 101.587C187.499 101.385 187.42 101.199 187.293 101.069C187.167 100.938 187.003 100.875 186.839 100.892C186.739 100.904 186.643 100.944 186.558 101.01C186.598 100.678 186.705 100.368 186.77 100.044C186.851 99.7238 186.833 99.3788 186.72 99.0738C186.659 98.9248 186.555 98.8094 186.428 98.7506C186.3 98.6919 186.16 98.6941 186.034 98.7568C186.199 98.3593 186.305 97.9285 186.346 97.4851C186.362 97.2611 186.328 97.0358 186.247 96.8338C186.166 96.6318 186.042 96.4608 185.887 96.3394C185.802 96.2967 185.724 96.2359 185.656 96.16C185.531 95.9728 185.631 95.7055 185.684 95.4726C185.725 95.3354 185.743 95.1897 185.738 95.0439C185.733 94.8981 185.704 94.755 185.654 94.6227C185.603 94.4904 185.532 94.3716 185.444 94.273C185.356 94.1744 185.253 94.098 185.141 94.0481V94.0481C185.015 93.9936 184.881 93.9728 184.748 93.987C183.943 94.0901 183.272 94.7088 182.676 95.3274Z" fill="url(#paint13_linear)"/>
<path d="M208.281 109.675C211.869 105.795 216.313 108.736 214.753 114.277C211.379 126.264 204.317 153.73 197.611 153.73C188.873 153.73 185.341 134.769 185.341 134.769L189.376 124.775C189.376 124.775 195.084 140.1 197.958 135.953C200.832 131.806 202.529 116.095 208.115 109.855L208.281 109.675Z" fill="#FD6868"/>
<path d="M188.053 124.114C188 123.225 187.987 122.332 188.015 121.441C187.997 117.551 187.058 113.751 185.313 110.5C185.129 110.823 185.05 111.217 185.091 111.607L185.138 121.75C185.166 122.592 185.12 123.434 185.001 124.263C184.895 124.867 184.714 125.443 184.573 126.039C184.277 127.277 184.171 128.572 184.261 129.858C184.288 130.549 184.441 131.223 184.707 131.832C184.845 132.135 185.038 132.394 185.272 132.587C185.507 132.781 185.775 132.904 186.056 132.948C186.24 132.948 186.992 131.038 187.101 130.778C187.436 130.015 187.748 129.244 188.037 128.468C188.252 127.88 188.711 127.013 188.63 126.352C188.54 125.611 188.128 124.928 188.053 124.114Z" fill="url(#paint14_linear)"/>
<path d="M204.729 91.8675C203.974 92.9062 203.225 93.9488 202.47 94.9914C201.893 95.8798 201.207 96.6529 200.435 97.2827C200.136 97.4995 199.815 97.6689 199.48 97.7868C198.111 97.256 197.415 95.6215 198.469 91.9248C198.8 90.7791 200.654 90.3514 201.153 89.2859L201.05 89.1904C201.409 89.3975 201.787 89.5488 202.177 89.6411C202.988 89.79 204.985 89.0186 205.232 90.4889C205.319 90.9968 205.026 91.4741 204.729 91.8675Z" fill="url(#paint15_linear)"/>
<path d="M113.991 171.851L117.136 177.831C117.277 178.098 117.498 178.285 117.751 178.352C118.005 178.419 118.269 178.361 118.487 178.19C118.565 178.127 118.635 178.051 118.697 177.965L127.359 165.744C127.482 165.572 127.562 165.36 127.589 165.134C127.616 164.908 127.589 164.677 127.512 164.468C127.434 164.26 127.31 164.084 127.153 163.96C126.996 163.836 126.813 163.77 126.626 163.77H126.554C126.411 163.77 126.27 163.808 126.141 163.882C126.011 163.956 125.897 164.064 125.805 164.198L119.027 174.127C118.863 174.369 118.626 174.521 118.37 174.55C118.114 174.579 117.859 174.484 117.661 174.283C117.586 174.207 117.52 174.116 117.467 174.016L115.623 170.579C115.52 170.389 115.375 170.238 115.205 170.146C115.034 170.053 114.846 170.022 114.662 170.056V170.056C114.506 170.088 114.359 170.166 114.234 170.284C114.109 170.401 114.009 170.554 113.943 170.729C113.877 170.905 113.847 171.097 113.855 171.29C113.863 171.482 113.91 171.67 113.991 171.836V171.851Z" fill="#FD6868"/>
<path d="M76.1155 202.092L80.0756 206.862C80.2149 207.03 80.3102 207.245 80.3493 207.48C80.3885 207.715 80.3697 207.958 80.2954 208.18C80.2212 208.401 80.0947 208.591 79.9322 208.724C79.7697 208.857 79.5784 208.928 79.3828 208.928H79.2143C78.9526 208.928 78.7015 208.802 78.5152 208.577L74.6613 203.857C74.4759 203.631 74.2252 203.505 73.9638 203.505C73.7024 203.505 73.4517 203.631 73.2663 203.857L69.4124 208.577C69.3209 208.689 69.2124 208.777 69.093 208.837C68.9736 208.898 68.8456 208.929 68.7165 208.928H68.5448C68.3492 208.928 68.1579 208.857 67.9954 208.724C67.8329 208.591 67.7064 208.401 67.6322 208.18C67.5579 207.958 67.5391 207.715 67.5783 207.48C67.6174 207.245 67.7127 207.03 67.852 206.862L71.8152 202.092C71.999 201.868 72.1021 201.563 72.1021 201.245C72.1021 200.927 71.999 200.622 71.8152 200.397V200.397L67.8146 195.501C67.6772 195.332 67.5838 195.118 67.546 194.884C67.5081 194.65 67.5277 194.408 67.6021 194.188C67.6765 193.968 67.8024 193.78 67.9641 193.647C68.1257 193.514 68.3159 193.443 68.5105 193.443V193.443C68.7684 193.442 69.0162 193.565 69.2002 193.786L73.257 198.682C73.4414 198.904 73.6896 199.028 73.9482 199.028C74.2068 199.028 74.455 198.904 74.6394 198.682L78.6962 193.786C78.8802 193.565 79.128 193.442 79.3859 193.443V193.443C79.5808 193.443 79.7714 193.513 79.9335 193.645C80.0956 193.778 80.2221 193.966 80.2969 194.186C80.3717 194.407 80.3914 194.649 80.3537 194.883C80.316 195.117 80.2225 195.332 80.0849 195.501L76.0843 200.397C75.903 200.625 75.8032 200.931 75.8067 201.249C75.8102 201.567 75.9168 201.871 76.103 202.092V202.092H76.1155Z" fill="#FD6868"/>
<path d="M40.7992 187.096H41.7666L42.2503 213.851L41.7666 209.444H40.7992V187.096Z" fill="#FD6868"/>
<path d="M41.7666 196.849V196.88C41.7666 197.716 41.5232 198.552 41.2642 199.553C39.5603 200.156 38.4244 200.641 36.7517 198.526C35.0791 196.41 33.3533 192.32 33.8995 190.254C35.6033 189.65 38.9237 191.846 40.5995 193.962C41.467 195.043 41.7604 195.948 41.7666 196.849Z" fill="#FD6868"/>
<path d="M46.7565 198.541C45.2212 200.363 44.1414 200.118 42.734 199.568V209.444H41.7666V187.096H42.734V194.203C42.8245 194.081 42.9213 193.959 43.0274 193.821C44.7562 191.774 48.0984 189.658 49.7867 190.331C50.2828 192.427 48.4854 196.49 46.7565 198.541Z" fill="#FD6868"/>
<path d="M46.7565 198.541C45.2212 200.363 44.1414 200.118 42.734 199.568V209.444H41.7666V187.096H42.734V194.203C42.8245 194.081 42.9213 193.959 43.0274 193.821C44.7562 191.774 48.0984 189.658 49.7867 190.331C50.2828 192.427 48.4854 196.49 46.7565 198.541Z" fill="url(#paint16_linear)"/>
<path d="M41.7666 181.7H37.4476C37.4476 185.454 39.3793 188.497 41.7635 188.497L42.7808 185.163L41.7666 181.7Z" fill="#FD6868"/>
<path d="M41.8415 183.002L41.7666 183.067V182.685L41.8415 183.002Z" fill="#FD6868"/>
<path d="M33.5906 174.043C33.0444 176.109 34.7702 180.203 36.4459 182.314C38.1217 184.426 39.2545 183.949 40.9553 183.342C41.5014 181.276 41.9664 179.866 40.2906 177.751C38.6148 175.635 35.2944 173.439 33.5906 174.043Z" fill="#FD6868"/>
<path d="M46.4475 182.341C46.304 182.513 46.1636 182.666 46.0263 182.803C45.6924 186.034 43.9105 188.497 41.7666 188.497V183.067L41.8415 183.002L41.7666 182.681V183.063C41.6684 183.149 41.564 183.223 41.4545 183.284C39.9192 182.196 38.6772 178.732 38.777 175.788C38.8769 172.844 40.0877 168.49 41.6855 167.543C43.2208 168.631 44.2225 173.08 44.132 176.029V176.246C45.9014 174.761 48.1889 173.623 49.4902 174.138C49.9739 176.231 48.1733 180.29 46.4475 182.341Z" fill="#FD6868"/>
<path d="M46.4475 182.341C46.304 182.513 46.1636 182.666 46.0263 182.803C45.6924 186.034 43.9105 188.497 41.7666 188.497V183.067L41.8415 183.002L41.7666 182.681V183.063C41.6684 183.149 41.564 183.223 41.4545 183.284C39.9192 182.196 38.6772 178.732 38.777 175.788C38.8769 172.844 40.0877 168.49 41.6855 167.543C43.2208 168.631 44.2225 173.08 44.132 176.029V176.246C45.9014 174.761 48.1889 173.623 49.4902 174.138C49.9739 176.231 48.1733 180.29 46.4475 182.341Z" fill="url(#paint17_linear)"/>
<path d="M41.8415 183.002L41.7666 183.067V182.685L41.8415 183.002Z" fill="#FD6868"/>
<path d="M33.2317 206.034L34.7546 221.096H41.7978L44.6751 212.526L41.7978 205.614L33.2317 206.034Z" fill="#FD6868"/>
<path d="M50.3671 206.034L48.8442 221.096H41.7978V205.614L50.3671 206.034Z" fill="#FD6868"/>
<path d="M44.9372 205.717L44.8592 205.762L42.4688 207.214L41.8166 207.618H32.3017C32.0146 207.618 31.7391 207.479 31.5361 207.23C31.333 206.982 31.2189 206.645 31.2189 206.293V202.925C31.2177 202.769 31.2415 202.614 31.2892 202.47C31.3368 202.325 31.4073 202.193 31.4965 202.082C31.5858 201.97 31.6921 201.882 31.8093 201.821C31.9266 201.76 32.0526 201.727 32.18 201.726H32.2705L41.8166 201.749L44.9372 205.717Z" fill="#FD6868"/>
<path d="M44.9372 205.717L44.8592 205.762L42.4688 207.214L41.8166 207.618H32.3017C32.0146 207.618 31.7391 207.479 31.5361 207.23C31.333 206.982 31.2189 206.645 31.2189 206.293V202.925C31.2177 202.769 31.2415 202.614 31.2892 202.47C31.3368 202.325 31.4073 202.193 31.4965 202.082C31.5858 201.97 31.6921 201.882 31.8093 201.821C31.9266 201.76 32.0526 201.727 32.18 201.726H32.2705L41.8166 201.749L44.9372 205.717Z" fill="url(#paint18_linear)"/>
<path d="M51.297 207.618H41.7978V201.6H51.297C51.5842 201.6 51.8596 201.739 52.0627 201.988C52.2658 202.236 52.3799 202.574 52.3799 202.925V206.293C52.3799 206.645 52.2658 206.982 52.0627 207.23C51.8596 207.479 51.5842 207.618 51.297 207.618Z" fill="#FD6868"/>
<path d="M41.801 207.619V221.096H34.7546L33.3909 207.619H41.801Z" fill="url(#paint19_linear)"/>
<path d="M50.2079 207.619L48.8442 221.096H41.8009V207.619H50.2079Z" fill="url(#paint20_linear)"/>
<path d="M52.3799 203.078V206.446C52.3799 206.798 52.2658 207.135 52.0627 207.383C51.8596 207.632 51.5842 207.771 51.297 207.771H41.8165V201.753H51.3126C51.5971 201.758 51.8685 201.9 52.0682 202.148C52.268 202.395 52.3799 202.73 52.3799 203.078V203.078Z" fill="url(#paint21_linear)"/>
<path opacity="0.18" d="M35.5753 221.115L17.6753 225.315C17.5245 225.317 17.3756 225.357 17.2379 225.432C17.1002 225.507 16.9766 225.616 16.8748 225.752C16.773 225.888 16.6952 226.049 16.6462 226.223C16.5973 226.398 16.5782 226.583 16.5903 226.767C16.6023 226.951 16.6451 227.13 16.7161 227.292C16.7871 227.455 16.8848 227.598 17.003 227.713C17.1211 227.828 17.2573 227.911 17.4031 227.959C17.5488 228.006 17.701 228.016 17.8501 227.989H17.9031H220.077C220.362 228.003 220.64 227.881 220.852 227.648C221.065 227.416 221.195 227.091 221.215 226.743C221.235 226.395 221.143 226.051 220.959 225.784C220.775 225.518 220.513 225.35 220.23 225.315L194.138 221.298H193.988L35.8031 221.107C35.7271 221.1 35.6508 221.102 35.5753 221.115V221.115Z" fill="#1D2741"/>
</g>
<defs>
<linearGradient id="paint0_linear" x1="198.934" y1="108.247" x2="126.92" y2="218.978" gradientUnits="userSpaceOnUse">
<stop stop-opacity="0"/>
<stop offset="0.91" stop-opacity="0.8"/>
<stop offset="1"/>
</linearGradient>
<linearGradient id="paint1_linear" x1="51923.2" y1="18241.9" x2="47060.5" y2="65352.9" gradientUnits="userSpaceOnUse">
<stop stop-opacity="0"/>
<stop offset="0.91" stop-opacity="0.8"/>
<stop offset="1"/>
</linearGradient>
<linearGradient id="paint2_linear" x1="111.588" y1="8.00443" x2="113.691" y2="34.613" gradientUnits="userSpaceOnUse">
<stop offset="0.01"/>
<stop offset="0.1" stop-opacity="0.77"/>
<stop offset="0.99" stop-opacity="0"/>
</linearGradient>
<linearGradient id="paint3_linear" x1="5634.52" y1="92785.4" x2="-4742.93" y2="92788.5" gradientUnits="userSpaceOnUse">
<stop stop-opacity="0"/>
<stop offset="0.91" stop-opacity="0.8"/>
<stop offset="1"/>
</linearGradient>
<linearGradient id="paint4_linear" x1="2248.97" y1="59834" x2="890.241" y2="59837" gradientUnits="userSpaceOnUse">
<stop stop-opacity="0"/>
<stop offset="0.91" stop-opacity="0.8"/>
<stop offset="1"/>
</linearGradient>
<linearGradient id="paint5_linear" x1="134.908" y1="47.9387" x2="135.785" y2="58.8106" gradientUnits="userSpaceOnUse">
<stop stop-color="#183866"/>
<stop offset="1" stop-color="#1A7FC1"/>
</linearGradient>
<linearGradient id="paint6_linear" x1="1652.31" y1="1664.26" x2="1662.18" y2="1786.72" gradientUnits="userSpaceOnUse">
<stop stop-color="#183866"/>
<stop offset="1" stop-color="#1A7FC1"/>
</linearGradient>
<linearGradient id="paint7_linear" x1="1704.91" y1="1664.26" x2="1714.73" y2="1786.72" gradientUnits="userSpaceOnUse">
<stop stop-color="#183866"/>
<stop offset="1" stop-color="#1A7FC1"/>
</linearGradient>
<linearGradient id="paint8_linear" x1="1757.84" y1="1664.26" x2="1767.66" y2="1786.72" gradientUnits="userSpaceOnUse">
<stop stop-color="#183866"/>
<stop offset="1" stop-color="#1A7FC1"/>
</linearGradient>
<linearGradient id="paint9_linear" x1="1652.28" y1="2360.81" x2="1662.15" y2="2483.28" gradientUnits="userSpaceOnUse">
<stop stop-color="#183866"/>
<stop offset="1" stop-color="#1A7FC1"/>
</linearGradient>
<linearGradient id="paint10_linear" x1="1704.92" y1="2360.81" x2="1714.74" y2="2483.28" gradientUnits="userSpaceOnUse">
<stop stop-color="#183866"/>
<stop offset="1" stop-color="#1A7FC1"/>
</linearGradient>
<linearGradient id="paint11_linear" x1="1757.84" y1="2360.82" x2="1767.66" y2="2483.28" gradientUnits="userSpaceOnUse">
<stop stop-color="#183866"/>
<stop offset="1" stop-color="#1A7FC1"/>
</linearGradient>
<linearGradient id="paint12_linear" x1="219.431" y1="88.908" x2="189.133" y2="79.2535" gradientUnits="userSpaceOnUse">
<stop stop-color="#ECC4D7"/>
<stop offset="0.16" stop-color="#EDCBD5"/>
<stop offset="0.42" stop-color="#EFD4D1"/>
<stop offset="0.7" stop-color="#F2EAC9"/>
</linearGradient>
<linearGradient id="paint13_linear" x1="182.245" y1="99.6428" x2="187.528" y2="99.6428" gradientUnits="userSpaceOnUse">
<stop stop-color="#ECC4D7"/>
<stop offset="0.42" stop-color="#EFD4D1"/>
<stop offset="1" stop-color="#F2EAC9"/>
</linearGradient>
<linearGradient id="paint14_linear" x1="2787.58" y1="11081.5" x2="2849.89" y2="11081.5" gradientUnits="userSpaceOnUse">
<stop stop-color="#ECC4D7"/>
<stop offset="0.42" stop-color="#EFD4D1"/>
<stop offset="1" stop-color="#F2EAC9"/>
</linearGradient>
<linearGradient id="paint15_linear" x1="4855.37" y1="3689.18" x2="4519.87" y2="4023.28" gradientUnits="userSpaceOnUse">
<stop stop-color="#ECC4D7"/>
<stop offset="0.42" stop-color="#EFD4D1"/>
<stop offset="1" stop-color="#F2EAC9"/>
</linearGradient>
<linearGradient id="paint16_linear" x1="43.8138" y1="210.414" x2="46.6923" y2="190.117" gradientUnits="userSpaceOnUse">
<stop offset="0.1" stop-opacity="0.77"/>
<stop offset="0.99" stop-opacity="0"/>
</linearGradient>
<linearGradient id="paint17_linear" x1="1808.02" y1="2910.67" x2="1462.02" y2="2928.04" gradientUnits="userSpaceOnUse">
<stop offset="0.1" stop-opacity="0.77"/>
<stop offset="0.99" stop-opacity="0"/>
</linearGradient>
<linearGradient id="paint18_linear" x1="38.3901" y1="179.542" x2="37.8761" y2="206.806" gradientUnits="userSpaceOnUse">
<stop offset="0.36" stop-opacity="0.77"/>
<stop offset="0.99" stop-opacity="0"/>
</linearGradient>
<linearGradient id="paint19_linear" x1="1043.28" y1="1147.77" x2="1067.65" y2="637.434" gradientUnits="userSpaceOnUse">
<stop offset="0.01"/>
<stop offset="0.1" stop-opacity="0.77"/>
<stop offset="0.99" stop-opacity="0"/>
</linearGradient>
<linearGradient id="paint20_linear" x1="1377.59" y1="1073.78" x2="984.986" y2="615.054" gradientUnits="userSpaceOnUse">
<stop offset="0.01"/>
<stop offset="0.1" stop-opacity="0.77"/>
<stop offset="0.99" stop-opacity="0"/>
</linearGradient>
<linearGradient id="paint21_linear" x1="1734.7" y1="788.805" x2="1682.78" y2="474.083" gradientUnits="userSpaceOnUse">
<stop offset="0.1" stop-opacity="0.77"/>
<stop offset="0.99" stop-opacity="0"/>
</linearGradient>
<clipPath id="clip0">
<rect width="228" height="228" fill="white"/>
</clipPath>
</defs>
</svg>
