<svg width="228" height="228" viewBox="0 0 228 228" fill="none" xmlns="http://www.w3.org/2000/svg">
<g clip-path="url(#clip0)">
<path opacity="0.18" d="M114.003 228.006C176.965 228.006 228.006 176.965 228.006 114.003C228.006 51.0409 176.965 0 114.003 0C51.0409 0 0 51.0409 0 114.003C0 176.965 51.0409 228.006 114.003 228.006Z" fill="#FD6868"/>
<path d="M167.749 91.6308C167.843 92.0797 167.832 92.544 167.719 92.9883C167.619 93.4335 167.412 93.8476 167.116 94.195C166.558 94.8379 165.818 95.2972 164.995 95.5125C164.171 95.7278 163.302 95.6892 162.5 95.4017C162.199 95.3098 161.921 95.1546 161.685 94.9465C161.449 94.7384 161.26 94.4822 161.131 94.195C160.973 93.5092 161.061 92.7899 161.378 92.1617C161.431 91.9851 161.52 91.821 161.638 91.6791C161.844 91.5062 162.095 91.3935 162.362 91.3532C164.431 90.8223 166.941 87.0755 168.648 85.9231C168.208 87.4737 167.424 90.2612 167.749 91.6308Z" fill="url(#paint0_linear)"/>
<path d="M166.458 90.9551C166.237 91.3864 165.968 91.7913 165.656 92.1618C165.255 92.5777 164.774 92.9081 164.242 93.1331C163.71 93.3581 163.138 93.4731 162.561 93.4711C162.108 93.4711 161.571 93.3866 161.354 92.9763C161.284 92.7479 161.26 92.5082 161.282 92.2704C161.225 91.9122 161.246 91.5461 161.342 91.1964C161.53 90.8623 161.822 90.5994 162.175 90.4483C163.761 89.5734 165.408 88.8011 167.05 88.0349C167.261 87.9323 167.719 87.7151 167.888 87.9866C168.057 88.2581 167.677 88.6744 167.562 88.8856C167.219 89.6096 166.838 90.2733 166.458 90.9551Z" fill="url(#paint1_linear)"/>
<path opacity="0.46" d="M112.573 85.5792C130.627 85.5792 145.263 70.9436 145.263 52.8897C145.263 34.8358 130.627 20.2002 112.573 20.2002C94.5191 20.2002 79.8835 34.8358 79.8835 52.8897C79.8835 70.9436 94.5191 85.5792 112.573 85.5792Z" fill="#FD6868"/>
<path d="M54.392 116C55.3047 116.422 56.2815 116.69 57.282 116.791C57.5302 116.815 57.7808 116.789 58.0181 116.712C58.1361 116.673 58.2433 116.606 58.3313 116.518C58.4192 116.431 58.4855 116.323 58.5249 116.205C58.5478 116.064 58.5397 115.92 58.5011 115.783C58.4626 115.645 58.3945 115.518 58.3017 115.409C57.9001 114.924 57.3922 114.538 56.8175 114.281C55.3831 113.499 53.8043 113.019 52.1777 112.869C51.8097 112.869 50.5728 112.7 50.5909 113.333C50.609 113.967 51.695 114.57 52.1113 114.842C52.8312 115.303 53.5952 115.691 54.392 116Z" fill="#3E3E54"/>
<path d="M53.3603 76.9996C53.0319 77.5623 52.8382 78.1933 52.7942 78.8433C52.7503 79.4933 52.8573 80.1446 53.1069 80.7464C53.6305 81.9527 54.608 82.9042 55.828 83.3951C56.9201 83.8537 58.3138 83.8959 59.1766 83.0753C59.4649 82.7836 59.7016 82.4449 59.8765 82.0738C60.2242 81.4249 60.5285 80.7537 60.7875 80.0646C61.5055 78.1641 60.5643 76.4445 58.6637 75.7688C56.7632 75.093 54.5428 75.1292 53.3603 76.9996Z" fill="#3E3E54"/>
<path d="M53.4689 77.0115C53.1369 77.5727 52.9405 78.2037 52.8955 78.8542C52.8505 79.5047 52.958 80.1567 53.2094 80.7583C53.7346 81.9635 54.7117 82.9145 55.9305 83.407C57.0286 83.8656 58.4224 83.9078 59.2852 83.0933C59.57 82.7963 59.8062 82.4562 59.9851 82.0857C60.3278 81.4344 60.632 80.7635 60.8961 80.0765C61.6141 78.176 60.6668 76.4564 58.7723 75.7807C56.8778 75.1049 54.6514 75.1291 53.4689 77.0115Z" fill="url(#paint2_linear)"/>
<path d="M45.9451 122.088C44.9436 123.844 45.028 126.058 45.7098 127.965C45.7315 128.055 45.7798 128.137 45.8486 128.2C45.9478 128.255 46.0628 128.274 46.1744 128.254L56.2745 127.621C55.9909 127.621 54.1386 123.874 53.8611 123.445C53.2577 122.426 52.6242 121.068 51.6951 120.284C49.8971 118.739 46.9648 120.314 45.9451 122.088Z" fill="#3E3E54"/>
<path d="M82.6409 112.446C83.6296 114.373 84.4824 116.367 85.193 118.413C85.4264 119.206 85.7589 119.966 86.1825 120.676C86.312 120.891 86.4896 121.073 86.7014 121.207C86.9337 121.323 87.1899 121.383 87.4495 121.382C88.5396 121.346 89.6119 121.096 90.6051 120.646C91.146 120.473 91.6584 120.221 92.1255 119.898C92.6144 119.463 93.0444 118.966 93.4046 118.419C93.9177 117.751 94.4957 117.134 95.1302 116.579C95.7871 115.948 96.5986 115.5 97.4833 115.282C97.9248 115.183 98.3853 115.211 98.812 115.361C99.2387 115.512 99.6146 115.779 99.8967 116.133C100.264 116.796 100.394 117.564 100.265 118.311C100.228 119.001 100.045 119.676 99.7277 120.29C98.9192 121.696 97.1514 122.208 95.9809 123.307C95.6349 123.659 95.3106 124.031 95.0095 124.423C94.087 125.515 93.0447 126.501 91.9023 127.361C91.306 127.853 90.644 128.259 89.9354 128.568C89.2233 128.828 88.4776 128.984 87.7211 129.032C86.1574 129.197 84.5768 129.074 83.0572 128.67C82.3448 128.52 81.6972 128.151 81.2049 127.615C80.7881 126.993 80.5426 126.273 80.4929 125.527C79.9814 122.603 79.6669 119.648 79.5517 116.682C79.5517 115.397 79.6603 113.943 80.6558 113.134C81.083 112.849 81.5666 112.659 82.0736 112.578C82.5807 112.497 83.0993 112.526 83.5941 112.663" fill="url(#paint3_linear)"/>
<path d="M187.352 119.258C188.171 119.639 188.893 120.199 189.467 120.897C190.04 121.594 190.449 122.412 190.665 123.289C191.083 125.046 191.146 126.87 190.852 128.652C187.634 127.88 184.338 127.475 181.029 127.446L181.669 121.979C181.826 120.658 181.753 119.469 183.056 118.993C184.481 118.632 185.983 118.725 187.352 119.258Z" fill="#3E3E54"/>
<path d="M31.6819 125.497H192.843C193.963 125.497 195.037 125.942 195.829 126.734C196.621 127.526 197.066 128.6 197.066 129.72H27.4705C27.4705 128.6 27.9155 127.526 28.7075 126.734C29.4996 125.942 30.5738 125.497 31.694 125.497H31.6819Z" fill="#FD6868"/>
<path d="M31.6819 125.497H192.843C193.963 125.497 195.037 125.942 195.829 126.734C196.621 127.526 197.066 128.6 197.066 129.72H27.4705C27.4705 128.6 27.9155 127.526 28.7075 126.734C29.4996 125.942 30.5738 125.497 31.694 125.497H31.6819Z" fill="url(#paint4_linear)"/>
<path d="M172.19 94.7743C174.268 95.333 176.14 96.4826 177.578 98.0835C179.017 99.6845 179.96 101.668 180.293 103.794C181.675 111.409 183.75 125.244 183.056 127.663H165.071C160.34 127.663 155.924 128.115 151.194 128.266C149.522 128.327 147.773 128.363 146.282 127.603C146.043 127.491 145.835 127.321 145.679 127.108C145.518 126.807 145.451 126.464 145.486 126.124C145.486 123.005 146.252 119.946 146.994 116.923L149.963 104.856C150.289 103.265 150.808 101.719 151.507 100.253C152.167 99.0336 153.072 97.9644 154.165 97.1129C155.259 96.2613 156.517 95.6458 157.861 95.3053C160.642 94.6235 163.942 94.6114 166.808 94.7019C168.425 94.7864 170.555 94.7743 172.19 94.7743Z" fill="#FD6868"/>
<path d="M159.61 93.99L157.432 95.0398C157.315 95.0873 157.207 95.1546 157.112 95.2389C156.994 95.3561 156.903 95.4984 156.847 95.6552C156.141 97.2662 155.996 99.0762 155.314 100.693C155.259 100.782 155.223 100.882 155.211 100.987C155.198 101.091 155.209 101.197 155.242 101.297C155.3 101.39 155.381 101.467 155.477 101.52L156.684 102.328C156.744 102.364 156.811 102.413 156.817 102.485C156.817 102.521 156.809 102.556 156.795 102.588C156.78 102.62 156.759 102.649 156.732 102.672L154.922 104.874C154.922 106.956 155.96 109.001 157.004 110.811C158.048 112.621 160.208 116.646 160.708 118.655C159.49 111.33 158.216 101.327 159.61 93.99Z" fill="url(#paint5_linear)"/>
<path d="M174.127 100.216C174.331 101.097 174.262 102.019 173.928 102.859C173.752 103.274 173.458 103.628 173.083 103.877C172.707 104.126 172.267 104.259 171.816 104.259C171.991 105.116 173.065 105.598 173.137 106.467C173.119 106.754 173.042 107.035 172.911 107.291C172.78 107.547 172.599 107.774 172.377 107.957L162.217 118.981C162.458 118.498 161.42 118.492 161.613 117.997C163.585 113.388 165.199 108.633 166.44 103.776C166.832 102.129 167.291 100.5 167.804 98.8891C168.069 98.0565 168.582 95.1664 169.517 94.8587C171.659 94.1588 173.855 98.7865 174.127 100.216Z" fill="url(#paint6_linear)"/>
<path d="M163.598 95.0397C163.092 95.0006 162.59 94.922 162.096 94.8044C161.541 94.6476 161.04 94.3399 160.491 94.1468C160.434 94.1167 160.371 94.0985 160.307 94.0933C160.243 94.0882 160.178 94.0961 160.117 94.1166C160.028 94.1692 159.957 94.2469 159.912 94.3399C159.526 94.9686 159.237 95.652 159.055 96.3671C158.816 97.4301 158.703 98.5176 158.717 99.6071C158.681 101.53 158.721 103.454 158.838 105.381C158.866 106.146 158.959 106.907 159.115 107.656C159.303 108.47 159.628 109.249 159.809 110.069C159.942 110.673 159.996 111.276 160.123 111.831C160.415 112.927 160.836 113.984 161.378 114.98C162.211 114.54 162.645 113.605 163.019 112.736L168.781 99.402C169.045 98.9068 169.176 98.3518 169.161 97.791C169.023 96.6447 168.033 96.5843 167.188 96.2404C166.048 95.687 164.842 95.2834 163.598 95.0397Z" fill="white"/>
<path d="M163.598 95.0397C163.092 95.0006 162.59 94.922 162.096 94.8044C161.541 94.6476 161.04 94.3399 160.491 94.1468C160.434 94.1167 160.371 94.0985 160.307 94.0933C160.243 94.0882 160.178 94.0961 160.117 94.1166C160.028 94.1692 159.957 94.2469 159.912 94.3399C159.526 94.9686 159.237 95.652 159.055 96.3671C158.816 97.4301 158.703 98.5176 158.717 99.6071C158.681 101.53 158.721 103.454 158.838 105.381C158.866 106.146 158.959 106.907 159.115 107.656C159.303 108.47 159.628 109.249 159.809 110.069C159.942 110.673 159.996 111.276 160.123 111.831C160.415 112.927 160.836 113.984 161.378 114.98C162.211 114.54 162.645 113.605 163.019 112.736L168.781 99.402C169.045 98.9068 169.176 98.3518 169.161 97.791C169.023 96.6447 168.033 96.5843 167.188 96.2404C166.048 95.687 164.842 95.2834 163.598 95.0397Z" fill="url(#paint7_linear)"/>
<path d="M84.0587 111.704C83.9529 111.976 83.7652 112.208 83.5218 112.368C82.7591 112.978 81.9635 113.546 81.1385 114.069C81.2556 115.419 80.9767 116.773 80.3361 117.967C79.9439 118.679 79.4311 119.319 79.057 120.043C78.72 120.684 78.5013 121.381 78.4114 122.1C78.1821 123.91 78.4838 125.72 78.514 127.53C78.5398 127.633 78.5399 127.74 78.5144 127.843C78.4888 127.946 78.4383 128.041 78.3674 128.12C78.2964 128.199 78.2072 128.259 78.1075 128.295C78.0079 128.331 77.9009 128.342 77.796 128.327C71.3455 128.85 64.864 128.871 58.4103 128.387C58.1507 128.395 57.8972 128.307 57.6984 128.14C57.588 127.984 57.527 127.799 57.5234 127.609C58.6396 127.705 59.786 127.711 60.9082 127.711H73.6449C73.8252 127.737 74.0089 127.721 74.1824 127.666C74.3558 127.611 74.5145 127.517 74.6465 127.391C74.7706 127.174 74.8133 126.919 74.7672 126.673C74.4957 124.67 72.3538 123.439 70.3265 123.216C69.5678 123.132 68.8015 123.144 68.0458 123.252C67.6481 123.331 67.2444 123.375 66.8391 123.385C66.2349 123.336 65.6433 123.185 65.0894 122.939C62.8691 122.078 60.6447 121.223 58.4164 120.374C58.6513 119.252 58.7826 118.111 58.8086 116.965C58.8435 116.688 58.7901 116.406 58.6558 116.16C58.5215 115.914 58.3132 115.717 58.0604 115.596C57.8794 115.469 57.6984 115.348 57.5053 115.234C55.7797 114.173 53.8369 113.515 51.8218 113.309C51.6106 113.309 51.4054 113.267 51.2184 113.255C51.0314 113.243 50.7599 113.219 50.6452 113.038C50.5863 112.931 50.5611 112.809 50.5728 112.688C50.4473 108.726 51.7904 104.859 54.3438 101.827C56.914 98.8589 60.8841 96.3972 64.8058 96.3369C66.0548 96.3369 67.1348 97.0127 68.3837 97.0549C69.6326 97.0971 71.0747 96.6748 72.3115 97.0549C73.8682 97.4772 75.461 97.9298 76.7341 98.9253C78.3511 100.192 79.2078 102.159 80.2335 103.945C81.5669 106.274 83.2865 108.428 84.0527 110.998C84.1203 111.229 84.1223 111.473 84.0587 111.704Z" fill="#FD6868"/>
<path d="M58.6456 116.157C58.5531 114.399 58.5531 112.645 58.6456 110.896C59.0195 111.574 59.2437 112.325 59.3033 113.098C59.5343 114.164 60.0115 115.161 60.6966 116.01C61.3818 116.858 62.2559 117.535 63.2492 117.985C64.287 118.444 65.5419 118.733 66.085 119.735C66.2094 120.043 66.3524 120.343 66.5133 120.634C66.6891 120.844 66.905 121.018 67.1484 121.144C67.3918 121.271 67.6579 121.347 67.9312 121.37C69.8438 121.666 71.9435 120.833 73.657 121.732C74.3207 122.076 77.9227 121.557 78.4054 122.124C78.4054 122.124 78.339 126.535 78.4838 127.838C78.52 128.17 76.1971 127.838 75.7989 127.808C73.0482 127.643 70.3112 127.298 67.6054 126.776C64.8919 126.249 62.3088 125.193 60.0032 123.669C59.4145 123.313 58.9265 122.812 58.5853 122.215C58.2913 121.465 58.1997 120.652 58.3198 119.856C58.4224 118.353 58.5491 116.839 58.712 115.367" fill="url(#paint8_linear)"/>
<path d="M74.6284 127.421C74.4964 127.547 74.3377 127.641 74.1643 127.696C73.9908 127.752 73.8071 127.767 73.6268 127.741H60.8901C59.7679 127.741 58.6215 127.741 57.5053 127.639C57.2217 125.225 57.9096 122.812 58.3741 120.398C60.5985 121.247 62.8228 122.102 65.0472 122.963C65.6011 123.209 66.1927 123.36 66.7969 123.409C67.2022 123.399 67.6059 123.355 68.0036 123.276C68.7593 123.168 69.5256 123.156 70.2843 123.24C72.2934 123.463 74.4534 124.694 74.7249 126.697C74.7799 126.943 74.7457 127.199 74.6284 127.421Z" fill="#FD6868"/>
<path d="M63.5931 87.1539C63.8103 89.7483 64.0275 93.3141 64.0517 95.9146L62.1451 96.8498C62.0428 96.8896 61.9546 96.9589 61.8917 97.0489C61.852 97.1484 61.8395 97.2567 61.8555 97.3626L62.1813 101.713C62.1766 102.496 62.3696 103.268 62.7424 103.957C63.3457 104.874 64.5102 105.23 65.5902 105.448C66.6953 105.715 67.8375 105.795 68.969 105.683C69.7313 105.551 70.4834 105.366 71.2195 105.128C72.2633 104.838 73.3252 104.609 74.387 104.416C74.7037 104.384 75.0071 104.272 75.2679 104.09C75.4501 103.873 75.5712 103.612 75.6189 103.333C75.6666 103.054 75.6392 102.768 75.5394 102.503C75.0576 100.941 74.2927 99.4808 73.2829 98.1952C72.9492 97.6285 72.4674 97.1633 71.8892 96.8498C71.5815 96.717 71.2436 96.6688 70.9238 96.5602C70.7622 96.5177 70.6112 96.4421 70.4804 96.3383C70.3495 96.2344 70.2416 96.1045 70.1636 95.9568C70.1131 95.7846 70.0927 95.605 70.1033 95.4259V92.8254C70.1187 92.491 70.0882 92.156 70.0128 91.8299C69.8638 91.4023 69.6251 91.0114 69.3129 90.6835C68.5155 89.7638 67.5691 88.9847 66.5133 88.3787C66.1999 88.1752 65.8492 88.0357 65.4816 87.9684C65.1136 87.9141 63.8345 86.9186 63.575 87.1841" fill="url(#paint9_linear)"/>
<path d="M66.5495 94.0321C66.9081 94.5271 67.3802 94.9289 67.926 95.204C68.4719 95.479 69.0757 95.6192 69.687 95.6129C69.8091 95.6129 69.9279 95.5726 70.0248 95.4982C70.0903 95.4262 70.1398 95.3411 70.17 95.2485C70.2001 95.156 70.2103 95.058 70.1998 94.9613L70.2782 92.1134C70.3204 91.8908 70.2757 91.6605 70.1534 91.4698C70.0311 91.2791 69.8405 91.1424 69.6206 91.0878C68.8845 90.7137 65.0351 88.1977 64.4921 89.157C64.1965 89.6819 64.9386 91.0938 65.1498 91.6066C65.4857 92.4838 65.9581 93.3024 66.5495 94.0321Z" fill="url(#paint10_linear)"/>
<path d="M78.333 77.5425C78.5766 78.9241 78.6636 80.3287 78.5924 81.7298C78.6379 83.7659 78.3899 85.7979 77.8563 87.7633C77.2996 89.7295 76.0334 91.4193 74.3026 92.5056C73.2821 93.0527 72.1421 93.3391 70.9842 93.3391C69.8262 93.3391 68.6863 93.0527 67.6657 92.5056C65.6279 91.3761 64.1219 89.4837 63.4785 87.2444C63.0507 87.2175 62.6373 87.0798 62.2788 86.845C61.9202 86.6102 61.6288 86.2863 61.4331 85.905C61.0525 85.1307 60.973 84.2427 61.2099 83.4131C61.3728 82.8098 61.7529 82.2064 62.3623 82.1159C62.9717 82.0254 63.4966 82.5624 63.9008 83.033C63.5268 80.6196 63.9913 78.0433 65.5842 76.2272C66.798 74.9287 68.3933 74.0497 70.1395 73.7173C71.7746 73.3613 74.3147 73.0053 75.9437 73.5484C77.3676 74.031 78.0675 76.2453 78.333 77.5425Z" fill="url(#paint11_linear)"/>
<path d="M78.689 72.9932C79.174 74.5538 79.3782 76.1881 79.2923 77.82V79.8111H66.5556C66.4558 79.8213 66.3552 79.8025 66.266 79.7568C66.1766 79.6868 66.1129 79.5892 66.085 79.4792C65.8621 78.861 65.7004 78.2224 65.6023 77.5727C64.7938 78.9845 64.9265 80.7221 64.836 82.3452C64.8443 82.4648 64.8259 82.5848 64.7821 82.6965C64.7383 82.8082 64.6701 82.9087 64.5826 82.9907C64.4779 83.0485 64.3573 83.0709 64.2388 83.0546C64.1203 83.0383 64.0102 82.9842 63.925 82.9002C63.7826 82.7619 63.6314 82.633 63.4725 82.5141C62.5674 81.9107 61.8133 82.0012 61.2461 83.4432C58.893 81.8021 59.7136 77.2891 59.8886 75.7143C59.947 74.9826 60.0887 74.26 60.3109 73.5604C60.9294 71.971 62.0841 70.6477 63.575 69.8196C65.9341 68.4078 68.7518 67.9733 71.497 68.0095C72.2922 67.9755 73.087 68.0838 73.8441 68.3293C74.4271 68.5428 74.9333 68.9251 75.2981 69.4274C75.5703 69.7919 75.9348 70.0773 76.354 70.254C77.4349 70.8584 78.2634 71.8303 78.689 72.9932Z" fill="#3E3E54"/>
<path d="M78.689 72.9932C79.174 74.5538 79.3782 76.1881 79.2923 77.82V79.8111H66.5556C66.4558 79.8213 66.3552 79.8025 66.266 79.7568C66.1766 79.6868 66.1129 79.5892 66.085 79.4792C65.8621 78.861 65.7004 78.2224 65.6023 77.5727C64.7938 78.9845 64.9265 80.7221 64.836 82.3452C64.8443 82.4648 64.8259 82.5848 64.7821 82.6965C64.7383 82.8082 64.6701 82.9087 64.5826 82.9907C64.4779 83.0485 64.3573 83.0709 64.2388 83.0546C64.1203 83.0383 64.0102 82.9842 63.925 82.9002C63.7826 82.7619 63.6314 82.633 63.4725 82.5141C62.5674 81.9107 61.8133 82.0012 61.2461 83.4432C58.893 81.8021 59.7136 77.2891 59.8886 75.7143C59.947 74.9826 60.0887 74.26 60.3109 73.5604C60.9294 71.971 62.0841 70.6477 63.575 69.8196C65.9341 68.4078 68.7518 67.9733 71.497 68.0095C72.2922 67.9755 73.087 68.0838 73.8441 68.3293C74.4271 68.5428 74.9333 68.9251 75.2981 69.4274C75.5703 69.7919 75.9348 70.0773 76.354 70.254C77.4349 70.8584 78.2634 71.8303 78.689 72.9932Z" fill="url(#paint12_linear)"/>
<path d="M75.9799 106.781C75.9765 107.808 75.8032 108.827 75.467 109.798C75.1244 110.788 74.4312 111.619 73.5182 112.133C72.9232 112.411 72.284 112.582 71.6297 112.64C70.7667 112.781 69.8863 112.781 69.0232 112.64C67.0322 112.253 65.4031 110.745 64.3895 108.989C63.4599 107.185 62.7934 105.257 62.4105 103.263C65.4514 103.368 68.4963 103.368 71.5452 103.263C72.2994 103.263 73.0536 103.215 73.8078 103.179C74.2422 103.179 75.1231 102.914 75.5334 103.179C76.3178 103.644 76.004 105.991 75.9799 106.781Z" fill="white"/>
<path d="M74.6284 127.421C74.4964 127.547 74.3377 127.641 74.1643 127.696C73.9908 127.752 73.8071 127.767 73.6268 127.741H60.8901C59.7679 127.741 58.6215 127.741 57.5053 127.639C56.1997 127.548 54.9187 127.238 53.7163 126.722C53.0146 126.446 52.3813 126.021 51.8604 125.476C51.3394 124.931 50.9433 124.279 50.6995 123.566C50.5438 122.884 50.499 122.181 50.5668 121.485C50.6845 118.94 51.0462 116.412 51.6468 113.937C51.7011 113.725 51.7373 113.514 51.7795 113.333C53.7947 113.539 55.7374 114.197 57.4631 115.258C57.4631 116.525 56.371 117.876 56.4555 119.228C56.4505 119.367 56.4885 119.504 56.5641 119.62C56.6663 119.724 56.7928 119.801 56.9321 119.843L58.3742 120.398C60.5985 121.247 62.8229 122.102 65.0472 122.963C65.6011 123.209 66.1927 123.36 66.7969 123.409C67.2022 123.399 67.6059 123.355 68.0036 123.276C68.7593 123.168 69.5256 123.156 70.2843 123.24C72.2934 123.463 74.4534 124.694 74.7249 126.697C74.7799 126.943 74.7457 127.199 74.6284 127.421Z" fill="url(#paint13_linear)"/>
<path d="M100.12 105.834C100.145 105.659 100.126 105.481 100.066 105.315C99.9396 105.104 99.7461 104.943 99.5165 104.856C95.2207 102.696 90.2069 102.714 85.3981 102.775C85.5579 111.323 84.0856 119.823 81.0601 127.82L95.5405 128.073C95.7474 127.067 95.8485 126.042 95.8421 125.014C95.9326 123.994 96.2524 122.896 97.0971 122.317C96.3947 121.124 96.0924 119.737 96.2343 118.359C96.3182 117.886 96.4979 117.434 96.7625 117.033C97.0271 116.631 97.3709 116.288 97.7729 116.024C98.7503 115.342 98.871 115.324 99.1123 114.063C99.6406 111.347 99.9773 108.597 100.12 105.834Z" fill="white"/>
<path d="M152.841 81.9349C152.913 84.6198 153.124 87.5279 154.892 89.5552C155.575 90.2908 156.406 90.8729 157.331 91.2629C158.255 91.653 159.252 91.8421 160.256 91.8177C162.269 91.7674 164.225 91.139 165.891 90.0077C167.025 89.3169 167.975 88.3627 168.66 87.2262C168.9 86.6589 169.226 86.1318 169.626 85.6636C170.127 85.1869 170.833 84.9878 171.327 84.487C171.709 84.0549 171.923 83.5006 171.931 82.9244C171.972 82.4498 171.882 81.9731 171.669 81.547C171.455 81.121 171.129 80.7624 170.724 80.5109C170.52 80.3981 170.295 80.3278 170.063 80.3044C169.831 80.2811 169.597 80.3051 169.375 80.3751C169.153 80.4451 168.947 80.5595 168.77 80.7115C168.593 80.8635 168.449 81.0498 168.347 81.2591C168.751 78.2424 168.467 74.8576 166.386 72.6252C165.507 71.7304 164.453 71.026 163.291 70.5557C161.578 69.8048 159.73 69.4106 157.861 69.3972C156.61 69.3492 155.37 69.6389 154.271 70.2359C152.328 71.4426 152.617 72.7277 152.792 74.586C153.028 76.9753 152.78 79.5094 152.841 81.9349Z" fill="url(#paint14_linear)"/>
<path d="M151.676 68.5949C151.574 67.9335 151.673 67.2568 151.96 66.6521C152.247 66.1605 152.665 65.7576 153.166 65.4876C154.089 65.0203 155.097 64.7433 156.129 64.6731C160.252 64.2085 164.423 64.9043 168.172 66.6823C169.306 67.2253 170.489 67.9915 170.802 69.2103C170.9 69.8611 170.929 70.5204 170.887 71.1772C170.884 71.3299 170.924 71.4803 171.001 71.6116C171.17 71.8409 171.496 71.8469 171.774 71.9012C172.093 71.9905 172.387 72.1517 172.634 72.3724C172.88 72.593 173.073 72.8674 173.198 73.1743C173.439 73.7893 173.58 74.4392 173.614 75.099C173.769 76.1644 173.785 77.2453 173.662 78.3149C173.529 79.3904 173.013 80.382 172.208 81.1084C172.042 81.2662 171.831 81.3694 171.605 81.404C171.08 81.4402 170.718 80.8912 170.241 80.6559C169.986 80.5514 169.709 80.5111 169.434 80.5385C169.16 80.5658 168.896 80.66 168.667 80.8127C168.205 81.1218 167.797 81.505 167.46 81.947L166.344 74.206C166.353 74.0073 166.317 73.8089 166.237 73.6266C166.157 73.4443 166.036 73.2828 165.884 73.1549C165.731 73.027 165.551 72.936 165.358 72.8892C165.165 72.8423 164.963 72.8408 164.769 72.8847L155.948 72.5468C154.705 72.4986 153.975 72.6675 153.082 71.6901C152.3 70.8314 151.808 69.7486 151.676 68.5949Z" fill="#3E3E54"/>
<path d="M151.676 68.5949C151.574 67.9335 151.673 67.2568 151.96 66.6521C152.247 66.1605 152.665 65.7576 153.166 65.4876C154.089 65.0203 155.097 64.7433 156.129 64.6731C160.252 64.2085 164.423 64.9043 168.172 66.6823C169.306 67.2253 170.489 67.9915 170.802 69.2103C170.9 69.8611 170.929 70.5204 170.887 71.1772C170.884 71.3299 170.924 71.4803 171.001 71.6116C171.17 71.8409 171.496 71.8469 171.774 71.9012C172.093 71.9905 172.387 72.1517 172.634 72.3724C172.88 72.593 173.073 72.8674 173.198 73.1743C173.439 73.7893 173.58 74.4392 173.614 75.099C173.769 76.1644 173.785 77.2453 173.662 78.3149C173.529 79.3904 173.013 80.382 172.208 81.1084C172.042 81.2662 171.831 81.3694 171.605 81.404C171.08 81.4402 170.718 80.8912 170.241 80.6559C169.986 80.5514 169.709 80.5111 169.434 80.5385C169.16 80.5658 168.896 80.66 168.667 80.8127C168.205 81.1218 167.797 81.505 167.46 81.947L166.344 74.206C166.353 74.0073 166.317 73.8089 166.237 73.6266C166.157 73.4443 166.036 73.2828 165.884 73.1549C165.731 73.027 165.551 72.936 165.358 72.8892C165.165 72.8423 164.963 72.8408 164.769 72.8847L155.948 72.5468C154.705 72.4986 153.975 72.6675 153.082 71.6901C152.3 70.8314 151.808 69.7486 151.676 68.5949Z" fill="url(#paint15_linear)"/>
<path d="M166.772 93.5314C166.078 93.8573 165.33 94.0684 164.666 94.4485C164.577 94.4902 164.5 94.5547 164.443 94.6356C164.395 94.7261 164.376 94.8294 164.389 94.9312C164.445 95.3255 164.578 95.7049 164.781 96.0474L166.169 98.7625C166.949 98.1318 167.592 97.3494 168.061 96.4627C168.53 95.576 168.814 94.6034 168.896 93.6038C169.029 91.5042 167.641 93.1212 166.772 93.5314Z" fill="white"/>
<path d="M160.352 93.4469C160.301 93.8637 160.301 94.2851 160.352 94.7019C160.383 95.1317 160.383 95.5632 160.352 95.9931C160.313 96.1922 160.313 96.3972 160.352 96.5964C160.371 96.692 160.417 96.7803 160.484 96.8508C160.552 96.9214 160.638 96.9712 160.733 96.9946C160.85 96.9971 160.966 96.9709 161.071 96.9183C161.177 96.8658 161.267 96.7884 161.336 96.6929C161.704 96.3008 162.018 95.8603 162.404 95.4862C162.774 95.0897 163.271 94.8356 163.81 94.7682C163.588 94.4581 163.288 94.2123 162.941 94.0563C162.496 93.7835 162.109 93.427 161.8 93.0065C161.595 92.7289 161.324 92.2764 160.932 92.4634C160.775 92.5813 160.644 92.7288 160.544 92.8975C160.445 93.0663 160.38 93.253 160.352 93.4469Z" fill="white"/>
<path d="M173.916 98.8711C174.123 99.7534 174.054 100.678 173.717 101.52C173.541 101.935 173.247 102.289 172.872 102.538C172.496 102.787 172.055 102.92 171.605 102.92C171.78 103.77 172.854 104.253 172.926 105.122C172.908 105.409 172.831 105.689 172.7 105.945C172.569 106.202 172.387 106.429 172.166 106.612L162.005 117.641C164.371 112.923 165.022 107.565 166.229 102.431C166.621 100.79 167.08 99.1607 167.593 97.5497C167.858 96.7171 168.371 93.821 169.306 93.5133C171.442 92.8134 173.65 97.4532 173.916 98.8711Z" fill="#FD6868"/>
<path d="M160.189 93.6218L158.011 94.6717C157.894 94.7191 157.786 94.7865 157.692 94.8708C157.573 94.988 157.482 95.1302 157.426 95.2871C156.72 96.898 156.575 98.702 155.894 100.325C155.838 100.414 155.803 100.514 155.789 100.618C155.776 100.722 155.784 100.828 155.815 100.928C155.877 101.021 155.96 101.097 156.056 101.152L157.263 101.96C157.298 101.971 157.328 101.992 157.352 102.02C157.375 102.047 157.39 102.081 157.395 102.117C157.4 102.153 157.395 102.189 157.38 102.222C157.365 102.256 157.342 102.284 157.311 102.304L155.501 104.506C155.501 106.588 156.539 108.633 157.583 110.443C158.627 112.253 160.787 116.278 161.288 118.287C160.069 110.956 158.772 100.959 160.189 93.6218Z" fill="#FD6868"/>
<path d="M173.916 98.8711C174.123 99.7534 174.054 100.678 173.717 101.52C173.541 101.935 173.247 102.289 172.872 102.538C172.496 102.787 172.055 102.92 171.605 102.92C171.78 103.77 172.854 104.253 172.926 105.122C172.908 105.409 172.831 105.689 172.7 105.945C172.569 106.202 172.387 106.429 172.166 106.612L162.005 117.641C164.371 112.923 165.022 107.565 166.229 102.431C166.621 100.79 167.08 99.1607 167.593 97.5497C167.858 96.7171 168.371 93.821 169.306 93.5133C171.442 92.8134 173.65 97.4532 173.916 98.8711Z" fill="url(#paint16_linear)"/>
<path d="M165.191 123.85H174.066C174.791 119.24 173.554 114.57 173.355 109.912C172.641 112.568 171.727 115.166 170.621 117.683C170.447 118.112 170.22 118.518 169.946 118.89C169.583 119.306 169.15 119.655 168.667 119.922C164.787 122.245 159.93 122.335 155.513 121.394C154.995 117.122 154.47 112.808 152.991 108.766C152.651 113.17 152.024 117.548 151.115 121.871C151.052 122.276 150.898 122.662 150.663 122.999C150.398 123.268 150.102 123.505 149.782 123.705C148.466 124.724 148.147 126.547 147.923 128.194C147.839 128.546 147.877 128.916 148.032 129.244C148.189 129.412 148.383 129.544 148.598 129.627C148.813 129.711 149.045 129.745 149.275 129.726C153.519 130.007 157.777 130.025 162.024 129.781C163.146 129.714 166.681 130.028 167.08 128.815C167.279 128.224 165.843 123.85 165.191 123.85Z" fill="url(#paint17_linear)"/>
<path d="M160.841 123.439C160.305 123.443 159.771 123.49 159.242 123.578C158.847 123.635 158.458 123.734 158.084 123.874C157.458 124.137 156.894 124.53 156.431 125.026C156.254 125.189 156.107 125.381 155.996 125.593C155.864 125.943 155.813 126.319 155.845 126.692C155.845 127.114 155.9 127.609 156.268 127.82C156.446 127.899 156.64 127.934 156.835 127.922C157.275 127.922 157.722 127.922 158.162 127.922L164.745 127.693C165.529 127.681 166.313 127.627 167.092 127.53C167.158 127.529 167.224 127.514 167.284 127.486C167.345 127.458 167.398 127.418 167.442 127.367C167.476 127.3 167.493 127.225 167.49 127.15C167.514 126.637 167.395 126.127 167.146 125.678C166.881 125.183 166.543 125.075 166.036 124.851C164.985 124.36 163.89 123.97 162.766 123.687C162.136 123.532 161.49 123.449 160.841 123.439Z" fill="url(#paint18_linear)"/>
<path d="M156.195 124.604C156.728 124.941 157.123 125.456 157.312 126.058C157.394 126.36 157.374 126.682 157.253 126.971C157.133 127.261 156.92 127.502 156.648 127.657C156.393 127.751 156.123 127.8 155.851 127.802C153.201 127.939 150.55 127.953 147.899 127.844C147.787 127.848 147.677 127.821 147.579 127.766C147.521 127.709 147.474 127.642 147.442 127.567C147.409 127.493 147.393 127.412 147.392 127.331C147.215 126.579 147.309 125.788 147.658 125.099C148.424 123.964 150.234 123.482 151.501 123.476C153.118 123.47 154.838 123.651 156.195 124.604Z" fill="url(#paint19_linear)"/>
<path d="M29.2082 137.003L196.113 137.003C197.116 137.003 197.929 136.19 197.929 135.187V129.823C197.929 128.82 197.116 128.007 196.113 128.007L29.2082 128.007C28.2052 128.007 27.3921 128.82 27.3921 129.823V135.187C27.3921 136.19 28.2052 137.003 29.2082 137.003Z" fill="#FD6868"/>
<path d="M184.486 191.141L40.8408 191.141C38.5125 191.141 36.2796 190.216 34.6332 188.57C32.9869 186.924 32.062 184.691 32.062 182.363V136.508L193.259 136.508V182.363C193.259 184.691 192.334 186.924 190.688 188.57C189.042 190.216 186.809 191.141 184.48 191.141H184.486Z" fill="#FD6868"/>
<path d="M32.062 159.996L193.259 159.996V136.49L32.062 136.49V159.996Z" fill="url(#paint20_linear)"/>
<path d="M164.365 95.1605C164.775 95.5099 165.072 95.9742 165.216 96.4936C165.36 97.0131 165.345 97.5638 165.173 98.0747C164.98 98.6177 164.618 99.0884 164.479 99.6495C164.395 100.206 164.42 100.774 164.552 101.321C164.733 102.383 164.865 103.457 164.944 104.537C165.014 105.34 165.014 106.147 164.944 106.95C164.821 107.871 164.619 108.779 164.341 109.665L162.953 114.546C162.617 115.839 162.188 117.105 161.668 118.335C160.98 117.696 160.829 116.682 160.726 115.747C160.598 114.629 160.483 113.508 160.383 112.386C160.233 111.219 160.219 110.039 160.34 108.869C160.557 107.667 160.911 106.495 161.396 105.375C161.879 104.12 162.362 102.871 162.85 101.616C163.206 100.693 163.574 99.6857 163.327 98.7263C163.031 97.592 161.909 96.6026 162.211 95.4683C162.432 95.1487 162.763 94.9206 163.14 94.8262C163.517 94.7319 163.916 94.7778 164.262 94.9554C165.083 95.42 165.3 96.4759 165.433 97.3688" fill="#3E3E54"/>
<path d="M164.365 95.1605C164.775 95.5099 165.072 95.9742 165.216 96.4936C165.36 97.0131 165.345 97.5638 165.173 98.0747C164.98 98.6177 164.618 99.0884 164.479 99.6495C164.395 100.206 164.42 100.774 164.552 101.321C164.733 102.383 164.865 103.457 164.944 104.537C165.014 105.34 165.014 106.147 164.944 106.95C164.821 107.871 164.619 108.779 164.341 109.665L162.953 114.546C162.617 115.839 162.188 117.105 161.668 118.335C160.98 117.696 160.829 116.682 160.726 115.747C160.598 114.629 160.483 113.508 160.383 112.386C160.233 111.219 160.219 110.039 160.34 108.869C160.557 107.667 160.911 106.495 161.396 105.375C161.879 104.12 162.362 102.871 162.85 101.616C163.206 100.693 163.574 99.6857 163.327 98.7263C163.031 97.592 161.909 96.6026 162.211 95.4683C162.432 95.1487 162.763 94.9206 163.14 94.8262C163.517 94.7319 163.916 94.7778 164.262 94.9554C165.083 95.42 165.3 96.4759 165.433 97.3688" fill="url(#paint21_linear)"/>
<path d="M63.2975 84.0889C63.2528 83.9214 63.1771 83.7638 63.0742 83.6243C63.0206 83.5563 62.953 83.5006 62.8759 83.461C62.7989 83.4215 62.7142 83.399 62.6277 83.395C62.4938 83.4144 62.3686 83.4728 62.2677 83.5629C62.1669 83.653 62.0948 83.7709 62.0606 83.9018C61.9798 84.208 61.9655 84.528 62.0186 84.8402C62.0717 85.1523 62.1909 85.4496 62.3683 85.7119C62.5131 85.9653 62.7303 86.2368 63.0199 86.2368C63.937 86.2187 63.4423 84.5354 63.2975 84.0889Z" fill="url(#paint22_linear)"/>
<path d="M79.6905 152.961H84.0829L89.8207 161.408V152.961H94.2614V168.196H89.8207L84.1191 159.834V168.196H79.6905V152.961Z" fill="white"/>
<path d="M97.3747 152.961H109.991V156.213H102.093V158.627H109.418V161.734H102.093V164.751H110.22V168.202H97.3747V152.961Z" fill="white"/>
<path d="M111.185 152.961H115.656L117.267 161.487L119.62 152.961H124.079L126.438 161.481L128.049 152.961H132.496L129.141 168.196H124.525L121.853 158.603L119.192 168.196H114.576L111.185 152.961Z" fill="white"/>
<path d="M133.214 163.152L137.691 162.868C137.744 163.466 137.952 164.04 138.294 164.534C138.542 164.841 138.859 165.086 139.22 165.246C139.581 165.407 139.975 165.479 140.369 165.457C140.929 165.493 141.483 165.324 141.926 164.98C142.091 164.853 142.225 164.69 142.317 164.503C142.409 164.317 142.457 164.111 142.457 163.903C142.457 163.695 142.409 163.489 142.317 163.303C142.225 163.116 142.091 162.953 141.926 162.826C141.194 162.363 140.371 162.062 139.513 161.945C137.449 161.483 135.977 160.865 135.096 160.093C134.668 159.735 134.326 159.284 134.097 158.775C133.867 158.267 133.755 157.713 133.769 157.155C133.773 156.364 134.01 155.591 134.451 154.934C134.955 154.197 135.667 153.626 136.496 153.293C137.692 152.844 138.966 152.639 140.243 152.69C142.186 152.69 143.67 153.052 144.695 153.776C145.227 154.189 145.664 154.711 145.977 155.307C146.289 155.904 146.469 156.561 146.505 157.233L142.071 157.492C142.058 157.208 141.986 156.93 141.861 156.674C141.736 156.418 141.56 156.191 141.343 156.007C141.126 155.822 140.874 155.685 140.601 155.602C140.329 155.519 140.043 155.493 139.76 155.526C139.319 155.493 138.881 155.617 138.523 155.875C138.394 155.975 138.29 156.103 138.219 156.25C138.148 156.396 138.111 156.557 138.113 156.72C138.116 156.848 138.148 156.974 138.206 157.088C138.265 157.202 138.348 157.301 138.451 157.378C138.931 157.677 139.47 157.868 140.032 157.939C141.554 158.21 143.039 158.661 144.454 159.284C145.248 159.652 145.922 160.238 146.397 160.974C146.803 161.653 147.012 162.433 147 163.224C147.004 164.186 146.721 165.128 146.186 165.927C145.635 166.764 144.847 167.417 143.923 167.804C142.757 168.267 141.509 168.485 140.255 168.443C137.666 168.443 135.868 167.943 134.873 166.947C133.881 165.923 133.292 164.575 133.214 163.152Z" fill="white"/>
<path d="M80.9394 110.799C80.9203 109.88 80.7907 108.966 80.5533 108.078C80.2395 107.095 79.6543 106.166 79.6483 105.14C80.1866 106.193 80.808 107.202 81.5066 108.157C81.9048 108.706 82.3211 109.231 82.7133 109.804C83.0327 110.31 83.3034 110.845 83.5218 111.403C83.6114 111.591 83.6509 111.798 83.6364 112.006C83.5924 112.165 83.5162 112.314 83.4124 112.443C83.3086 112.571 83.1795 112.677 83.033 112.754C82.5866 113.05 81.579 113.961 81.1506 113.466C80.7765 113.074 80.9394 111.33 80.9394 110.799Z" fill="url(#paint23_linear)"/>
<path d="M123.729 22.9154L123.512 23.6394C123.5 23.6431 123.487 23.6431 123.476 23.6394C122.577 23.7601 122.498 23.8747 122.734 24.7677C122.969 25.6606 122.878 25.8235 122.13 26.3364C122.077 26.3622 122.029 26.3989 121.991 26.4441C121.953 26.4894 121.925 26.5422 121.908 26.5991C121.892 26.656 121.887 26.7157 121.895 26.7744C121.904 26.8331 121.924 26.8894 121.955 26.9397C122.024 27.174 122.18 27.373 122.391 27.4963C122.602 27.6196 122.851 27.6579 123.089 27.6034C123.693 27.5672 123.693 27.5672 123.838 28.1102C123.874 28.222 123.939 28.3219 124.027 28.3994C124.116 28.4769 124.223 28.5292 124.338 28.5507C124.567 28.631 124.788 28.734 124.996 28.8584C125.189 28.967 125.177 29.1118 125.068 29.3049C124.842 29.6704 124.663 30.0639 124.538 30.4754C124.466 30.8628 124.305 31.2284 124.069 31.5434C123.832 31.8585 123.526 32.1145 123.174 32.2915C123.017 32.3759 122.866 32.4725 122.619 32.6233L123.536 32.7983C123.72 32.8135 123.897 32.8724 124.053 32.97C124.21 33.0676 124.341 33.2011 124.435 33.3594C124.486 33.4313 124.52 33.5134 124.536 33.6C124.551 33.6866 124.548 33.7756 124.525 33.8606C124.503 33.9457 124.462 34.0249 124.406 34.0925C124.35 34.1602 124.279 34.2147 124.2 34.2523C123.897 34.4168 123.58 34.5522 123.252 34.6566C122.293 35.0005 122.16 35.3927 122.734 36.2253C122.945 36.527 123.15 36.8287 123.379 37.1243C123.495 37.2732 123.641 37.3965 123.807 37.4863C124.037 37.613 124.254 37.6552 124.411 37.3294C124.526 37.1751 124.662 37.0371 124.815 36.9192C125.039 37.1365 125.196 37.4132 125.268 37.7169C125.339 38.0205 125.322 38.3382 125.219 38.6327C124.827 39.7308 124.417 40.8289 124.067 41.939C123.776 42.6895 123.697 43.5053 123.837 44.2977C123.978 45.0902 124.333 45.829 124.863 46.434C125.037 46.6515 125.156 46.9084 125.207 47.1821C125.251 47.4344 125.351 47.6736 125.499 47.8824C125.647 48.0911 125.84 48.2642 126.064 48.3888C126.259 48.5109 126.46 48.6216 126.667 48.7207C127.249 48.9886 127.751 49.4047 128.121 49.9274C128.295 50.1739 128.498 50.3987 128.725 50.5971C128.822 50.6947 128.94 50.7688 129.071 50.8137C129.201 50.8586 129.34 50.8732 129.476 50.8563C129.613 50.8394 129.744 50.7915 129.86 50.7163C129.975 50.641 130.072 50.5404 130.143 50.4221C130.2 50.3518 130.249 50.2748 130.287 50.1929C130.387 49.9652 130.56 49.7777 130.779 49.6606C130.998 49.5434 131.25 49.5035 131.494 49.5473C131.675 49.5473 131.85 49.5473 132.031 49.5473C132.55 49.5473 132.634 49.4688 132.701 48.9439C132.701 48.8534 132.701 48.7629 132.743 48.6785C132.753 48.5858 132.784 48.4966 132.832 48.4171C132.881 48.3376 132.946 48.2698 133.024 48.2185C133.102 48.1672 133.19 48.1337 133.282 48.1204C133.374 48.1071 133.468 48.1143 133.558 48.1415C133.98 48.2078 134.414 48.2682 134.843 48.3044C135.597 48.3647 135.868 48.6181 135.784 49.3663C135.722 50.0476 135.897 50.7295 136.279 51.297C136.691 52.028 137.202 52.6981 137.799 53.288C138.076 53.4902 138.263 53.7914 138.323 54.1288C138.383 54.4661 138.31 54.8134 138.119 55.0981C137.986 55.3937 137.829 55.7014 137.679 55.9669C137.527 56.2248 137.451 56.5204 137.461 56.8195C137.471 57.1185 137.565 57.4087 137.733 57.6563C138.177 58.3498 138.679 59.0038 139.235 59.6112C139.531 59.8742 139.76 60.2042 139.903 60.5736C140.046 60.943 140.098 61.3412 140.056 61.735C139.996 62.1853 140.039 62.6433 140.181 63.0747C140.323 63.5062 140.561 63.9 140.876 64.2268C140.916 64.2681 140.958 64.3064 141.003 64.3414C141.03 64.3581 141.058 64.3723 141.087 64.3837C141.691 63.732 142.692 63.6777 143.235 62.8391C141.321 69.0535 137.584 74.5494 132.508 78.6137C127.432 82.678 121.252 85.1232 114.769 85.632C108.287 86.1408 101.801 84.6898 96.1528 81.4672C90.5049 78.2447 85.9558 73.3992 83.0955 67.5595C80.2352 61.7198 79.1959 55.1553 80.1122 48.7176C81.0286 42.2799 83.8583 36.2661 88.2344 31.4564C92.6105 26.6467 98.331 23.2631 104.654 21.7444C110.976 20.2257 117.61 20.6421 123.693 22.9395L123.729 22.9154ZM98.6357 34.8436C99.6373 34.7954 100.56 35.2841 101.508 35.1031L101.713 33.7455C101.554 33.7041 101.393 33.6719 101.23 33.649C100.995 33.649 100.977 33.468 101.001 33.3232C101.023 33.2714 101.057 33.2254 101.1 33.1888C101.143 33.1522 101.194 33.1259 101.248 33.112C101.496 33.0637 101.761 33.0758 102.008 33.0215C102.198 32.9692 102.382 32.8984 102.557 32.8103V32.6354C102.229 32.5642 101.892 32.5398 101.556 32.563C101.143 32.6664 100.711 32.6762 100.294 32.5917C99.8764 32.5071 99.483 32.3303 99.1425 32.0743C98.9668 31.941 98.7625 31.8504 98.5458 31.8095C98.329 31.7687 98.1058 31.7788 97.8936 31.8389C97.4589 31.9528 97.035 32.1042 96.6266 32.2915C96.3411 32.4457 96.0218 32.5264 95.6974 32.5264C95.373 32.5264 95.0537 32.4457 94.7682 32.2915C94.5314 32.1692 94.2734 32.0934 94.008 32.0682C93.5495 32.026 93.4952 32.1165 93.64 32.569L94.2433 32.6052C94.1232 32.7227 94.0179 32.8544 93.9296 32.9974C93.8766 33.1482 93.8382 33.3038 93.8149 33.462C93.1211 33.462 92.922 33.6792 92.9099 34.379C92.9071 34.6249 92.9192 34.8707 92.9461 35.1151C92.9763 35.4228 93.0246 35.7185 93.0668 36.0745C92.1135 35.5737 91.2085 36.0745 90.2673 36.0745C90.2673 35.9538 90.2672 35.8331 90.231 35.7125C90.2205 35.5246 90.169 35.3413 90.0802 35.1755C89.9564 35.032 89.7851 34.9377 89.5975 34.91C89.3622 34.91 89.3502 35.1332 89.3622 35.3082C89.3714 35.4657 89.3339 35.6223 89.2545 35.7586C89.175 35.8949 89.0572 36.0048 88.9157 36.0745C88.3159 36.4668 87.6314 36.7108 86.9187 36.7864C86.4299 36.8347 85.9412 36.9071 85.4646 36.9976C85.2413 37.0338 85.0181 37.1484 85.0422 37.432C85.0534 37.5615 85.103 37.6847 85.1847 37.7857C85.2664 37.8868 85.3765 37.9611 85.5008 37.9992C85.6064 38.0462 85.7253 38.0539 85.8361 38.0206C85.9468 37.9874 86.0419 37.9156 86.1041 37.8181C86.2489 37.613 86.3756 37.3898 86.5265 37.1484C86.5928 37.2389 86.6833 37.3053 86.7075 37.3898C86.8221 37.7216 87.0816 37.7518 87.3712 37.7578C88.1003 37.7798 88.8212 37.5981 89.4527 37.2329C89.5372 37.1846 89.6217 37.1484 89.7061 37.1062C89.5928 37.3029 89.4307 37.467 89.2355 37.5828C88.7166 37.8785 88.1857 38.1862 87.6427 38.4336C86.8785 38.8139 86.0264 38.9827 85.175 38.9223C84.8552 38.9223 84.5294 38.9223 84.2036 38.9223C83.9607 38.9141 83.7218 38.985 83.5227 39.1243C83.3236 39.2635 83.1751 39.4637 83.0995 39.6946C82.9569 40.0855 82.8538 40.4898 82.7917 40.9013C82.6409 42.0416 82.5625 43.194 82.3815 44.3283C82.233 44.9423 82.0477 45.5467 81.8264 46.1383C81.7448 46.3469 81.7312 46.5759 81.7875 46.7926C81.8439 47.0093 81.9673 47.2027 82.1401 47.345C82.3935 47.5683 82.5564 47.5381 82.6469 47.2063C82.7374 46.8744 82.7495 46.6814 82.8098 46.3556C83.0331 46.796 83.2081 47.1761 83.4132 47.5623C83.8478 48.3448 84.1668 49.1862 84.3605 50.0601C84.4746 50.5594 84.6259 51.0495 84.813 51.5263C84.9532 51.9541 85.2011 52.3386 85.5329 52.6429C85.8647 52.9472 86.2692 53.1611 86.7075 53.2639C87.2035 53.3586 87.6623 53.5928 88.03 53.9391C88.3976 54.2853 88.6588 54.7293 88.783 55.2188C88.9108 55.6113 89.0871 55.9862 89.3079 56.335C89.4393 56.5569 89.6424 56.7275 89.8837 56.8185C90.125 56.9095 90.3901 56.9156 90.6353 56.8357L89.9897 56.1238C89.6941 55.8161 89.3864 55.5204 89.1028 55.2127C88.9655 55.0655 88.8746 54.8812 88.8414 54.6828C88.8081 54.4843 88.834 54.2804 88.9157 54.0965C89.0388 54.1164 89.1585 54.153 89.2717 54.2051C90.2733 54.8085 91.3895 55.267 92.1678 56.166C92.6252 56.7228 93.2264 57.1436 93.906 57.3829C94.5857 57.6222 95.3179 57.6709 96.0232 57.5236C97.0726 57.3587 98.1373 57.3142 99.1968 57.3908C99.6792 57.4021 100.145 57.5693 100.524 57.8675C100.783 58.0544 101.07 58.199 101.375 58.2959C102.051 58.5553 102.726 58.8027 103.414 59.038C103.585 59.1061 103.771 59.1249 103.951 59.0923C104.053 59.0478 104.166 59.0366 104.275 59.0605C104.383 59.0843 104.481 59.1419 104.555 59.225C104.811 59.4558 105.016 59.7373 105.158 60.0516C105.287 60.5571 105.362 61.0748 105.381 61.5962C105.423 62.2418 105.381 62.8934 105.435 63.539C105.43 63.894 105.525 64.2433 105.711 64.5458C105.897 64.8483 106.166 65.0914 106.485 65.2465C107.062 65.5468 107.562 65.9763 107.945 66.5014L108.585 67.2737C108.719 67.4628 108.903 67.6117 109.115 67.7042C109.328 67.7967 109.562 67.8293 109.792 67.7986C110.431 67.684 110.709 68.0098 110.914 68.5106C110.962 68.6252 111.016 68.7338 111.065 68.8484C111.511 69.8681 111.946 70.8998 112.404 71.9135C112.908 72.944 113.075 74.1072 112.881 75.2379C112.726 76.0649 112.869 76.9199 113.285 77.6513C113.538 78.134 113.725 78.6469 113.961 79.1416C114.365 79.9863 114.763 80.837 115.21 81.6515C115.365 81.9516 115.615 82.1914 115.922 82.3333C116.685 82.5711 117.507 82.5413 118.251 82.2489C118.329 82.2187 118.444 82.098 118.432 82.0437C118.416 81.993 118.39 81.9462 118.354 81.9066C118.319 81.8671 118.275 81.8356 118.226 81.8144C118.052 81.7933 117.876 81.7933 117.702 81.8144C117.611 81.8365 117.518 81.84 117.426 81.8247C117.335 81.8094 117.248 81.7755 117.17 81.7253C117.092 81.675 117.025 81.6094 116.973 81.5324C116.921 81.4554 116.886 81.3686 116.869 81.2775C116.779 81.0366 116.702 80.7908 116.64 80.5414C116.447 79.6484 116.254 78.7313 116.091 77.8565C116.048 77.6272 116.036 77.2531 116.163 77.1626C116.448 76.9701 116.762 76.8235 117.092 76.7282C117.159 76.7282 117.261 76.7282 117.321 76.7282C117.382 76.7282 117.629 76.5713 117.659 76.4567C117.69 76.3421 117.551 76.2033 117.46 76.0283C117.502 75.974 117.599 75.8714 117.69 75.7568C118.015 75.3405 118.009 75.1535 117.69 74.719C117.525 74.5528 117.385 74.3638 117.273 74.1579C117.125 73.8399 117.031 73.4994 116.996 73.1503C117.007 73.0505 117.044 72.9551 117.102 72.8729C117.16 72.7907 117.237 72.7243 117.327 72.6797C117.428 72.6669 117.529 72.6741 117.627 72.7011C117.724 72.728 117.815 72.7741 117.895 72.8366C118.034 72.9753 118.152 73.1339 118.245 73.3072C118.339 73.3044 118.431 73.2822 118.516 73.2421C118.601 73.2019 118.676 73.1446 118.738 73.0738C118.8 73.003 118.846 72.9202 118.875 72.8306C118.903 72.7409 118.912 72.6465 118.902 72.553C118.913 72.0081 118.879 71.4632 118.8 70.924C118.669 70.2276 118.775 69.5075 119.101 68.8786C119.318 68.4402 119.478 67.9759 119.578 67.4969C119.716 66.8356 120.058 66.2342 120.555 65.7774C120.791 65.5602 121.032 65.343 121.261 65.1137C121.474 64.9195 121.626 64.6685 121.7 64.3904C121.773 64.1123 121.766 63.8189 121.678 63.545C121.537 63.0623 121.362 62.5905 121.153 62.1332C120.684 61.2458 120.559 60.2167 120.803 59.2431C120.942 58.6941 120.803 58.4527 120.254 58.3441C119.663 58.1943 119.052 58.1413 118.444 58.1873C116.96 58.4497 115.432 58.2387 114.075 57.5839C113.497 57.3158 112.867 57.1779 112.229 57.1797C111.864 57.1672 111.511 57.0406 111.222 56.8176C110.995 56.6281 110.732 56.4862 110.449 56.4001C110.166 56.3141 109.869 56.2858 109.574 56.3169C109.285 56.3169 108.971 56.3169 108.706 56.3169C107.74 56.3893 106.769 56.4556 105.804 56.5763C105.339 56.6366 105.2 56.878 105.2 57.3486V58.2355C104.929 58.3924 104.724 58.2778 104.549 58.0485C104.517 57.9908 104.473 57.9411 104.42 57.9032C104.366 57.8652 104.305 57.84 104.24 57.8295C104.176 57.819 104.109 57.8235 104.047 57.8427C103.984 57.8618 103.927 57.8951 103.879 57.9399C103.702 58.104 103.469 58.1951 103.227 58.1951C102.986 58.1951 102.753 58.104 102.576 57.9399C102.425 57.8494 102.244 57.789 102.105 57.6865C101.725 57.415 101.284 57.1857 101.363 56.5884C101.194 56.6306 101.067 56.6668 100.934 56.6909C100.77 56.7618 100.591 56.795 100.412 56.7882C100.233 56.7813 100.057 56.7346 99.8981 56.6513C99.7392 56.5681 99.6008 56.4505 99.4931 56.3071C99.3853 56.1636 99.3109 55.9979 99.2753 55.8221C99.227 55.6592 99.1848 55.4963 99.1244 55.3394C98.9495 54.8749 98.7021 54.7844 98.2134 55.0197C98.2792 55.2288 98.2636 55.455 98.1696 55.6531C98.0756 55.8512 97.9102 56.0064 97.7066 56.0876C97.4515 56.1873 97.1775 56.2292 96.9043 56.2103C96.6311 56.1914 96.3656 56.1122 96.1267 55.9783C95.8878 55.8444 95.6815 55.6593 95.5228 55.4361C95.3641 55.213 95.2568 54.9574 95.2087 54.6878C95.1665 54.2113 95.1786 53.7316 95.2449 53.2579C95.2926 52.7917 95.4836 52.3517 95.7915 51.9984C96.0994 51.6452 96.5091 51.3959 96.9644 51.2849C97.2782 51.1824 97.604 51.11 97.8695 51.0436C97.96 50.8626 97.9901 50.6574 98.0987 50.5971C99.046 50.0963 99.4985 49.8127 100.373 50.9108C100.469 51.035 100.579 51.1483 100.699 51.2487C100.85 51.3694 101.019 51.472 101.254 51.6349C101.245 51.4625 101.223 51.2911 101.188 51.122C101.049 50.6393 100.91 50.1567 100.735 49.686C100.598 49.3551 100.536 48.9977 100.553 48.6397C100.571 48.2818 100.668 47.9322 100.838 47.6166C100.937 47.425 101.014 47.2225 101.067 47.0132C101.124 46.8655 101.137 46.7042 101.102 46.5496C101.068 46.395 100.988 46.254 100.874 46.1444C100.699 45.9875 100.778 45.8729 100.91 45.7643C101.026 45.6969 101.136 45.6223 101.242 45.541C101.345 45.4324 101.49 45.2756 101.477 45.1489C101.475 44.9985 101.507 44.8496 101.569 44.7129C101.632 44.5762 101.724 44.4551 101.84 44.3585C102.021 44.1554 102.158 43.9171 102.244 43.6586C102.311 43.3426 102.353 43.0218 102.37 42.6992C102.385 42.4961 102.415 42.2943 102.461 42.0959C102.497 41.9566 102.573 41.8311 102.681 41.7355C102.788 41.6398 102.922 41.5784 103.064 41.5589C103.33 41.5107 103.607 41.4141 103.8 41.7399C103.844 41.7791 103.896 41.8085 103.952 41.8262C104.008 41.8438 104.068 41.8494 104.126 41.8425C104.366 41.7738 104.58 41.6348 104.74 41.4434C104.901 41.2519 105 41.0169 105.025 40.7685L103.957 40.8349L103.812 40.2316C103.209 40.1109 102.805 40.6961 102.208 40.7565C102.515 40.0988 102.811 39.4774 103.088 38.874C103.132 38.7893 103.205 38.7233 103.294 38.6878C103.383 38.6524 103.481 38.65 103.571 38.6809C103.798 38.7232 104.032 38.7232 104.259 38.6809C104.51 38.6282 104.755 38.5493 104.989 38.4456C105.254 38.331 105.333 38.4456 105.369 38.693C105.365 38.8079 105.387 38.9222 105.433 39.0274C105.48 39.1326 105.55 39.2258 105.637 39.3002C105.725 39.3745 105.828 39.428 105.94 39.4566C106.051 39.4852 106.167 39.4882 106.28 39.4653C106.648 39.4653 107.016 39.4653 107.384 39.405C107.752 39.3446 107.897 39.0972 107.686 38.7654C107.602 38.6194 107.476 38.5025 107.324 38.4303C107.172 38.358 107.001 38.3339 106.835 38.3612C106.792 38.3741 106.746 38.3769 106.702 38.3695C106.658 38.3622 106.615 38.3447 106.579 38.3185C106.542 38.2923 106.512 38.258 106.49 38.2184C106.469 38.1787 106.457 38.1347 106.455 38.0897C106.386 37.789 106.238 37.5123 106.026 37.2884C105.813 37.0645 105.545 36.9015 105.248 36.8166C104.875 36.6692 104.489 36.5542 104.096 36.4727C103.852 36.4359 103.621 36.3411 103.421 36.1962C103.222 36.0513 103.06 35.8605 102.95 35.6401C102.895 35.5299 102.811 35.4362 102.708 35.3685C102.473 35.2117 102.304 35.2901 102.244 35.5676C102.222 35.6908 102.17 35.8066 102.092 35.9044C102.014 36.0023 101.913 36.079 101.798 36.1276C101.682 36.1762 101.557 36.1952 101.432 36.1827C101.308 36.1703 101.189 36.1268 101.085 36.0564C100.928 35.9482 100.779 35.8292 100.639 35.7004C100.354 35.5099 100.009 35.4288 99.6687 35.4721C99.3284 35.5153 99.0152 35.6799 98.7866 35.9357C98.5398 36.1865 98.3976 36.5217 98.3887 36.8734C98.3797 37.2251 98.5047 37.5671 98.7383 37.8302C98.8441 37.8988 98.9278 37.9967 98.9791 38.1119C99.0304 38.2271 99.0472 38.3547 99.0274 38.4793C99.0076 38.6039 98.952 38.72 98.8675 38.8136C98.783 38.9073 98.6731 38.9743 98.5512 39.0067C98.4111 39.0742 98.2598 39.1151 98.1048 39.1274C96.9584 39.2541 95.8181 39.3748 94.6717 39.4894C94.1709 39.5377 93.9959 39.3567 94.0684 38.8438C94.0961 38.6344 94.1572 38.4307 94.2494 38.2405C94.5269 37.6733 94.8527 37.1122 95.1122 36.5511C95.2653 36.6746 95.4361 36.7743 95.619 36.8468C95.8228 36.9253 96.0486 36.9253 96.2525 36.8468C96.5658 36.615 96.8513 36.3477 97.1032 36.0503C97.3687 35.7728 97.3325 35.622 97.0067 35.447C96.9282 35.3987 96.8317 35.3263 96.8136 35.2479C96.7171 34.7652 96.6386 34.2825 96.5481 33.7697C97.0127 33.7274 97.5738 33.4258 97.9901 33.9989L98.9676 33.7395L99.0701 33.83L98.6357 34.8436ZM104.609 30.4512C104.634 30.6567 104.68 30.8589 104.748 31.0546C104.896 31.4359 105.1 31.7936 105.351 32.1165C105.716 32.474 106.12 32.7879 106.558 33.0517C106.751 33.2278 106.996 33.3365 107.256 33.3615C107.516 33.3866 107.777 33.3265 108 33.1905C108.494 32.8707 108.446 32.3578 108.422 31.8631C108.422 31.5312 108.374 31.1934 108.386 30.8615C108.385 30.6986 108.433 30.5392 108.525 30.4045C108.616 30.2698 108.747 30.1661 108.899 30.1073C109.278 29.9536 109.635 29.7507 109.961 29.504C110.747 28.8235 111.604 28.2308 112.519 27.7362C112.971 27.5129 112.989 27.338 112.796 26.8673C112.651 26.518 112.53 26.1592 112.434 25.7934C112.368 25.5339 112.507 25.365 112.802 25.371H113.333C113.828 25.371 113.979 25.2805 114.124 24.822C114.168 24.6605 114.249 24.5114 114.36 24.3859C114.47 24.2604 114.609 24.1619 114.763 24.098C114.896 24.0437 115.071 23.9713 115.113 23.8566C115.167 23.6601 115.191 23.4569 115.186 23.2533C115.047 23.2533 114.872 23.1688 114.769 23.2533C114.371 23.4765 114.003 23.748 113.623 23.9954C113.377 24.2013 113.1 24.3664 112.802 24.4841C112.241 24.5704 111.695 24.7349 111.179 24.9728C110.805 25.1599 110.636 25.0151 110.745 24.6048C110.877 24.1695 111.034 23.7424 111.216 23.3257C111.312 23.0843 111.463 22.837 111.216 22.6077C110.968 22.3784 110.781 22.5715 110.57 22.6499C110.359 22.7284 110.262 22.7766 110.111 22.849C109.702 23.0369 109.244 23.0897 108.802 22.9999C108.693 22.9662 108.579 22.9553 108.465 22.9678C108.352 22.9803 108.242 23.0159 108.143 23.0725C108.044 23.129 107.958 23.2053 107.89 23.2966C107.821 23.3879 107.773 23.4923 107.746 23.6032C107.714 23.6726 107.665 23.733 107.604 23.7793C107.543 23.8255 107.472 23.8562 107.396 23.8687C107.155 23.8678 106.917 23.8099 106.703 23.6997C106.609 23.6268 106.5 23.5757 106.384 23.5504C106.267 23.525 106.147 23.5259 106.031 23.5531C105.916 23.5803 105.807 23.6331 105.715 23.7075C105.622 23.782 105.547 23.8762 105.496 23.9833C105.354 24.2981 105.126 24.5659 104.837 24.7551C104.549 24.9443 104.212 25.0471 103.867 25.0513C103.133 25.0634 102.43 25.3521 101.9 25.8597C101.555 26.1784 101.188 26.4727 100.802 26.7406C100.085 27.2122 99.5635 27.9284 99.3356 28.7558C99.1063 29.5402 99.2089 29.6609 100.005 29.4859C100.317 29.4039 100.645 29.3978 100.959 29.4681C101.274 29.5385 101.568 29.6832 101.815 29.8901C101.954 30.0048 102.099 30.1134 102.244 30.2159C102.962 30.6865 103.692 31.1813 104.609 30.4814V30.4512ZM99.2391 27.2293L99.1848 27.1147C98.979 27.1342 98.7764 27.1788 98.5814 27.2474C98.2375 27.4164 97.9177 27.6517 97.5799 27.8508C97.0972 28.1102 96.6145 28.3576 96.1258 28.5929C95.7577 28.7679 95.3535 28.8886 94.9975 29.0877C94.8005 29.1867 94.6416 29.348 94.5456 29.5466C94.4496 29.7451 94.4218 29.9698 94.4666 30.1858C94.4733 30.2338 94.4733 30.2825 94.4666 30.3306C93.9477 30.4633 93.4469 30.5719 92.9642 30.7227C92.8254 30.765 92.7289 30.9279 92.6143 31.0305C92.7289 31.1451 92.8315 31.3382 92.9582 31.3563C93.2727 31.3954 93.5909 31.3954 93.9055 31.3563C94.4304 31.2839 94.7984 31.2899 94.7924 32.0199C94.7924 32.0199 94.7924 32.0622 94.8648 32.1527C95.3595 32.1225 95.8905 32.1225 96.4154 32.0501C96.8196 31.9958 96.9282 31.7967 96.88 31.4166C96.7618 31.4317 96.6422 31.4317 96.524 31.4166C96.374 31.3988 96.2329 31.3357 96.1197 31.2356C96.0715 31.1572 96.1197 30.9339 96.2344 30.8434C96.4954 30.5833 96.7758 30.3433 97.073 30.1254C97.5381 29.8284 97.8676 29.3602 97.9901 28.8222C98.0379 28.5925 98.1328 28.3753 98.2689 28.1842C98.4049 27.9931 98.5791 27.8323 98.7805 27.712C98.9478 27.5654 99.1012 27.4039 99.2391 27.2293ZM120.604 28.7438C120.495 29.1118 120.399 29.4074 120.314 29.7031C120.314 29.7936 120.266 29.9384 120.314 29.9867C120.555 30.2401 120.393 30.4331 120.248 30.6322L119.693 31.3864C119.807 31.4528 119.856 31.5011 119.916 31.5252C120.163 31.6338 120.356 31.8993 120.676 31.7605C120.996 31.6217 120.893 31.3201 120.954 31.0727C120.976 31.0046 121.014 30.9426 121.064 30.8913C121.114 30.8401 121.176 30.801 121.243 30.777C121.334 30.777 121.485 30.8857 121.569 30.9822C121.625 31.0771 121.664 31.1813 121.684 31.2899C121.736 31.4732 121.84 31.6376 121.983 31.7629C122.127 31.8882 122.304 31.9691 122.492 31.9958C122.664 32.0074 122.836 31.9821 122.997 31.9216C123.159 31.8611 123.305 31.7668 123.427 31.6451C123.548 31.5234 123.643 31.377 123.703 31.2159C123.764 31.0547 123.789 30.8824 123.777 30.7107C122.812 30.4653 121.938 29.9456 121.261 29.2144C121.057 29.0373 120.837 28.8798 120.604 28.7438ZM116.235 27.7844C115.989 27.7812 115.743 27.7468 115.505 27.6819C115.37 27.6158 115.216 27.5972 115.068 27.6289C114.92 27.6606 114.788 27.7409 114.691 27.8568C114.593 27.9695 114.471 28.0592 114.335 28.1197C114.198 28.1802 114.05 28.2099 113.9 28.2068C113.668 28.2389 113.447 28.3257 113.255 28.4602C112.977 28.6291 112.971 28.8343 113.255 28.9911C113.538 29.148 114.003 29.323 114.407 29.504C114.453 29.2854 114.567 29.087 114.733 28.9374C114.899 28.7878 115.108 28.6946 115.33 28.6714C115.482 28.634 115.626 28.5729 115.759 28.4904C115.893 28.425 116.008 28.3253 116.092 28.2013C116.176 28.0774 116.225 27.9336 116.235 27.7844ZM87.9142 35.7909C88.0239 35.7925 88.1333 35.7804 88.24 35.7547C88.4934 35.6642 88.8433 35.622 88.958 35.4409C89.0453 35.2493 89.1705 35.0773 89.3261 34.9352C89.4816 34.7932 89.6642 34.684 89.863 34.6144C89.9535 34.5842 90.0018 34.4454 90.0681 34.3549C89.9755 34.2886 89.8739 34.2358 89.7665 34.198C89.5131 34.1558 89.3864 34.3247 89.2717 34.5178C88.9881 34.9824 88.7951 35.0186 88.3184 34.7773C88.2459 34.758 88.1698 34.7562 88.0964 34.7719C88.023 34.7877 87.9544 34.8205 87.8961 34.8678C87.7151 35.0367 87.5642 35.1936 87.2927 35.0789C87.2624 35.0653 87.2295 35.0582 87.1962 35.0582C87.1629 35.0582 87.13 35.0653 87.0997 35.0789C86.7558 35.3323 86.4239 35.5858 86.0921 35.8512C86.0498 35.8935 86.0136 36.0322 86.0438 36.0564C86.075 36.0835 86.1115 36.1039 86.1509 36.1164C86.1904 36.1288 86.2319 36.1331 86.2731 36.1288C86.4782 36.0564 86.6713 35.9417 86.8764 35.8754C87.1036 35.8106 87.3357 35.7642 87.5703 35.7366C87.6867 35.7411 87.8021 35.7593 87.9142 35.7909ZM100.084 53.3303L100.168 53.4872C100.42 53.4333 100.661 53.3375 100.88 53.2036C101.08 53.0042 101.343 52.8811 101.624 52.8557C101.905 52.8304 102.187 52.9044 102.419 53.0648C102.627 53.1976 102.862 53.2826 103.107 53.3139C103.353 53.3452 103.602 53.3219 103.837 53.2458C103.957 53.2458 104.15 53.0588 104.138 52.9803C104.09 52.8329 103.992 52.7069 103.861 52.6244C103.788 52.5701 103.65 52.6244 103.541 52.6244C103.233 52.6244 102.938 52.5761 102.63 52.5399C102.502 52.5038 102.37 52.4875 102.238 52.4916C101.634 52.6364 101.031 52.7993 100.488 52.9924C100.331 53.0286 100.247 53.2096 100.084 53.3303ZM106.606 52.6183H105.882C105.784 52.6062 105.684 52.6062 105.586 52.6183C105.295 52.679 105.011 52.7742 104.742 52.9019C104.67 52.9459 104.612 53.0082 104.573 53.0821C104.534 53.1561 104.515 53.2392 104.519 53.3228C104.523 53.4064 104.549 53.4875 104.594 53.5577C104.64 53.628 104.703 53.6848 104.778 53.7225C105.011 53.7778 105.254 53.767 105.481 53.6913C105.708 53.6157 105.91 53.4781 106.063 53.2941C106.214 53.0708 106.407 52.8657 106.606 52.6183ZM91.9144 32.744C91.9566 32.5992 91.8842 32.4785 91.655 32.4544C91.5279 32.4134 91.3961 32.389 91.2628 32.382C91.0683 32.409 90.8778 32.4596 90.6956 32.5328C90.6956 32.5328 90.6956 32.75 90.7258 32.75C90.9253 32.7812 91.1273 32.7933 91.3291 32.7862C91.4981 32.7862 91.6791 32.7621 91.9144 32.744ZM89.133 33.7274L89.0183 33.655L88.415 34.3911L88.4632 34.5058C88.596 34.5058 88.7528 34.5058 88.8433 34.4273C88.9572 34.3541 89.046 34.2478 89.0978 34.1227C89.1496 33.9976 89.1618 33.8597 89.133 33.7274Z" fill="#FD6868"/>
<path d="M169.686 81.5487C169.836 81.6061 169.96 81.7153 170.036 81.8564C170.297 82.2981 170.373 82.8252 170.247 83.3226C170.119 83.8171 169.843 84.2609 169.457 84.5956C169.319 84.7648 169.12 84.8736 168.903 84.8994C168.686 84.9252 168.467 84.8658 168.293 84.7338C168.119 84.6018 168.003 84.4074 167.969 84.1915C167.935 83.9756 167.986 83.755 168.111 83.576C168.286 83.2019 168.467 82.8761 168.612 82.4779C168.757 82.0797 169.149 81.3919 169.686 81.5487Z" fill="url(#paint24_linear)"/>
</g>
<defs>
<linearGradient id="paint0_linear" x1="170.585" y1="90.3276" x2="163.429" y2="91.0697" gradientUnits="userSpaceOnUse">
<stop stop-color="#E5C5D5"/>
<stop offset="0.42" stop-color="#EAD4D1"/>
<stop offset="1" stop-color="#F0E9CB"/>
</linearGradient>
<linearGradient id="paint1_linear" x1="2332.74" y1="909.288" x2="2627.86" y2="1083.49" gradientUnits="userSpaceOnUse">
<stop stop-color="#E5C5D5"/>
<stop offset="0.42" stop-color="#EAD4D1"/>
<stop offset="1" stop-color="#F0E9CB"/>
</linearGradient>
<linearGradient id="paint2_linear" x1="52.8897" y1="79.5516" x2="61.1375" y2="79.5516" gradientUnits="userSpaceOnUse">
<stop stop-opacity="0"/>
<stop offset="0.99"/>
</linearGradient>
<linearGradient id="paint3_linear" x1="4080.53" y1="3454.63" x2="4794.52" y2="3454.63" gradientUnits="userSpaceOnUse">
<stop stop-color="#E5C5D5"/>
<stop offset="0.42" stop-color="#EAD4D1"/>
<stop offset="1" stop-color="#F0E9CB"/>
</linearGradient>
<linearGradient id="paint4_linear" x1="31629.9" y1="927.574" x2="31629.9" y2="1198.79" gradientUnits="userSpaceOnUse">
<stop stop-opacity="0"/>
<stop offset="0.99"/>
</linearGradient>
<linearGradient id="paint5_linear" x1="2052.95" y1="4453.52" x2="1925" y2="4453.17" gradientUnits="userSpaceOnUse">
<stop stop-opacity="0"/>
<stop offset="0.99"/>
</linearGradient>
<linearGradient id="paint6_linear" x1="4322.27" y1="4180.83" x2="4988.42" y2="4559.77" gradientUnits="userSpaceOnUse">
<stop stop-opacity="0"/>
<stop offset="0.99"/>
</linearGradient>
<linearGradient id="paint7_linear" x1="3614.95" y1="3771.12" x2="3928.76" y2="2812.97" gradientUnits="userSpaceOnUse">
<stop stop-opacity="0"/>
<stop offset="0.99"/>
</linearGradient>
<linearGradient id="paint8_linear" x1="3674.05" y1="3295.16" x2="3404.23" y2="4167.54" gradientUnits="userSpaceOnUse">
<stop stop-opacity="0"/>
<stop offset="0.99"/>
</linearGradient>
<linearGradient id="paint9_linear" x1="2405.98" y1="2846.48" x2="2525.36" y2="3230.37" gradientUnits="userSpaceOnUse">
<stop stop-color="#E5C5D5"/>
<stop offset="0.42" stop-color="#EAD4D1"/>
<stop offset="1" stop-color="#F0E9CB"/>
</linearGradient>
<linearGradient id="paint10_linear" x1="1088.43" y1="1103.18" x2="1339.58" y2="948.409" gradientUnits="userSpaceOnUse">
<stop stop-color="#E5C5D5"/>
<stop offset="0.42" stop-color="#EAD4D1"/>
<stop offset="1" stop-color="#F0E9CB"/>
</linearGradient>
<linearGradient id="paint11_linear" x1="3052.42" y1="2507.53" x2="3336.97" y2="3079.91" gradientUnits="userSpaceOnUse">
<stop stop-color="#E5C5D5"/>
<stop offset="0.42" stop-color="#EAD4D1"/>
<stop offset="1" stop-color="#F0E9CB"/>
</linearGradient>
<linearGradient id="paint12_linear" x1="3205.07" y1="2012.5" x2="3848.58" y2="2012.5" gradientUnits="userSpaceOnUse">
<stop stop-opacity="0"/>
<stop offset="0.99"/>
</linearGradient>
<linearGradient id="paint13_linear" x1="3552.42" y1="3001.39" x2="4524.39" y2="3001.39" gradientUnits="userSpaceOnUse">
<stop stop-color="#E5C5D5"/>
<stop offset="0.42" stop-color="#EAD4D1"/>
<stop offset="1" stop-color="#F0E9CB"/>
</linearGradient>
<linearGradient id="paint14_linear" x1="5924.79" y1="3019.54" x2="6683.28" y2="3084.81" gradientUnits="userSpaceOnUse">
<stop stop-color="#E5C5D5"/>
<stop offset="0.42" stop-color="#EAD4D1"/>
<stop offset="1" stop-color="#F0E9CB"/>
</linearGradient>
<linearGradient id="paint15_linear" x1="7053" y1="2187.13" x2="7862.75" y2="2187.13" gradientUnits="userSpaceOnUse">
<stop stop-opacity="0"/>
<stop offset="0.99"/>
</linearGradient>
<linearGradient id="paint16_linear" x1="4279.59" y1="4379.4" x2="4062.55" y2="4350.57" gradientUnits="userSpaceOnUse">
<stop stop-opacity="0"/>
<stop offset="0.99"/>
</linearGradient>
<linearGradient id="paint17_linear" x1="8440.68" y1="3421.09" x2="9092.7" y2="6031.64" gradientUnits="userSpaceOnUse">
<stop stop-opacity="0"/>
<stop offset="0.99"/>
</linearGradient>
<linearGradient id="paint18_linear" x1="3876.25" y1="1059.86" x2="4101.35" y2="1059.86" gradientUnits="userSpaceOnUse">
<stop stop-color="#E5C5D5"/>
<stop offset="0.42" stop-color="#EAD4D1"/>
<stop offset="1" stop-color="#F0E9CB"/>
</linearGradient>
<linearGradient id="paint19_linear" x1="3214.77" y1="1050.74" x2="3382.01" y2="1050.74" gradientUnits="userSpaceOnUse">
<stop stop-color="#E5C5D5"/>
<stop offset="0.42" stop-color="#EAD4D1"/>
<stop offset="1" stop-color="#F0E9CB"/>
</linearGradient>
<linearGradient id="paint20_linear" x1="39941.2" y1="7175.27" x2="39941.2" y2="3898.46" gradientUnits="userSpaceOnUse">
<stop stop-opacity="0"/>
<stop offset="0.99"/>
</linearGradient>
<linearGradient id="paint21_linear" x1="1835.46" y1="4181.19" x2="1913.68" y2="4190.15" gradientUnits="userSpaceOnUse">
<stop stop-opacity="0"/>
<stop offset="0.99"/>
</linearGradient>
<linearGradient id="paint22_linear" x1="321.249" y1="484.2" x2="325.387" y2="484.2" gradientUnits="userSpaceOnUse">
<stop stop-color="#E5C5D5"/>
<stop offset="0.42" stop-color="#EAD4D1"/>
<stop offset="1" stop-color="#F0E9CB"/>
</linearGradient>
<linearGradient id="paint23_linear" x1="901.846" y1="1601.23" x2="735.958" y2="1635.93" gradientUnits="userSpaceOnUse">
<stop stop-opacity="0"/>
<stop offset="0.99"/>
</linearGradient>
<linearGradient id="paint24_linear" x1="951.197" y1="537.747" x2="1007.29" y2="555.025" gradientUnits="userSpaceOnUse">
<stop stop-color="#E5C5D5"/>
<stop offset="0.42" stop-color="#EAD4D1"/>
<stop offset="1" stop-color="#F0E9CB"/>
</linearGradient>
<clipPath id="clip0">
<rect width="228" height="228" fill="white"/>
</clipPath>
</defs>
</svg>
