<svg width="228" height="228" viewBox="0 0 228 228" fill="none" xmlns="http://www.w3.org/2000/svg">
<g clip-path="url(#clip0)">
<path opacity="0.18" d="M223.528 153.43C221.871 161.079 218.997 168.712 216.479 175.52C206.912 201.225 190.769 218.805 165.492 215.211C153.31 213.476 141.387 208.685 129.121 209.147C117.386 209.572 106.214 214.749 95.0675 219.062C74.3543 227.09 51.421 232.23 30.9344 223.391C10.4478 214.552 -5.48194 187.361 1.8065 163.254C7.47672 144.44 25.2059 131.818 27.0506 111.987C29.478 86.2134 3.43119 63.9796 8.92664 38.8274C11.2633 28.2374 18.7848 20.3536 26.7529 14.6682C45.0581 1.56142 67.5643 -2.76707 88.5946 1.69029C108.596 5.89749 125.237 25.6221 145.394 26.5317C158.391 27.1079 170.897 18.4585 183.843 19.8836C199.857 21.6953 211.598 38.3043 219.087 54.9891C221.498 60.1977 223.515 65.6437 225.114 71.2645C228.225 82.7191 228.857 94.8998 226.952 106.711C225.01 118.84 225.243 130.211 224.945 142.65C224.815 146.294 224.339 149.909 223.528 153.43Z" fill="#FD6868"/>
<path d="M84.8074 202.545C84.0177 202.833 83.131 203.303 82.9303 204.22C85.4159 206.07 88.4905 206.494 91.4292 206.403C94.3678 206.312 97.3 205.706 100.245 205.683C104.129 205.683 108.505 206.494 111.624 203.735C110.239 202.707 108.648 202.122 107.009 202.037C107.585 197.792 87.1118 201.703 84.8074 202.545Z" fill="url(#paint0_linear)"/>
<path d="M34.9081 151.975C33.8595 151.975 32.4096 152.596 32.6685 153.786L80.5224 158.335C86.1538 158.873 91.7916 159.404 97.4489 159.404C105.993 159.404 114.498 158.176 123.023 157.599C131.05 157.061 139.089 157.099 147.122 157.145C154.559 157.19 163.705 158.759 170.929 156.477C172.016 156.136 173.11 155.113 173.039 153.802C173.007 153.195 172.735 152.566 172.935 152.005C173.052 151.73 173.237 151.502 173.466 151.353C174.948 150.284 176.839 151.118 178.547 151.558C181.267 152.25 184.108 151.827 186.593 150.36C187.059 150.133 187.456 149.747 187.732 149.253C187.864 149.004 187.912 148.705 187.866 148.417C187.821 148.128 187.686 147.87 187.486 147.692C187.285 147.575 187.064 147.515 186.839 147.517L172.191 146.183C171.65 146.085 171.097 146.142 170.579 146.35C170.003 146.646 170.036 147.434 169.57 147.76C168.812 148.283 167.09 148.002 166.223 148.063C164.003 148.207 161.783 148.351 159.556 148.48C155.124 148.728 150.684 148.937 146.235 149.109C137.173 149.465 128.066 149.678 118.984 149.867C101.022 150.208 83.0533 150.39 65.0976 151.201C55.0323 151.641 44.9734 151.717 34.9081 151.975Z" fill="url(#paint1_linear)"/>
<path d="M71.7063 35.1814C70.8639 34.8387 69.9439 34.8657 69.1172 35.2572C68.5839 35.48 68.0964 35.8312 67.6861 36.2882C67.2758 36.7452 66.9519 37.2978 66.7352 37.9104C66.7309 37.99 66.7122 38.0677 66.6802 38.1382C66.6483 38.2086 66.6039 38.2703 66.55 38.3191C66.4961 38.3679 66.4339 38.4027 66.3676 38.4211C66.3013 38.4395 66.2324 38.4411 66.1655 38.4259C65.2236 38.4233 64.3145 38.8313 63.6152 39.5705C62.7997 40.4423 62.7997 41.5111 62.6896 42.7619C62.5561 42.6833 62.4087 42.6423 62.2592 42.6423C62.1097 42.6423 61.9623 42.6833 61.8287 42.7619C61.5621 42.9159 61.3193 43.1209 61.1102 43.3684C60.7531 43.7042 60.4673 44.1323 60.2752 44.6192C60.0163 45.4455 60.3076 46.3551 60.3205 47.2345C60.3251 47.2739 60.3222 47.314 60.3122 47.3519C60.3021 47.3899 60.2851 47.4248 60.2623 47.4543C60.2357 47.4676 60.2071 47.4745 60.1781 47.4745C60.1492 47.4745 60.1206 47.4676 60.094 47.4543C59.8933 47.4088 59.7121 47.2875 59.5114 47.2648C59.2767 47.2674 59.0501 47.3657 58.8705 47.5427C58.691 47.7198 58.5697 47.9646 58.5276 48.2351C58.4512 48.7781 58.4755 49.3339 58.5988 49.8649C58.719 50.3963 58.7056 50.957 58.5599 51.4796C58.4048 51.8228 58.2013 52.1329 57.958 52.3968C57.2559 53.163 56.7991 54.1876 56.6634 55.3002C56.6253 55.8378 56.7489 56.3741 57.0129 56.8163C57.1485 57.0346 57.3301 57.208 57.54 57.3196C57.7498 57.4312 57.9808 57.4772 58.2104 57.453C59.2849 57.2863 59.6603 55.52 60.683 55.1031C61.7057 54.6861 62.8514 53.2762 63.5117 52.1618C64.0424 51.2673 64.5603 50.2288 65.4535 49.8877C65.7475 49.8145 66.0309 49.6919 66.295 49.5238C66.4706 49.3632 66.6161 49.1619 66.7222 48.9325C67.0921 48.2938 67.378 47.5936 67.5701 46.8554C67.8938 45.4 67.5702 43.7626 68.1721 42.4208C68.344 42.0359 68.5833 41.6979 68.8745 41.4288C69.1656 41.1597 69.502 40.9656 69.8615 40.8592C70.1658 40.7683 70.5088 40.7455 70.7872 40.647C71.1392 40.528 71.4717 40.341 71.771 40.0936C72.1647 39.8284 72.5035 39.4647 72.7631 39.0283C73.0227 38.5919 73.1968 38.0936 73.2727 37.5693C73.331 36.5004 72.5089 35.5453 71.7063 35.1814Z" fill="#FF681C"/>
<path d="M74.3537 36.978C74.6772 37.1242 74.9454 37.4007 75.1103 37.7578C75.2753 38.1149 75.326 38.5292 75.2535 38.9262C75.1427 39.2472 74.9776 39.5386 74.768 39.7828L73.5964 41.2989L73.1109 39.1915C73.0607 38.7961 72.8935 38.4338 72.6384 38.1681C72.4719 38.0564 72.2834 37.9976 72.0915 37.9976C71.8996 37.9976 71.711 38.0564 71.5445 38.1681C71.2014 38.3728 70.8972 38.6912 70.593 38.9262C70.5088 38.9868 70.3923 39.055 70.3017 38.9944C70.2111 38.9337 70.1982 38.7139 70.2435 38.5623C70.8001 36.7581 72.9297 36.2578 74.3537 36.978Z" fill="#FF681C"/>
<path d="M75.1499 94.0062C75.1854 94.7158 75.387 95.4003 75.7325 95.9847C76.2568 96.7428 77.1306 97.1218 77.8556 97.6752C77.9302 97.7195 77.9956 97.7826 78.0471 97.8599C78.0985 97.9372 78.1348 98.0268 78.1533 98.1224C78.149 98.2148 78.1216 98.3036 78.0744 98.3778C78.0271 98.452 77.9623 98.5082 77.8879 98.5394C77.7344 98.5902 77.5735 98.6031 77.4154 98.5773C76.676 98.4414 75.9303 98.3578 75.1823 98.3271C74.8069 98.3271 74.3732 98.3726 74.1337 98.0315C73.9795 97.7424 73.9262 97.395 73.9848 97.0612C74.0511 95.8073 73.9639 94.5489 73.7259 93.3239C73.6465 93.0251 73.6179 92.7109 73.6417 92.3991C73.6659 92.2549 73.7219 92.1207 73.8042 92.0098C73.8864 91.8988 73.9921 91.815 74.1106 91.7667C74.229 91.7184 74.3563 91.7073 74.4796 91.7345C74.6029 91.7616 74.7179 91.8261 74.8133 91.9215C75.2405 92.3536 75.0981 93.4225 75.1499 94.0062Z" fill="#FCBDBA"/>
<path d="M63.1751 98.6986C63.0873 99.4015 63.1633 100.119 63.3952 100.776C63.7771 101.678 64.5732 102.216 65.1882 102.929C65.2548 102.988 65.3088 103.065 65.3458 103.153C65.3829 103.241 65.402 103.338 65.4018 103.436C65.3827 103.526 65.3409 103.606 65.282 103.667C65.223 103.728 65.1497 103.766 65.0717 103.778C64.9139 103.797 64.7545 103.773 64.6056 103.709C63.9022 103.409 63.1847 103.156 62.4566 102.951C62.0877 102.875 61.654 102.8 61.4792 102.421C61.3731 102.104 61.3731 101.752 61.4792 101.435C61.7602 100.22 61.891 98.9641 61.8676 97.7055C61.8413 97.3943 61.8677 97.08 61.9453 96.7807C61.9939 96.6453 62.072 96.5272 62.1717 96.438C62.2715 96.3489 62.3894 96.292 62.5138 96.2728C62.6381 96.2537 62.7646 96.273 62.8807 96.3288C62.9967 96.3847 63.0982 96.4751 63.1751 96.5912C63.5441 97.0991 63.2204 98.1149 63.1751 98.6986Z" fill="#FCBDBA"/>
<path d="M60.819 64.5861C60.819 64.5861 66.9941 75.3202 71.0396 78.5268C70.9619 79.6001 70.9814 80.68 71.0979 81.7485C71.305 83.4844 72.0235 85.0081 72.2565 86.7138L73.0332 92.4522C73.0656 92.71 73.1303 93.0208 73.3439 93.1117C73.4723 93.1599 73.6104 93.1599 73.7388 93.1117L75.4476 92.5659C75.3451 89.1179 75.4078 85.6659 75.6353 82.2261C75.7755 80.835 75.8058 79.4317 75.726 78.034C75.4412 75.0018 73.3181 72.2956 71.8422 69.8622C70.9555 68.3916 70.004 66.1932 68.7612 65.0789C67.7255 64.1541 66.2626 64.5937 64.9616 64.7453C63.9859 64.8544 63.0015 64.7724 62.0488 64.5028C61.854 64.3959 61.6396 64.3476 61.4249 64.3622C61.2102 64.3767 61.0019 64.4537 60.819 64.5861Z" fill="#473F47"/>
<path d="M58.4694 64.518C58.4694 64.518 60.8708 77.1548 63.6476 81.8698C63.2441 82.8405 62.9253 83.8564 62.6961 84.9021C62.5429 85.758 62.4541 86.6281 62.4307 87.5022L61.8741 98.0543C62.7346 98.1071 63.5961 97.9788 64.4179 97.6753L67.5767 88.374C68.1798 86.8923 68.5357 85.2894 68.6253 83.6513C68.6253 80.4826 66.0361 68.9147 65.7319 68.331C65.0523 67.0196 63.557 66.8149 62.3013 66.3904C61.3584 66.0782 60.4676 65.581 59.6668 64.9198C59.272 64.6317 58.916 64.3512 58.4694 64.518Z" fill="#473F47"/>
<path d="M80.6389 54.6786C81.9548 55.3897 83.4152 55.6524 84.8527 55.4366C85.2743 55.3006 85.7162 55.2747 86.1473 55.3608C85.9596 55.6716 85.7783 56.1189 86.0437 56.3842C86.125 56.4464 86.2187 56.483 86.3156 56.4903C86.6647 56.543 87.0194 56.4988 87.3512 56.3614C87.5079 56.2704 87.6813 56.2262 87.8561 56.2326C88.0103 56.2774 88.1431 56.3918 88.2256 56.5509C88.308 56.7099 88.3334 56.9007 88.2963 57.0816C88.2046 57.4425 88.0016 57.7505 87.7267 57.9458C87.2821 58.2906 86.7672 58.4906 86.2348 58.5252C85.7024 58.5598 85.1718 58.4279 84.6974 58.1429C84.4255 57.9685 84.1731 57.7487 83.8947 57.5743C83.3593 57.2886 82.7931 57.0896 82.2118 56.983C80.5101 56.5705 78.8375 56.0079 77.2083 55.3002C76.9614 55.2314 76.7292 55.1045 76.5255 54.9273C76.3219 54.75 76.1512 54.5261 76.0237 54.2692C75.6936 53.3141 76.3021 51.7146 77.273 52.3362C78.3993 53.1018 79.4155 54.0873 80.6389 54.6786Z" fill="#FCBDBA"/>
<path d="M72.5996 49.2355C74.5218 50.7072 76.6659 51.7363 78.9171 52.2677C79.0142 52.2677 79.1307 52.3435 79.1566 52.4572C79.167 52.5347 79.1507 52.6137 79.1113 52.6771C78.6516 53.7608 78.0704 54.7678 77.3831 55.6714C77.3093 55.7861 77.2141 55.8794 77.1047 55.9443C76.9972 55.9812 76.8844 55.9921 76.7731 55.9765C76.6619 55.9609 76.5545 55.919 76.4574 55.8533C75.0032 55.1711 73.5792 54.413 72.1853 53.5792C70.9449 52.942 69.8398 51.9921 68.9489 50.7971C68.5046 50.177 68.2415 49.4066 68.1981 48.5988C68.1981 47.7043 68.8971 46.0972 69.8616 46.5368C70.2953 46.7339 70.6772 47.3631 71.0073 47.7194C71.511 48.2625 72.0428 48.7688 72.5996 49.2355V49.2355Z" fill="#FD6868"/>
<path d="M72.5996 49.2355C74.5218 50.7072 76.6659 51.7363 78.9171 52.2677C79.0142 52.2677 79.1307 52.3435 79.1566 52.4572C79.167 52.5347 79.1507 52.6137 79.1113 52.6771C78.6516 53.7608 78.0704 54.7678 77.3831 55.6714C77.3093 55.7861 77.2141 55.8794 77.1047 55.9443C76.9972 55.9812 76.8844 55.9921 76.7731 55.9765C76.6619 55.9609 76.5545 55.919 76.4574 55.8533C75.0032 55.1711 73.5792 54.413 72.1853 53.5792C70.9449 52.942 69.8398 51.9921 68.9489 50.7971C68.5046 50.177 68.2415 49.4066 68.1981 48.5988C68.1981 47.7043 68.8971 46.0972 69.8616 46.5368C70.2953 46.7339 70.6772 47.3631 71.0073 47.7194C71.511 48.2625 72.0428 48.7688 72.5996 49.2355V49.2355Z" fill="url(#paint2_linear)"/>
<path d="M99.695 44.7177C100.041 45.2285 100.247 45.8493 100.287 46.4994C100.327 47.1495 100.199 47.7987 99.92 48.3624C99.6406 48.9261 99.2227 49.3782 98.7207 49.6597C98.2187 49.9412 97.656 50.0391 97.1058 49.9407C97.1058 49.9407 94.0442 50.0241 94.7368 53.405L100.562 62.0923L93.1445 68.9148C90.2576 69.7259 90.1864 66.1403 90.1864 66.1403C90.2656 65.4967 90.1782 64.84 89.9355 64.2551C89.6928 63.6703 89.306 63.184 88.8249 62.8592C88.3439 62.5344 87.7908 62.3859 87.237 62.433C86.6831 62.48 86.1541 62.7204 85.7181 63.1232C85.2822 63.5259 84.9593 64.0724 84.7913 64.6922C84.6232 65.312 84.6177 65.9766 84.7754 66.6001C84.9331 67.2236 85.2468 67.7774 85.6759 68.19C86.1051 68.6027 86.63 68.8551 87.183 68.9148C89.8174 69.9306 88.7947 72.9325 88.7947 72.9325L81.3768 79.755L66.3015 57.3393L73.6482 50.5168C76.5351 49.7057 76.6063 53.2913 76.6063 53.2913C76.5376 53.8229 76.5827 54.3662 76.7377 54.8722C76.8927 55.3783 77.1526 55.8314 77.4941 56.1907C77.8357 56.55 78.2481 56.8042 78.6943 56.9306C79.1405 57.057 79.6065 57.0515 80.0505 56.9147C80.4945 56.7778 80.9025 56.5139 81.2378 56.1467C81.5731 55.7795 81.8252 55.3204 81.9715 54.8108C82.1177 54.3012 82.1536 53.757 82.0758 53.2271C81.998 52.6972 81.8089 52.1983 81.5257 51.7752C81.2895 51.4276 80.9958 51.1396 80.662 50.9285C80.3283 50.7175 79.9615 50.5877 79.5838 50.5472C76.9752 49.5389 77.998 46.5067 77.998 46.5067L85.4871 39.5857L91.3126 48.2806C91.3126 48.2806 93.9018 49.4783 94.7433 46.393C94.7988 45.7469 95.0182 45.1351 95.3733 44.6364C95.7283 44.1377 96.2028 43.7748 96.7354 43.5946C97.2681 43.4144 97.8347 43.425 98.3621 43.6252C98.8896 43.8254 99.3538 44.2059 99.695 44.7177V44.7177Z" fill="#FD6868"/>
<path d="M99.695 44.7177C100.041 45.2285 100.247 45.8493 100.287 46.4994C100.327 47.1495 100.199 47.7987 99.92 48.3624C99.6406 48.9261 99.2227 49.3782 98.7207 49.6597C98.2187 49.9412 97.656 50.0391 97.1058 49.9407C97.1058 49.9407 94.0442 50.0241 94.7368 53.405L100.562 62.0923L93.1445 68.9148C90.2576 69.7259 90.1864 66.1403 90.1864 66.1403C90.2656 65.4967 90.1782 64.84 89.9355 64.2551C89.6928 63.6703 89.306 63.184 88.8249 62.8592C88.3439 62.5344 87.7908 62.3859 87.237 62.433C86.6831 62.48 86.1541 62.7204 85.7181 63.1232C85.2822 63.5259 84.9593 64.0724 84.7913 64.6922C84.6232 65.312 84.6177 65.9766 84.7754 66.6001C84.9331 67.2236 85.2468 67.7774 85.6759 68.19C86.1051 68.6027 86.63 68.8551 87.183 68.9148C89.8174 69.9306 88.7947 72.9325 88.7947 72.9325L81.3768 79.755L66.3015 57.3393L73.6482 50.5168C76.5351 49.7057 76.6063 53.2913 76.6063 53.2913C76.5376 53.8229 76.5827 54.3662 76.7377 54.8722C76.8927 55.3783 77.1526 55.8314 77.4941 56.1907C77.8357 56.55 78.2481 56.8042 78.6943 56.9306C79.1405 57.057 79.6065 57.0515 80.0505 56.9147C80.4945 56.7778 80.9025 56.5139 81.2378 56.1467C81.5731 55.7795 81.8252 55.3204 81.9715 54.8108C82.1177 54.3012 82.1536 53.757 82.0758 53.2271C81.998 52.6972 81.8089 52.1983 81.5257 51.7752C81.2895 51.4276 80.9958 51.1396 80.662 50.9285C80.3283 50.7175 79.9615 50.5877 79.5838 50.5472C76.9752 49.5389 77.998 46.5067 77.998 46.5067L85.4871 39.5857L91.3126 48.2806C91.3126 48.2806 93.9018 49.4783 94.7433 46.393C94.7988 45.7469 95.0182 45.1351 95.3733 44.6364C95.7283 44.1377 96.2028 43.7748 96.7354 43.5946C97.2681 43.4144 97.8347 43.425 98.3621 43.6252C98.8896 43.8254 99.3538 44.2059 99.695 44.7177V44.7177Z" fill="url(#paint3_linear)"/>
<path d="M75.1823 64.4876C76.7681 66.0037 78.4187 67.6336 80.3606 68.0277C80.7342 68.1257 81.1208 68.1353 81.4976 68.0559C81.8744 67.9765 82.2339 67.8097 82.5549 67.5653C82.6657 67.4882 82.7558 67.3763 82.8153 67.2424C82.8748 67.1085 82.9011 66.9578 82.8915 66.8073C82.8203 66.4358 82.4319 66.307 82.1147 66.2387C80.6313 66.0012 79.2068 65.4021 77.9333 64.4801C77.4609 64.0886 77.0131 63.6579 76.5934 63.1914L73.4411 59.9014C73.4026 59.8466 73.3542 59.8025 73.2993 59.7723C73.2444 59.7421 73.1845 59.7267 73.1239 59.7271C72.9945 59.7271 72.9168 59.9014 72.8585 60.0379C72.6631 60.5035 72.5153 60.9946 72.4184 61.5009C72.3213 62.0543 72.4184 62.1301 72.8262 62.4485C73.6417 63.0953 74.4271 63.7751 75.1823 64.4876Z" fill="url(#paint4_linear)"/>
<path d="M76.6451 61.7133C77.742 62.8372 79.0888 63.5732 80.5288 63.8358C80.9573 63.8426 81.3792 63.959 81.7652 64.1769C81.4998 64.4119 81.215 64.8137 81.4156 65.1245C81.48 65.211 81.5626 65.2763 81.6551 65.314C81.9777 65.4752 82.3276 65.5479 82.6778 65.5263C82.8512 65.4953 83.0282 65.5109 83.1957 65.5718C83.2633 65.618 83.3225 65.6794 83.3699 65.7524C83.4172 65.8255 83.4518 65.9087 83.4716 65.9974C83.4915 66.0862 83.4962 66.1786 83.4855 66.2694C83.4748 66.3603 83.4489 66.4478 83.4093 66.5269C83.2402 66.848 82.9708 67.0792 82.6584 67.1712C82.15 67.359 81.608 67.3835 81.0888 67.2421C80.5696 67.1008 80.0923 66.7988 79.7068 66.3677C79.4802 66.11 79.2925 65.8143 79.0595 65.5642C78.6142 65.1142 78.1175 64.7391 77.5837 64.4498C76.0486 63.4946 74.5772 62.4049 73.1821 61.1902C72.9619 61.0439 72.7693 60.8469 72.6158 60.6111C72.4623 60.3753 72.3511 60.1056 72.2889 59.8181C72.1983 58.7872 73.1627 57.4454 73.9524 58.3702C74.8716 59.4618 75.6159 60.7126 76.6451 61.7133Z" fill="#FCBDBA"/>
<path d="M58.4693 66.1403C58.5853 66.303 58.7314 66.4327 58.8965 66.5194C59.5478 66.9545 60.2249 67.3345 60.9225 67.6564C62.7353 68.4164 64.7196 68.3976 66.5216 67.6034C67.2426 67.2994 67.9194 66.8673 68.5282 66.3223C68.7591 66.138 68.9534 65.8975 69.0978 65.6173C69.2695 65.1602 69.3235 64.6543 69.2531 64.1618C69.0913 61.6072 68.8518 58.9691 69.2531 56.4903C69.3821 55.6387 69.5995 54.8088 69.9004 54.019C70.4245 52.9413 70.8581 51.8064 71.195 50.6305C71.3104 49.9079 71.2897 49.1644 71.1343 48.4522C70.9789 47.7399 70.6925 47.0759 70.2952 46.5067C69.4538 45.2483 67.9132 44.134 66.5539 44.7025C64.9838 45.3954 63.622 46.6133 62.6378 48.2048C61.5647 49.987 60.7146 51.9398 60.1134 54.0039C59.8545 54.815 59.6021 55.6261 59.4014 56.46C58.9729 58.4771 58.6956 60.5342 58.5729 62.6078C58.5017 63.472 58.4369 64.3362 58.3593 65.2003C58.2982 65.519 58.3372 65.8527 58.4693 66.1403V66.1403Z" fill="#FD6868"/>
<path d="M66.5215 67.6032C67.2426 67.2993 67.9193 66.8672 68.5281 66.3221C68.7591 66.1379 68.9534 65.8974 69.0977 65.6171C69.2695 65.1601 69.3235 64.6542 69.2531 64.1617C69.0913 61.607 68.8518 58.969 69.2531 56.4902C68.9942 56.187 68.7029 55.9141 68.4181 55.6412C67.7708 55.0196 66.8387 53.7915 65.9001 53.8749C66.1267 55.0347 66.3079 56.2173 66.4439 57.3998C66.5798 58.5824 66.528 59.8104 66.6898 60.9779C66.9045 63.0435 66.8631 65.1346 66.5669 67.1863C66.5393 67.323 66.5241 67.4628 66.5215 67.6032V67.6032Z" fill="url(#paint5_linear)"/>
<path d="M74.3991 57.7335C74.4497 57.7637 74.4946 57.8054 74.5313 57.8562C74.568 57.9069 74.5956 57.9657 74.6127 58.0292C74.6146 58.1552 74.5752 58.2772 74.5026 58.3703C73.9144 59.3424 73.1769 60.1778 72.3278 60.834C72.2458 60.9102 72.147 60.9576 72.043 60.9704C71.9236 60.9554 71.8119 60.894 71.7258 60.7961C70.4312 59.6362 69.1366 58.5219 67.8744 57.309C67.0582 56.6307 66.3375 55.8071 65.7384 54.8681C65.2982 54.0205 64.9626 53.1043 64.7416 52.1467C63.9713 49.304 66.3015 48.0683 67.8615 50.153C69.9199 52.9123 71.797 55.6034 74.3991 57.7335Z" fill="#FD6868"/>
<path d="M74.0819 98.1377C74.0481 98.0436 74.0363 97.9406 74.0477 97.8394C74.059 97.7382 74.0932 97.6423 74.1466 97.5616C74.289 97.4024 74.522 97.4782 74.7033 97.5616C75.1035 97.7889 75.5219 97.9692 75.9525 98.0998C76.3862 98.2334 76.8466 98.1768 77.2471 97.9406C77.4672 97.789 77.6808 97.5616 77.9332 97.5843C78.0603 97.6066 78.1818 97.6609 78.2892 97.7435C78.6779 97.9795 79.0946 98.1456 79.5255 98.2363C79.7068 98.2543 79.8819 98.3218 80.0369 98.4334C80.0837 98.472 80.118 98.5281 80.134 98.5925C80.134 98.7442 80.011 98.8579 79.888 98.9109C78.5417 99.525 77.0335 99.2975 75.5965 99.1156C75.4355 99.089 75.2721 99.089 75.111 99.1156C74.8716 99.1687 74.5803 99.3127 74.3796 99.1156C74.2078 98.8265 74.105 98.4889 74.0819 98.1377Z" fill="#473F47"/>
<path d="M61.298 102.459C61.2769 102.361 61.2771 102.258 61.2986 102.16C61.3201 102.062 61.3622 101.972 61.421 101.898C61.5828 101.761 61.8029 101.898 61.9777 101.981C62.3537 102.261 62.7501 102.502 63.1622 102.701C63.5798 102.883 64.0392 102.883 64.4568 102.701C64.6898 102.588 64.9228 102.391 65.1752 102.451C65.2977 102.493 65.412 102.563 65.5118 102.656C65.8683 102.962 66.2637 103.199 66.6834 103.361C66.8637 103.404 67.0323 103.498 67.1754 103.634C67.1963 103.654 67.2134 103.68 67.2257 103.708C67.2379 103.737 67.245 103.768 67.2466 103.8C67.2466 103.952 67.1042 104.043 66.9747 104.081C65.5701 104.498 64.1008 104.081 62.6961 103.664C62.5383 103.61 62.375 103.582 62.2107 103.581C61.9712 103.581 61.667 103.702 61.4857 103.444C61.3546 103.139 61.2901 102.8 61.298 102.459Z" fill="#473F47"/>
<path d="M73.2857 42.1781C73.1756 42.595 73.0656 43.012 72.975 43.4365C72.8722 44.0696 72.7294 44.6929 72.5478 45.3013C72.4555 45.6047 72.3082 45.881 72.116 46.1114C71.9238 46.3417 71.6913 46.5205 71.4344 46.6355C71.1725 46.7335 70.8883 46.7094 70.6411 46.5682C70.3939 46.427 70.2028 46.1795 70.1075 45.8774C69.7968 45.9608 69.6868 46.408 69.6932 46.7871C69.7453 47.1579 69.6858 47.5384 69.5249 47.8635C69.2337 48.2653 68.6641 48.0985 68.2822 47.8104C67.704 47.3542 67.2545 46.7072 66.9906 45.9515C66.7267 45.1957 66.6603 44.3653 66.7999 43.5653C67.117 41.8749 67.1041 39.8509 67.9261 38.3878C68.2215 37.8941 68.5978 37.4741 69.033 37.1522C69.4145 36.8251 69.8593 36.6141 70.3276 36.5382C70.6554 36.5157 70.9843 36.5463 71.305 36.6291C72.6772 36.902 73.8423 37.137 73.8488 38.9791C73.8067 40.0736 73.6166 41.1533 73.2857 42.1781Z" fill="#FCBDBA"/>
<path d="M71.5963 39.199C71.3827 39.199 71.1367 39.1383 70.949 39.29C70.7613 39.4416 70.7483 39.7827 70.6318 40.048C70.4053 40.5407 69.8292 40.609 69.3955 40.8667C69.1328 41.0313 68.9141 41.2777 68.7633 41.5787C68.6125 41.8796 68.5356 42.2235 68.5411 42.5723C68.5495 42.3491 68.5022 42.1279 68.4052 41.9356C68.3793 41.89 68.3457 41.8511 68.3066 41.8212C68.2674 41.7914 68.2234 41.7713 68.1774 41.762C68.1313 41.7528 68.0841 41.7547 68.0387 41.7676C67.9933 41.7805 67.9506 41.8041 67.9132 41.837C67.8549 41.918 67.8208 42.0192 67.8161 42.1251C67.7985 42.3416 67.8285 42.5597 67.9033 42.7588C67.9781 42.9578 68.0952 43.1311 68.2433 43.2622C68.1089 43.5872 67.898 43.8605 67.6354 44.0499C67.3728 44.2393 67.0694 44.3368 66.7611 44.331C66.5662 44.3365 66.376 44.2613 66.2238 44.1188C66.1281 44.0034 66.0571 43.8631 66.0167 43.7094C65.6477 42.4965 66.2109 41.2002 66.3468 39.9191C66.3597 39.4668 66.4228 39.0183 66.5345 38.585C66.6545 38.2789 66.8188 37.9993 67.02 37.7587C67.6242 36.9089 68.424 36.2801 69.3243 35.9469C70.1917 35.6665 71.9135 35.8105 72.5931 36.614C72.7473 36.844 72.8448 37.119 72.8749 37.4093C72.905 37.6995 72.8665 37.9939 72.7638 38.2604C72.661 38.5269 72.4979 38.7553 72.292 38.9207C72.0862 39.0862 71.8456 39.1825 71.5963 39.199V39.199Z" fill="#FF681C"/>
<path d="M71.2144 154.279V140.096C72.8067 136.048 75.9461 138.807 75.9461 138.807C76.4362 139.409 77.0689 139.825 77.7626 140.001C78.4564 140.178 79.1794 140.107 79.8384 139.797C80.4974 139.488 81.0623 138.955 81.4601 138.267C81.858 137.578 82.0706 136.766 82.0706 135.934C82.0706 135.103 81.858 134.29 81.4601 133.602C81.0623 132.913 80.4974 132.38 79.8384 132.071C79.1794 131.762 78.4564 131.691 77.7626 131.867C77.0689 132.044 76.4362 132.46 75.9461 133.061C72.9815 135.335 71.2144 131.772 71.2144 131.772V117.582H83.3251C83.3251 117.582 86.3933 115.512 84.4255 112.04C83.9119 111.466 83.5569 110.725 83.4061 109.913C83.2554 109.1 83.316 108.254 83.5799 107.482C83.8439 106.71 84.2992 106.049 84.8872 105.583C85.4752 105.117 86.1688 104.868 86.8787 104.868C87.5887 104.868 88.2823 105.117 88.8703 105.583C89.4583 106.049 89.9136 106.71 90.1775 107.482C90.4415 108.254 90.5021 109.1 90.3513 109.913C90.2006 110.725 89.8456 111.466 89.332 112.04C89.332 112.04 86.9758 115.717 90.4323 117.582H102.543V154.279H71.2144Z" fill="url(#paint6_linear)"/>
<path d="M48.0092 153.521H45.8214L68.2174 84.2654C68.2928 84.0418 68.4238 83.8499 68.5935 83.7147C68.7632 83.5796 68.9637 83.5073 69.169 83.5073V83.5073C69.3347 83.507 69.4979 83.5539 69.6448 83.6438C69.7916 83.7338 69.9175 83.8642 70.0118 84.0238C70.106 84.1834 70.1657 84.3674 70.1858 84.56C70.2059 84.7527 70.1857 84.9481 70.1269 85.1296L48.0092 153.521Z" fill="#FD6868"/>
<path d="M61.1297 153.521H58.9418L81.5839 83.4922H83.7717L61.1297 153.521Z" fill="#FD6868"/>
<path d="M78.0497 94.4309H66.4763L67.0588 92.6267H78.6323L78.0497 94.4309Z" fill="#FD6868"/>
<path d="M74.4897 105.43H62.9162L63.5052 103.626H75.0787L74.4897 105.43Z" fill="#FD6868"/>
<path d="M70.9361 116.43H59.3626L59.9452 114.618H71.5186L70.9361 116.43Z" fill="#FD6868"/>
<path d="M67.3825 127.421H55.809L56.3916 125.617H67.965L67.3825 127.421Z" fill="#FD6868"/>
<path d="M63.8224 138.421H52.2489L52.8379 136.616H64.4049L63.8224 138.421Z" fill="#FD6868"/>
<path d="M67.1171 94.4308L64.1395 103.626H75.0981L74.5155 105.43H63.5764L60.6054 114.618H71.538L70.9555 116.422H60.0034L57.0323 125.617H67.9779L67.3954 127.421H56.4498L53.4723 136.616H64.4114L63.8224 138.421H52.8897L48.0092 153.521H45.8214L68.2174 84.2652C68.3147 84.0276 68.4762 83.8342 68.6768 83.7149C68.8775 83.5956 69.1062 83.5572 69.3274 83.6055C69.5486 83.6539 69.75 83.7863 69.9004 83.9824C70.0508 84.1784 70.1418 84.427 70.1593 84.6898C70.1593 84.8346 70.1374 84.9783 70.0946 85.1143L67.6673 92.6266H78.5999L78.0174 94.4308H67.1171Z" fill="url(#paint7_linear)"/>
<path d="M61.1297 153.521H58.9418L81.5839 83.4922H83.7717L61.1297 153.521Z" fill="url(#paint8_linear)"/>
<path d="M169.673 93.6425C169.35 93.9629 168.962 94.182 168.547 94.2793C168.165 94.298 167.785 94.2178 167.433 94.0443L162.048 91.9445C161.641 92.3157 161.369 92.8537 161.288 93.4501C161.206 94.0465 161.321 94.657 161.608 95.1586C162.136 95.8359 162.822 96.3158 163.582 96.5383L167.278 98.0923C168.131 98.559 169.062 98.7977 170.004 98.7912C170.945 98.7846 171.874 98.5329 172.722 98.0544C173.822 97.6223 175.033 97.0841 175.563 95.8712C176.094 94.6583 175.706 93.0512 175.861 91.6337C176.065 90.7333 176.21 89.8159 176.295 88.8895C176.295 88.0935 175.738 86.8958 174.929 87.0626C174.23 87.2066 173.764 88.6318 173.395 89.2306C172.355 90.916 171.099 92.404 169.673 93.6425V93.6425Z" fill="white"/>
<path d="M161.375 91.5881C161.319 91.4175 161.233 91.2626 161.122 91.1332C161.068 91.0683 160.998 91.0236 160.923 91.0047C160.847 90.9858 160.767 90.9936 160.695 91.0271C160.625 91.078 160.568 91.1513 160.531 91.2385C160.494 91.3256 160.479 91.4232 160.488 91.5198C160.493 91.5541 160.493 91.5892 160.486 91.623C160.479 91.6569 160.467 91.6888 160.449 91.7169C160.41 91.7624 160.339 91.7169 160.281 91.7169C159.673 91.5805 159.051 91.4743 158.43 91.3985C158.363 91.3829 158.294 91.3888 158.23 91.4155C158.166 91.4422 158.109 91.4888 158.066 91.5503C158.023 91.6118 157.995 91.6859 157.985 91.7646C157.975 91.8433 157.983 91.9238 158.009 91.9974C158.076 92.2388 158.179 92.4645 158.313 92.6645C158.63 93.2709 158.747 94.0669 159.252 94.4611C159.56 94.6725 159.919 94.7603 160.274 94.7112C160.63 94.7112 160.98 94.6127 161.336 94.6354C161.571 94.6944 161.817 94.6625 162.035 94.5445C162.117 94.473 162.181 94.3786 162.223 94.2698C162.265 94.1611 162.283 94.0417 162.275 93.9229C162.237 93.5484 162.124 93.1898 161.945 92.8767C161.744 92.4674 161.556 92.0277 161.375 91.5881Z" fill="#FDB9A9"/>
<path d="M176.392 139.065C174.333 138.519 174.735 141.938 174.191 143.212C173.847 143.866 173.409 144.445 172.897 144.925C172.392 145.417 172.062 146.111 171.971 146.873C171.959 147.015 171.984 147.158 172.042 147.282C172.147 147.432 172.294 147.534 172.456 147.57C173.633 147.973 174.897 147.826 175.984 147.161C176.493 146.88 176.916 146.422 177.194 145.85C177.42 145.233 177.526 144.565 177.505 143.894C177.57 142.469 178.114 139.512 176.392 139.065Z" fill="#FDB9A9"/>
<path d="M174.567 146.115C174.567 146.115 168.702 146.411 171.188 148.563C173.673 150.716 177.382 148.04 177.745 147.548C178.107 147.055 177.809 146.214 177.809 146.214L174.567 146.115Z" fill="#FD6868"/>
<path d="M177.486 147.063C176.968 147.821 174.211 148.814 172.987 148.708C171.764 148.602 170.67 147.95 170.793 147.017C170.916 146.085 173.065 143.939 173.473 143.947C173.88 143.955 174.198 145.054 175.013 145.281C175.378 145.352 175.751 145.313 176.099 145.167C176.447 145.021 176.757 144.773 177 144.447C177.073 144.333 177.177 144.251 177.294 144.214C177.411 144.177 177.536 144.187 177.648 144.243C177.818 144.693 177.893 145.185 177.864 145.676C177.836 146.167 177.706 146.643 177.486 147.063Z" fill="white"/>
<path d="M183.467 140.414C181.408 139.853 181.81 143.28 181.266 144.546C180.922 145.202 180.484 145.784 179.971 146.266C179.467 146.756 179.137 147.448 179.046 148.207C179.035 148.351 179.06 148.496 179.117 148.624C179.224 148.772 179.37 148.873 179.531 148.912C180.708 149.311 181.972 149.165 183.059 148.503C183.567 148.216 183.989 147.757 184.269 147.184C184.494 146.569 184.6 145.904 184.58 145.236C184.645 143.795 185.189 140.846 183.467 140.414Z" fill="#FDB9A9"/>
<path d="M181.641 147.434C181.641 147.434 175.777 147.722 178.263 149.89C180.748 152.058 184.457 149.36 184.82 148.867C185.182 148.374 184.884 147.533 184.884 147.533L181.641 147.434Z" fill="#FD6868"/>
<path d="M184.561 148.366C184.043 149.125 181.285 150.125 180.062 150.019C178.839 149.913 177.745 149.261 177.868 148.329C177.991 147.396 180.14 145.251 180.547 145.296C180.955 145.342 181.272 146.403 182.088 146.623C182.452 146.695 182.826 146.657 183.173 146.513C183.521 146.368 183.832 146.122 184.075 145.797C184.147 145.682 184.251 145.599 184.368 145.562C184.486 145.524 184.611 145.535 184.722 145.592C184.886 146.036 184.957 146.52 184.929 147.002C184.901 147.485 184.775 147.953 184.561 148.366Z" fill="white"/>
<path d="M178.153 109.236L180.91 143.227L184.884 142.651C186.457 134.358 186.069 109.546 186.069 109.546L178.153 109.236Z" fill="#473F47"/>
<path d="M180.91 108.319L178.153 142.302L174.165 141.726C171.893 120.228 173.77 106.855 173.77 106.855L180.91 108.319Z" fill="#473F47"/>
<path d="M174.133 96.0303C174.081 95.4087 173.939 94.7871 173.887 94.1503C173.757 92.8695 173.777 91.5741 173.945 90.2994C174.132 88.9395 174.483 87.6174 174.987 86.3727C175.44 85.2963 176.282 84.8566 177.201 84.2956C177.983 83.8034 178.83 83.4677 179.706 83.3026C180.323 83.2366 180.944 83.2775 181.551 83.4239C183.428 83.8408 185.894 84.94 187.176 86.7062C188.14 88.0025 188.25 89.8673 188.283 91.5881C188.321 93.9608 188.283 96.3335 188.153 98.7062C188.153 99.0474 188.121 99.3885 188.095 99.7372C187.99 102.377 187.65 104.996 187.079 107.553C186.971 108.351 186.602 109.07 186.049 109.554C184.58 110.555 182.34 110.001 180.755 109.744C178.651 109.395 176.495 109.031 174.631 107.833C174.244 107.639 173.931 107.286 173.751 106.84C173.658 106.279 173.719 105.698 173.926 105.18C174.573 102.754 174.068 100.2 174.068 97.7208C174.068 97.2735 174.113 96.8187 174.113 96.3639C174.133 96.2577 174.133 96.144 174.133 96.0303Z" fill="white"/>
<path d="M180.735 100.419C181.234 100.783 181.784 101.04 182.36 101.177C184.075 101.761 185.836 102.072 187.538 102.693C187.654 102.72 187.761 102.783 187.849 102.875C187.918 103.001 187.95 103.151 187.939 103.3C187.947 103.884 187.873 104.465 187.719 105.021C187.669 105.298 187.533 105.544 187.337 105.711C187.089 105.817 186.816 105.817 186.567 105.711L180.153 104.119C179.694 103.981 179.222 103.915 178.748 103.922C178.187 103.998 177.637 104.159 177.11 104.399C176.127 104.768 175.114 105.022 174.088 105.157C174.142 103.723 174.291 102.296 174.534 100.889C174.628 100.473 174.763 100.072 174.935 99.6916C175.142 99.3164 175.386 98.9704 175.66 98.6606C176.696 97.3947 177.415 95.8103 178.463 94.5444C179.013 93.8773 179.699 93.4528 180.185 92.7402C180.379 92.4522 182.062 89.9733 181.9 89.708C182.224 90.178 183.027 89.708 183.318 90.1932C183.499 90.4964 183.318 90.9057 183.15 91.2165C181.909 93.6487 181.044 96.3172 180.593 99.1003C180.463 99.7446 180.269 99.9721 180.735 100.419Z" fill="url(#paint9_linear)"/>
<path d="M175.505 69.3013C176.1 69.7491 176.568 70.3946 176.848 71.1554C177.128 71.9161 177.207 72.7574 177.077 73.5715C176.946 74.3857 176.611 75.1356 176.114 75.7253C175.617 76.315 174.982 76.7177 174.288 76.8818C174.288 76.8818 170.612 78.5041 172.676 82.2488L182.891 89.8673L176.418 101.829C173.22 104.248 171.835 99.9418 171.835 99.9418C171.696 99.1289 171.352 98.3834 170.848 97.8011C170.344 97.2189 169.703 96.8265 169.007 96.6746C168.311 96.5227 167.592 96.6181 166.943 96.9486C166.294 97.2791 165.744 97.8296 165.364 98.5292C164.984 99.2288 164.792 100.046 164.811 100.874C164.831 101.703 165.062 102.506 165.475 103.18C165.887 103.853 166.463 104.367 167.127 104.655C167.791 104.942 168.513 104.991 169.201 104.793C172.761 104.71 172.605 108.857 172.605 108.857L166.132 120.819L139.697 101.109L146.138 89.2533C149.335 86.8427 150.721 91.1408 150.721 91.1408C150.858 91.9568 151.2 92.7059 151.704 93.2916C152.209 93.8772 152.851 94.2726 153.549 94.4267C154.246 94.5809 154.968 94.4866 155.619 94.1562C156.271 93.8257 156.823 93.2743 157.205 92.5729C157.586 91.8715 157.779 91.0523 157.759 90.221C157.74 89.3898 157.508 88.5845 157.093 87.9091C156.679 87.2337 156.102 86.7192 155.435 86.4318C154.769 86.1444 154.044 86.0974 153.355 86.2969C149.795 86.3803 149.957 82.2337 149.957 82.2337L156.52 70.1503L166.741 77.7763C166.741 77.7763 170.282 77.9583 170.21 73.789C170.097 73.2413 170.079 72.6728 170.157 72.1168C170.235 71.5608 170.407 71.0288 170.663 70.5521C171.173 69.6474 171.964 69.0108 172.868 68.7773C173.772 68.5438 174.718 68.7318 175.505 69.3013Z" fill="#FD6868"/>
<path d="M191.267 93.8093C191.532 94.3503 191.749 94.9219 191.914 95.5149C192.123 96.5544 192.145 97.6336 191.979 98.6836C191.9 99.7129 191.585 100.698 191.066 101.534C189.972 103.05 188.017 103.194 186.321 103.005C184.396 102.796 182.495 102.349 180.651 101.67C180.48 101.625 180.318 101.537 180.178 101.413C180.029 101.214 179.926 100.974 179.881 100.715C179.739 100.087 179.646 99.445 179.602 98.7973C181.544 98.1454 183.693 98.676 185.719 98.3273C185.857 98.3266 185.993 98.2873 186.116 98.2128C186.238 98.1382 186.344 98.0304 186.424 97.8984C186.503 97.7664 186.555 97.6141 186.574 97.454C186.594 97.2939 186.58 97.1307 186.535 96.978C186.438 95.6438 185.732 94.4764 185.402 93.1877C185.079 91.9475 185.106 90.6181 185.48 89.3974C185.591 88.9672 185.781 88.5704 186.036 88.2341C186.29 87.8978 186.604 87.63 186.956 87.4492C187.765 87.1384 188.075 87.8813 188.522 88.5787C189.55 90.2372 190.468 91.9859 191.267 93.8093V93.8093Z" fill="white"/>
<path d="M178.793 97.9482C178.717 97.8755 178.625 97.8283 178.528 97.8118C178.453 97.8208 178.382 97.853 178.322 97.905C178.262 97.957 178.214 98.0268 178.185 98.1074C178.128 98.2708 178.063 98.4303 177.991 98.585C177.893 98.7114 177.773 98.8105 177.639 98.8748C177.504 98.9391 177.359 98.967 177.214 98.9564C176.923 98.9223 176.631 98.9223 176.34 98.9564C176.233 98.9822 176.132 99.0396 176.049 99.1232C175.969 99.2145 175.913 99.33 175.887 99.4568C175.838 99.7143 175.844 99.9821 175.905 100.236C175.966 100.49 176.08 100.723 176.237 100.912C176.553 101.287 176.941 101.568 177.369 101.731C177.806 101.957 178.291 102.025 178.761 101.928C179.019 101.84 179.265 101.71 179.492 101.541L180.437 100.927C180.516 100.884 180.587 100.822 180.645 100.745C180.852 100.442 180.567 99.5326 180.379 99.2293C179.907 98.714 179.373 98.2823 178.793 97.9482V97.9482Z" fill="#FDB9A9"/>
<path d="M178.159 79.861C178.159 79.2091 178.204 78.5496 178.263 77.9128C178.321 77.2761 178.392 76.7758 178.483 76.2148C178.489 76.0488 178.525 75.8862 178.59 75.7384C178.655 75.5905 178.746 75.4608 178.858 75.3582C179.606 74.835 180.466 74.5721 181.337 74.6002C181.667 74.573 181.997 74.6263 182.308 74.7568C182.619 74.8873 182.903 75.0921 183.143 75.3582C183.435 75.7935 183.609 76.3218 183.642 76.8743C183.672 78.309 183.55 79.7426 183.279 81.1422C183.142 82.2412 183.092 83.3527 183.13 84.4624C182.671 84.8196 182.144 85.0383 181.596 85.0992C181.341 85.0964 181.088 85.0478 180.845 84.9552C180.71 84.9194 180.591 84.8279 180.509 84.6974C180.48 84.576 180.48 84.4475 180.509 84.326C180.515 84.2099 180.515 84.0934 180.509 83.9773C180.546 83.328 180.536 82.6761 180.476 82.0291C180.477 82.0009 180.473 81.9729 180.464 81.9467C180.455 81.9206 180.442 81.8969 180.424 81.8775C180.389 81.8624 180.35 81.8624 180.314 81.8775H180.159C179.884 81.9116 179.606 81.9116 179.331 81.8775C178.999 81.8395 178.691 81.6616 178.463 81.3772C178.2 80.9358 178.091 80.3934 178.159 79.861V79.861Z" fill="#FDB9A9"/>
<path d="M179.311 75.7069C179.117 75.7069 178.942 75.8282 178.774 75.7069C178.598 75.536 178.443 75.337 178.314 75.1156C178.005 74.6353 177.853 74.0407 177.887 73.4403C177.899 73.1687 177.975 72.9063 178.107 72.6823C178.251 72.4785 178.436 72.3197 178.644 72.2199C179.046 71.9884 179.493 71.8863 179.939 71.9242C180.586 72.0227 181.189 72.3599 181.661 72.887C181.76 73.0084 181.882 73.1018 182.017 73.1599C182.141 73.1903 182.268 73.1903 182.392 73.1599C183.211 73.0791 184.026 73.3725 184.664 73.9786C185.027 74.35 185.312 74.8276 185.687 75.1535C186.062 75.4795 186.431 75.6008 186.626 76.0177C186.707 76.2115 186.739 76.4282 186.72 76.6428C186.7 76.8574 186.63 77.0612 186.515 77.2306C186.274 77.563 185.943 77.7879 185.577 77.8674C185.617 77.9907 185.636 78.1222 185.632 78.2541C185.629 78.3861 185.602 78.5159 185.555 78.6359C185.508 78.7559 185.442 78.8637 185.358 78.953C185.275 79.0423 185.178 79.1114 185.072 79.1561C184.923 79.1828 184.778 79.2391 184.645 79.3228C184.554 79.4062 184.515 79.5351 184.425 79.6185C184.211 79.8232 183.933 79.8914 183.842 80.2401C183.815 80.3869 183.804 80.5372 183.81 80.6873C183.794 80.9097 183.717 81.12 183.59 81.2862C183.506 81.3923 183.357 81.6577 183.234 81.688C183.111 81.7183 183.001 81.5439 182.962 81.3923C182.81 80.7495 182.849 80.0654 183.072 79.4517C183.232 79.1554 183.326 78.8163 183.344 78.4662C183.344 78.1175 182.917 77.8446 182.696 78.0493C182.476 78.254 182.463 78.7467 182.23 78.6482C182.375 78.1582 182.364 77.6237 182.2 77.1422C182.036 76.6607 181.73 76.2643 181.337 76.0253C180.901 75.8691 180.447 75.7949 179.991 75.8055C179.778 75.7529 179.561 75.725 179.344 75.7221L179.311 75.7069Z" fill="#473F47"/>
<path d="M180.159 81.8926C180.802 81.7493 181.431 81.5309 182.036 81.2407C182.091 81.8381 181.968 82.4393 181.689 82.9432C181.409 83.4471 180.99 83.823 180.502 84.0076V84.0076C180.551 83.3595 180.551 82.7076 180.502 82.0594C180.501 82.0031 180.483 81.9491 180.45 81.9078C180.415 81.8928 180.376 81.8928 180.34 81.9078H180.191L180.159 81.8926Z" fill="#DE9F93"/>
<path d="M159.893 87.3431C159.991 87.5078 160.054 87.6974 160.078 87.8963C160.101 88.0953 160.085 88.2979 160.029 88.4878C159.916 88.8673 159.752 89.2232 159.543 89.5415L158.527 91.3002C158.261 91.755 157.88 92.2705 157.433 92.225C156.32 92.134 155.828 88.7531 156.242 87.7525C156.721 86.5017 159.161 86.2743 159.893 87.3431Z" fill="#FDB9A9"/>
<path d="M165.136 117.582V154.279H133.807V140.088C133.807 140.088 135.574 136.495 138.539 138.8C139.029 139.401 139.661 139.817 140.355 139.993C141.049 140.17 141.772 140.099 142.431 139.79C143.09 139.481 143.655 138.948 144.053 138.259C144.451 137.57 144.663 136.758 144.663 135.927C144.663 135.095 144.451 134.283 144.053 133.594C143.655 132.906 143.09 132.372 142.431 132.063C141.772 131.754 141.049 131.683 140.355 131.86C139.661 132.036 139.029 132.452 138.539 133.054C138.539 133.054 135.399 135.813 133.807 131.765V117.582H145.918C149.374 115.717 147.018 112.04 147.018 112.04C146.504 111.466 146.149 110.725 145.999 109.913C145.848 109.1 145.908 108.254 146.172 107.482C146.436 106.71 146.892 106.049 147.48 105.583C148.068 105.117 148.761 104.868 149.471 104.868C150.181 104.868 150.875 105.117 151.463 105.583C152.051 106.049 152.506 106.71 152.77 107.482C153.034 108.254 153.095 109.1 152.944 109.913C152.793 110.725 152.438 111.466 151.924 112.04C149.983 115.512 153.025 117.582 153.025 117.582H165.136Z" fill="#FD6868"/>
<path d="M165.136 117.582V154.279H133.807V140.088C133.807 140.088 135.574 136.495 138.539 138.8C139.029 139.401 139.661 139.817 140.355 139.993C141.049 140.17 141.772 140.099 142.431 139.79C143.09 139.481 143.655 138.948 144.053 138.259C144.451 137.57 144.663 136.758 144.663 135.927C144.663 135.095 144.451 134.283 144.053 133.594C143.655 132.906 143.09 132.372 142.431 132.063C141.772 131.754 141.049 131.683 140.355 131.86C139.661 132.036 139.029 132.452 138.539 133.054C138.539 133.054 135.399 135.813 133.807 131.765V117.582H145.918C149.374 115.717 147.018 112.04 147.018 112.04C146.504 111.466 146.149 110.725 145.999 109.913C145.848 109.1 145.908 108.254 146.172 107.482C146.436 106.71 146.892 106.049 147.48 105.583C148.068 105.117 148.761 104.868 149.471 104.868C150.181 104.868 150.875 105.117 151.463 105.583C152.051 106.049 152.506 106.71 152.77 107.482C153.034 108.254 153.095 109.1 152.944 109.913C152.793 110.725 152.438 111.466 151.924 112.04C149.983 115.512 153.025 117.582 153.025 117.582H165.136Z" fill="url(#paint10_linear)"/>
<path d="M113.34 99.2294C113.338 100.06 113.124 100.872 112.725 101.559C112.326 102.247 111.761 102.779 111.103 103.088C110.444 103.397 109.721 103.468 109.028 103.292C108.334 103.117 107.701 102.702 107.21 102.102C104.245 99.8283 102.478 103.391 102.478 103.391V117.582H133.807V80.8845H102.478V95.0677C104.071 99.1157 107.21 96.3564 107.21 96.3564C107.701 95.7566 108.334 95.3423 109.028 95.1667C109.721 94.9911 110.444 95.0623 111.103 95.3711C111.761 95.6798 112.326 96.2121 112.725 96.8996C113.124 97.5871 113.338 98.3984 113.34 99.2294V99.2294Z" fill="#FD6868"/>
<path d="M115.689 123.123C115.176 123.697 114.821 124.438 114.67 125.251C114.519 126.063 114.58 126.91 114.844 127.682C115.108 128.453 115.563 129.115 116.151 129.581C116.739 130.047 117.433 130.296 118.143 130.296C118.853 130.296 119.546 130.047 120.134 129.581C120.722 129.115 121.177 128.453 121.441 127.682C121.705 126.91 121.766 126.063 121.615 125.251C121.464 124.438 121.109 123.697 120.596 123.123C120.596 123.123 118.24 119.447 121.696 117.582H114.583C114.583 117.582 117.657 119.651 115.689 123.123Z" fill="#FD6868"/>
<path d="M102.478 80.8845V95.0677C104.071 99.1157 107.21 96.3564 107.21 96.3564C107.7 95.7549 108.333 95.3391 109.027 95.1626C109.72 94.9861 110.443 95.057 111.102 95.3661C111.761 95.6753 112.326 96.2085 112.724 96.8971C113.122 97.5857 113.335 98.398 113.335 99.2294C113.335 100.061 113.122 100.873 112.724 101.562C112.326 102.25 111.761 102.784 111.102 103.093C110.443 103.402 109.72 103.473 109.027 103.296C108.333 103.12 107.7 102.704 107.21 102.102C104.245 99.8283 102.478 103.391 102.478 103.391V117.582H114.583C114.583 117.582 117.651 119.651 115.683 123.123C115.169 123.697 114.814 124.438 114.664 125.251C114.513 126.063 114.573 126.91 114.837 127.682C115.101 128.453 115.557 129.115 116.145 129.581C116.733 130.047 117.426 130.296 118.136 130.296C118.846 130.296 119.54 130.047 120.128 129.581C120.716 129.115 121.171 128.453 121.435 127.682C121.699 126.91 121.759 126.063 121.609 125.251C121.458 124.438 121.103 123.697 120.589 123.123C120.589 123.123 118.233 119.447 121.69 117.582H133.807V80.8845H102.478Z" fill="url(#paint11_linear)"/>
<path d="M102.478 117.582V154.279H133.807V140.088C133.807 140.088 135.574 136.495 138.539 138.8C139.029 139.401 139.661 139.817 140.355 139.994C141.049 140.17 141.772 140.099 142.431 139.79C143.09 139.481 143.655 138.948 144.053 138.259C144.451 137.57 144.663 136.758 144.663 135.927C144.663 135.095 144.451 134.283 144.053 133.594C143.655 132.906 143.09 132.373 142.431 132.063C141.772 131.754 141.049 131.683 140.355 131.86C139.661 132.036 139.029 132.452 138.539 133.054C138.539 133.054 135.399 135.813 133.807 131.765V117.582H121.703C118.246 119.447 120.602 123.123 120.602 123.123C121.116 123.697 121.471 124.438 121.622 125.251C121.772 126.063 121.712 126.91 121.448 127.682C121.184 128.453 120.729 129.115 120.141 129.581C119.553 130.047 118.859 130.296 118.149 130.296C117.439 130.296 116.746 130.047 116.158 129.581C115.57 129.115 115.114 128.453 114.85 127.682C114.586 126.91 114.526 126.063 114.677 125.251C114.827 124.438 115.182 123.697 115.696 123.123C117.638 119.651 114.596 117.582 114.596 117.582H102.478Z" fill="#FD6868"/>
<path d="M71.2144 154.279V140.096C72.8067 136.048 75.9461 138.807 75.9461 138.807C76.4362 139.409 77.0689 139.825 77.7626 140.001C78.4564 140.178 79.1794 140.107 79.8384 139.797C80.4974 139.488 81.0623 138.955 81.4601 138.267C81.858 137.578 82.0706 136.766 82.0706 135.934C82.0706 135.103 81.858 134.29 81.4601 133.602C81.0623 132.913 80.4974 132.38 79.8384 132.071C79.1794 131.762 78.4564 131.691 77.7626 131.867C77.0689 132.044 76.4362 132.46 75.9461 133.061C72.9815 135.335 71.2144 131.772 71.2144 131.772V117.582H83.3251C83.3251 117.582 86.3933 115.512 84.4255 112.04C83.9119 111.466 83.5569 110.725 83.4061 109.913C83.2554 109.1 83.316 108.254 83.5799 107.482C83.8439 106.71 84.2992 106.049 84.8872 105.583C85.4752 105.117 86.1688 104.868 86.8787 104.868C87.5887 104.868 88.2823 105.117 88.8703 105.583C89.4583 106.049 89.9136 106.71 90.1775 107.482C90.4415 108.254 90.5021 109.1 90.3513 109.913C90.2006 110.725 89.8456 111.466 89.332 112.04C89.332 112.04 86.9758 115.717 90.4323 117.582H102.543V154.279H71.2144Z" fill="#FD6868"/>
<path d="M71.2144 154.279V140.096C72.8067 136.048 75.9461 138.807 75.9461 138.807C76.4362 139.409 77.0689 139.825 77.7626 140.001C78.4564 140.178 79.1794 140.107 79.8384 139.797C80.4974 139.488 81.0623 138.955 81.4601 138.267C81.858 137.578 82.0706 136.766 82.0706 135.934C82.0706 135.103 81.858 134.29 81.4601 133.602C81.0623 132.913 80.4974 132.38 79.8384 132.071C79.1794 131.762 78.4564 131.691 77.7626 131.867C77.0689 132.044 76.4362 132.46 75.9461 133.061C72.9815 135.335 71.2144 131.772 71.2144 131.772V117.582H83.3251C83.3251 117.582 86.3933 115.512 84.4255 112.04C83.9119 111.466 83.5569 110.725 83.4061 109.913C83.2554 109.1 83.316 108.254 83.5799 107.482C83.8439 106.71 84.2992 106.049 84.8872 105.583C85.4752 105.117 86.1688 104.868 86.8787 104.868C87.5887 104.868 88.2823 105.117 88.8703 105.583C89.4583 106.049 89.9136 106.71 90.1775 107.482C90.4415 108.254 90.5021 109.1 90.3513 109.913C90.2006 110.725 89.8456 111.466 89.332 112.04C89.332 112.04 86.9758 115.717 90.4323 117.582H102.543V154.279H71.2144Z" fill="url(#paint12_linear)"/>
<path d="M113.379 99.237C113.377 100.068 113.162 100.879 112.764 101.567C112.365 102.254 111.8 102.787 111.141 103.095C110.483 103.404 109.76 103.475 109.066 103.3C108.373 103.124 107.74 102.71 107.249 102.11C107.249 102.11 104.109 99.3507 102.517 103.399V117.582H90.4064C86.9499 115.717 89.3061 112.041 89.3061 112.041C89.8197 111.467 90.1747 110.726 90.3254 109.913C90.4762 109.101 90.4156 108.254 90.1516 107.482C89.8877 106.71 89.4324 106.049 88.8444 105.583C88.2564 105.117 87.5628 104.868 86.8528 104.868C86.1429 104.868 85.4493 105.117 84.8613 105.583C84.2733 106.049 83.818 106.71 83.554 107.482C83.2901 108.254 83.2295 109.101 83.3802 109.913C83.531 110.726 83.886 111.467 84.3996 112.041C86.3415 115.512 83.2992 117.582 83.2992 117.582H71.2144V80.8845H83.2086C86.6651 82.7493 84.309 86.4259 84.309 86.4259C83.7954 86.9999 83.4403 87.7408 83.2896 88.5533C83.1389 89.3658 83.1994 90.2125 83.4634 90.9843C83.7274 91.7561 84.1827 92.4176 84.7707 92.8836C85.3586 93.3495 86.0523 93.5985 86.7622 93.5985C87.4722 93.5985 88.1658 93.3495 88.7538 92.8836C89.3417 92.4176 89.7971 91.7561 90.061 90.9843C90.325 90.2125 90.3855 89.3658 90.2348 88.5533C90.0841 87.7408 89.7291 86.9999 89.2154 86.4259C87.2736 82.954 90.3158 80.8845 90.3158 80.8845H102.543V95.0753C102.543 95.0753 104.31 98.6685 107.275 96.364C107.766 95.7641 108.399 95.3498 109.092 95.1743C109.786 94.9987 110.508 95.0699 111.167 95.3787C111.826 95.6874 112.391 96.2197 112.79 96.9072C113.188 97.5947 113.402 98.406 113.405 99.237H113.379Z" fill="#FD6868"/>
<path d="M121.055 169.751C121.067 170.583 120.865 171.4 120.475 172.097C120.086 172.793 119.528 173.337 118.872 173.657C118.216 173.978 117.493 174.061 116.797 173.896C116.1 173.731 115.462 173.325 114.964 172.73C114.964 172.73 111.793 170.024 110.252 174.095L110.427 188.278L98.3163 188.483C94.8339 186.678 97.1447 182.964 97.1447 182.964C97.6489 182.382 97.9928 181.636 98.1321 180.823C98.2714 180.01 98.1998 179.167 97.9264 178.402C97.653 177.637 97.1903 176.985 96.598 176.531C96.0057 176.077 95.3109 175.84 94.6028 175.852C93.8948 175.864 93.2061 176.124 92.6253 176.598C92.0445 177.073 91.5982 177.74 91.3439 178.514C91.0896 179.288 91.0388 180.133 91.1982 180.941C91.3576 181.749 91.7198 182.483 92.2383 183.047C94.2513 186.481 91.2091 188.604 91.2091 188.604L79.0984 188.809L78.6453 152.111L90.6395 151.914C94.1219 153.718 91.8111 157.433 91.8111 157.433C91.3069 158.015 90.963 158.761 90.8236 159.574C90.6843 160.387 90.756 161.23 91.0294 161.995C91.3028 162.76 91.7654 163.411 92.3577 163.866C92.95 164.32 93.6449 164.557 94.3529 164.545C95.0609 164.533 95.7496 164.273 96.3304 163.798C96.9112 163.324 97.3575 162.657 97.6119 161.883C97.8662 161.109 97.9169 160.264 97.7575 159.456C97.5981 158.648 97.2359 157.914 96.7175 157.349C94.7044 153.915 97.7467 151.793 97.7467 151.793L109.974 151.588L110.149 165.779C110.149 165.779 111.961 169.342 114.893 166.984C115.226 166.569 115.627 166.237 116.071 166.007C116.516 165.778 116.996 165.657 117.482 165.65C118.42 165.642 119.322 166.069 119.991 166.837C120.661 167.606 121.043 168.653 121.055 169.751V169.751Z" fill="#FD6868"/>
<path d="M83.0339 152.248C82.6002 152.808 82.2636 154.044 82.9497 154.567C83.1952 154.722 83.4673 154.81 83.7459 154.825L87.4095 155.348C87.2995 155.348 89.2155 180.629 89.9663 186.004C90.0569 186.64 90.2835 187.436 90.8337 187.52C90.9986 187.508 91.159 187.451 91.3017 187.354C91.4445 187.257 91.5658 187.121 91.6557 186.959C92.1846 185.988 92.4859 184.872 92.5295 183.722C93.4396 175.47 93.8721 167.155 93.8241 158.835C93.8241 157.19 93.7723 155.469 93.0733 154.037C92.6439 153.257 92.0811 152.591 91.4204 152.079C90.7596 151.567 90.0154 151.222 89.2349 151.065C87.1441 150.512 84.555 150.261 83.0339 152.248Z" fill="url(#paint13_linear)"/>
<path d="M91.8499 204.72V204.819C92.0052 205.281 92.4972 205.433 92.9114 205.493C93.3026 205.544 93.6961 205.564 94.0895 205.554C94.2782 205.562 94.4666 205.531 94.6462 205.463C94.8108 205.378 94.9653 205.269 95.1057 205.137L96.2385 204.152C96.5568 203.895 96.8479 203.594 97.1058 203.257C97.3609 202.91 97.4949 202.464 97.4813 202.006C97.4677 201.78 97.3953 201.565 97.2737 201.388C97.1522 201.212 96.9874 201.084 96.8016 201.021C96.5652 200.987 96.326 200.987 96.0896 201.021C95.8266 201.06 95.5596 201.01 95.3206 200.875C95.0817 200.741 94.8812 200.528 94.7432 200.263C94.6964 200.015 94.583 199.792 94.4196 199.626C94.2548 199.532 94.068 199.505 93.8888 199.55C93.4959 199.573 93.1078 199.663 92.7367 199.815C92.5495 199.894 92.3798 200.021 92.2398 200.186C92.0998 200.351 91.9931 200.551 91.9276 200.771C91.8879 200.974 91.8705 201.183 91.8758 201.392C91.8984 201.824 91.8984 202.257 91.8758 202.689C91.8241 203.227 91.7982 203.769 91.7981 204.311C91.8017 204.449 91.8191 204.586 91.8499 204.72V204.72Z" fill="#262836"/>
<path d="M102.834 204.894C102.072 205.303 101.287 205.653 100.485 205.941C100.165 206.102 99.8078 206.126 99.4749 206.009C99.3443 205.935 99.2288 205.829 99.1361 205.698C99.0435 205.567 98.9758 205.415 98.9376 205.251C98.8678 204.916 98.8394 204.571 98.8535 204.227C98.903 203.695 98.9962 203.17 99.1318 202.658C99.203 202.181 99.2613 201.703 99.3131 201.225C99.3972 200.536 99.4749 199.853 99.5461 199.171L101.585 199.679C101.799 199.732 101.999 200.695 102.129 200.9C102.224 201.05 102.346 201.174 102.487 201.262C102.628 201.35 102.785 201.4 102.944 201.407C103.292 201.349 103.642 201.316 103.993 201.309C104.219 201.371 104.421 201.519 104.568 201.731C104.714 201.942 104.797 202.204 104.802 202.476C104.8 202.747 104.75 203.014 104.656 203.26C104.561 203.507 104.423 203.728 104.252 203.909C103.909 204.273 103.514 204.565 103.087 204.773L102.834 204.894Z" fill="#262836"/>
<path d="M102.867 202.226C102.332 202.582 101.776 202.894 101.203 203.159H101.151C100.206 203.591 99.1512 201.855 99.1512 201.855C99.1512 201.855 97.8178 192.212 97.8567 188.21C97.902 185.466 97.3453 181.554 96.5103 174.459C96.3032 181.706 95.2546 184.889 95.52 187.49C95.9278 191.439 95.4423 201.248 95.4423 201.248C95.4423 201.248 94.549 203.159 93.5716 202.901H93.5134C92.9249 202.744 92.3472 202.536 91.7851 202.279C91.7851 202.279 90.6459 188.771 90.6459 185.208C90.6459 181.645 90.7754 178.454 90.7754 178.454L90.1799 167.174L92.7172 162.853L92.9244 162.754L93.1185 162.527L95.9342 160.109C95.9342 160.109 95.9342 160.67 95.8825 161.625L98.0703 162.997L98.2774 163.179L98.491 163.239L102.155 163.997C102.155 163.997 103.113 181.304 103.449 184.844C103.786 188.384 102.867 202.226 102.867 202.226Z" fill="#FD6868"/>
<path d="M102.867 202.226C102.332 202.582 101.776 202.894 101.203 203.159H101.151C100.206 203.591 99.1512 201.855 99.1512 201.855C99.1512 201.855 97.8178 192.212 97.8567 188.21C97.902 185.466 97.3453 181.554 96.5103 174.459C96.3032 181.706 95.2546 184.889 95.52 187.49C95.9278 191.439 95.4423 201.248 95.4423 201.248C95.4423 201.248 94.549 203.159 93.5716 202.901H93.5134C92.9249 202.744 92.3472 202.536 91.7851 202.279C91.7851 202.279 90.6459 188.771 90.6459 185.208C90.6459 181.645 90.7754 178.454 90.7754 178.454L90.1799 167.174L92.7172 162.853L92.9244 162.754L93.1185 162.527L95.9342 160.109C95.9342 160.109 95.9342 160.67 95.8825 161.625L98.0703 162.997L98.2774 163.179L98.491 163.239L102.155 163.997C102.155 163.997 103.113 181.304 103.449 184.844C103.786 188.384 102.867 202.226 102.867 202.226Z" fill="url(#paint14_linear)"/>
<path d="M120.11 141.9C120.156 141.862 120.21 141.841 120.266 141.84C120.415 141.84 120.421 142.12 120.369 142.287C120.234 142.752 120.037 143.189 119.787 143.583C119.706 143.681 119.657 143.811 119.651 143.947C119.651 144.083 119.754 144.182 119.832 144.281C120.07 144.604 120.239 144.989 120.326 145.404C120.413 145.819 120.414 146.253 120.33 146.668C120.151 147.499 119.782 148.256 119.262 148.859C119.137 149.046 118.982 149.201 118.805 149.317C118.629 149.433 118.434 149.506 118.233 149.534C117.534 149.534 116.66 148.526 116.382 147.828C116.281 147.48 116.258 147.107 116.317 146.745C116.376 146.384 116.515 146.046 116.719 145.766C117.544 144.156 118.713 142.823 120.11 141.9V141.9Z" fill="#A67C52"/>
<path d="M99.8309 133.941C100.057 134.214 100.407 134.494 100.31 134.85C100.258 135.04 100.083 135.153 99.9539 135.29C99.6345 135.687 99.4622 136.215 99.4749 136.761C99.4886 137.303 99.4229 137.844 99.2807 138.36C99.1999 138.616 99.0463 138.83 98.8458 138.969C98.6453 139.107 98.4102 139.16 98.1803 139.118C97.9149 139.035 97.6496 138.762 97.3906 138.891C97.1317 139.02 97.1317 139.27 97.0282 139.482C96.8868 139.743 96.6857 139.953 96.4477 140.087C96.2097 140.221 95.9443 140.274 95.6818 140.24C95.1626 140.149 94.6622 139.946 94.206 139.641C94.0122 139.551 93.844 139.398 93.7205 139.202C93.6453 139.009 93.627 138.793 93.6687 138.587C93.8287 137.97 94.0904 137.396 94.439 136.897C94.9971 135.89 95.333 134.736 95.4164 133.539C95.4682 132.705 95.4164 131.788 95.876 131.143C96.5233 130.264 97.9926 130.272 98.7629 130.916C99.5332 131.56 99.1189 133.084 99.8309 133.941Z" fill="#A67C52"/>
<path d="M98.9117 130.166C98.8215 130.373 98.6851 130.549 98.5169 130.673C98.1738 130.908 97.8696 131.181 97.5589 131.432C97.2456 131.673 97.0251 132.049 96.944 132.478C96.8081 133.236 97.1705 134.1 96.944 134.866C96.8598 135.025 96.6462 134.926 96.5621 134.775C96.4779 134.623 96.4262 134.433 96.2967 134.342C96.0701 134.191 95.7983 134.449 95.7012 134.729C95.6009 135.055 95.6123 135.414 95.7329 135.731C95.8536 136.047 96.0742 136.297 96.3485 136.427C96.3161 136.67 96.0507 136.768 95.8371 136.738C95.6263 136.67 95.4085 136.637 95.1898 136.639C94.7044 136.745 94.5426 137.557 94.0377 137.64C93.8705 137.627 93.7082 137.569 93.5633 137.47C93.4185 137.372 93.2951 137.235 93.2027 137.071L92.6136 136.313C92.5187 136.166 92.4149 136.027 92.3029 135.896C92.167 135.775 91.9469 135.768 91.8369 135.624C91.7269 135.48 91.8369 135.138 91.7204 134.956C91.6653 134.889 91.5962 134.839 91.5197 134.812C91.3503 134.712 91.2154 134.547 91.1376 134.344C91.0598 134.141 91.0439 133.913 91.0925 133.698C91.1083 133.644 91.1083 133.585 91.0925 133.531C91.0925 133.456 91.0019 133.425 90.9372 133.387C90.7585 133.252 90.627 133.046 90.5665 132.807C90.506 132.568 90.5204 132.311 90.6071 132.083C90.7055 131.822 90.8462 131.585 91.0213 131.386C91.0831 131.275 91.1707 131.186 91.2739 131.131C91.3771 131.076 91.4916 131.057 91.6039 131.075L91.701 130.082C91.6986 129.914 91.7282 129.747 91.7875 129.594C91.8468 129.441 91.9344 129.305 92.044 129.196C92.1536 129.087 92.2825 129.008 92.4213 128.965C92.5601 128.922 92.7054 128.915 92.8467 128.945L92.6525 128.126C92.6168 128.022 92.6168 127.905 92.6525 127.8C92.7058 127.728 92.7791 127.68 92.8596 127.664C93.0854 127.589 93.3177 127.543 93.5522 127.528C93.4681 127.298 93.4031 127.059 93.358 126.815C93.3432 126.78 93.3377 126.74 93.3422 126.701C93.3467 126.663 93.361 126.626 93.3832 126.597C93.4054 126.568 93.4346 126.547 93.467 126.537C93.4994 126.527 93.5336 126.529 93.5652 126.542C93.651 126.557 93.7382 126.557 93.8241 126.542C93.8241 126.542 93.6946 125.845 93.6881 125.784C93.6489 125.565 93.6837 125.337 93.7852 125.147C93.856 125.053 93.9458 124.981 94.0463 124.937C94.1469 124.893 94.2551 124.88 94.3613 124.897C94.5714 124.941 94.773 125.028 94.9568 125.155C94.9568 124.89 95.2352 124.753 95.4617 124.73C95.8979 124.702 96.3331 124.803 96.727 125.024C97.1208 125.245 97.4605 125.58 97.7143 125.996C97.7562 126.07 97.8038 126.138 97.8567 126.201C97.9601 126.278 98.0739 126.335 98.1932 126.368C98.3769 126.463 98.5402 126.605 98.6712 126.783C98.8022 126.962 98.8976 127.172 98.9506 127.399C99.0475 127.849 99.0868 128.314 99.0671 128.778C99.0819 129.135 99.0535 129.492 98.9829 129.84C98.9701 129.951 98.9462 130.061 98.9117 130.166Z" fill="#2F3554"/>
<path d="M95.6948 138.762C96.2338 139.026 96.7571 139.333 97.2612 139.679C97.4168 139.777 97.5517 139.914 97.6561 140.081C97.7119 140.172 97.7461 140.279 97.7552 140.391C97.7643 140.503 97.7479 140.616 97.7078 140.718C97.5719 140.998 97.2483 140.9 97.0023 140.793C95.8617 140.34 94.658 140.145 93.4552 140.217C93.3748 140.233 93.2923 140.222 93.2168 140.186C93.1414 140.15 93.076 140.09 93.028 140.013C93 139.92 92.9896 139.821 92.9974 139.723C93.0052 139.624 93.0311 139.529 93.0733 139.444C93.6882 137.996 94.6915 138.231 95.6948 138.762Z" fill="white"/>
<path d="M117.851 149.936C117.617 150.616 117.272 151.237 116.835 151.762C116.414 152.316 115.981 152.846 115.541 153.362C114.477 154.566 113.355 155.697 112.181 156.75C111.383 157.576 110.433 158.173 109.404 158.494C108.987 158.608 108.55 158.577 108.149 158.403C107.822 158.212 107.526 157.955 107.275 157.645C106.977 157.296 103.52 152.634 103.462 152.634C103.266 152.757 103.114 152.959 103.035 153.203C102.536 154.414 102.227 155.721 102.122 157.061C102.08 157.659 102.08 158.26 102.122 158.858C102.258 160.897 102.867 162.997 102.265 164.922C102.144 165.329 101.945 165.698 101.682 165.999C101.429 166.258 101.137 166.461 100.821 166.598C100.263 166.865 99.6814 167.058 99.0865 167.174C98.7467 167.247 98.4027 167.29 98.0574 167.303C96.7628 167.363 95.5329 167.075 94.2643 167.143C93.1898 167.212 92.1217 167.538 91.0278 167.492C90.8735 167.527 90.7145 167.523 90.5618 167.479C90.4091 167.435 90.2663 167.353 90.1433 167.239C90.0202 167.124 89.9199 166.98 89.8491 166.816C89.7783 166.651 89.7388 166.471 89.7333 166.287C89.3141 163.588 89.0975 160.851 89.086 158.107C89.086 157.152 89.0407 156.189 88.9889 155.234C88.9436 154.423 89.1313 152.361 88.3416 152.202C86.335 151.747 84.2507 152.323 82.2247 151.99C82.281 150.437 82.8441 148.969 83.7976 147.889C84.2653 147.426 84.773 147.022 85.3123 146.683C85.9332 146.163 86.4906 145.546 86.9693 144.849C88.3458 142.858 90.0897 141.259 92.07 140.172C92.3854 139.991 92.7178 139.853 93.0603 139.762H93.1445C93.1939 139.756 93.2439 139.756 93.2933 139.762C93.7263 139.72 94.1623 139.751 94.5879 139.853C97.4758 140.415 100.333 141.174 103.145 142.128C103.516 142.225 103.868 142.405 104.181 142.658C104.399 142.889 104.587 143.158 104.737 143.454C105.527 144.849 106.297 146.259 107.093 147.654C107.78 148.852 108.453 150.352 109.463 151.232C111.661 150.185 113.736 148.815 115.638 147.153C115.903 146.918 116.246 146.661 116.55 146.82C116.652 146.873 116.742 146.95 116.816 147.047C117.56 147.805 118.214 148.639 117.851 149.936Z" fill="white"/>
</g>
<defs>
<linearGradient id="paint0_linear" x1="96.3485" y1="182.752" x2="98.1844" y2="212.885" gradientUnits="userSpaceOnUse">
<stop offset="0.01"/>
<stop offset="0.08" stop-opacity="0.69"/>
<stop offset="0.21" stop-opacity="0.32"/>
<stop offset="1" stop-opacity="0"/>
</linearGradient>
<linearGradient id="paint1_linear" x1="30893.8" y1="1682.86" x2="30903.7" y2="3577.74" gradientUnits="userSpaceOnUse">
<stop offset="0.01"/>
<stop offset="0.08" stop-opacity="0.69"/>
<stop offset="0.21" stop-opacity="0.32"/>
<stop offset="1" stop-opacity="0"/>
</linearGradient>
<linearGradient id="paint2_linear" x1="-22228.4" y1="12017.3" x2="-22022.1" y2="12086" gradientUnits="userSpaceOnUse">
<stop offset="0.01"/>
<stop offset="0.08" stop-opacity="0.69"/>
<stop offset="0.21" stop-opacity="0.32"/>
<stop offset="1" stop-opacity="0"/>
</linearGradient>
<linearGradient id="paint3_linear" x1="106.843" y1="107.091" x2="35.0723" y2="-17.3338" gradientUnits="userSpaceOnUse">
<stop offset="0.01"/>
<stop offset="0.08" stop-opacity="0.69"/>
<stop offset="0.21" stop-opacity="0.32"/>
<stop offset="1" stop-opacity="0"/>
</linearGradient>
<linearGradient id="paint4_linear" x1="1659.89" y1="808.328" x2="1720.94" y2="1183.76" gradientUnits="userSpaceOnUse">
<stop offset="0.01"/>
<stop offset="0.08" stop-opacity="0.69"/>
<stop offset="0.21" stop-opacity="0.32"/>
<stop offset="1" stop-opacity="0"/>
</linearGradient>
<linearGradient id="paint5_linear" x1="-8902.94" y1="-1867.39" x2="-9007.88" y2="-1801.9" gradientUnits="userSpaceOnUse">
<stop offset="0.01"/>
<stop offset="0.08" stop-opacity="0.69"/>
<stop offset="0.21" stop-opacity="0.32"/>
<stop offset="1" stop-opacity="0"/>
</linearGradient>
<linearGradient id="paint6_linear" x1="5390.82" y1="6420.63" x2="5273.15" y2="15249.5" gradientUnits="userSpaceOnUse">
<stop offset="0.01"/>
<stop offset="0.08" stop-opacity="0.69"/>
<stop offset="0.21" stop-opacity="0.32"/>
<stop offset="1" stop-opacity="0"/>
</linearGradient>
<linearGradient id="paint7_linear" x1="5404.46" y1="11139.1" x2="2446.51" y2="11934.2" gradientUnits="userSpaceOnUse">
<stop offset="0.01"/>
<stop offset="0.08" stop-opacity="0.69"/>
<stop offset="0.21" stop-opacity="0.32"/>
<stop offset="1" stop-opacity="0"/>
</linearGradient>
<linearGradient id="paint8_linear" x1="3310.17" y1="10199.9" x2="-734.238" y2="11022.3" gradientUnits="userSpaceOnUse">
<stop offset="0.01"/>
<stop offset="0.08" stop-opacity="0.69"/>
<stop offset="0.21" stop-opacity="0.32"/>
<stop offset="1" stop-opacity="0"/>
</linearGradient>
<linearGradient id="paint9_linear" x1="4155.31" y1="1647.74" x2="5311.71" y2="3986.53" gradientUnits="userSpaceOnUse">
<stop offset="0.01"/>
<stop offset="0.08" stop-opacity="0.69"/>
<stop offset="0.21" stop-opacity="0.32"/>
<stop offset="1" stop-opacity="0"/>
</linearGradient>
<linearGradient id="paint10_linear" x1="5440.25" y1="6764.54" x2="14701.1" y2="10881" gradientUnits="userSpaceOnUse">
<stop offset="0.01"/>
<stop offset="0.08" stop-opacity="0.69"/>
<stop offset="0.21" stop-opacity="0.32"/>
<stop offset="1" stop-opacity="0"/>
</linearGradient>
<linearGradient id="paint11_linear" x1="6342.2" y1="12587.4" x2="9665.91" y2="1256.1" gradientUnits="userSpaceOnUse">
<stop offset="0.01"/>
<stop offset="0.08" stop-opacity="0.69"/>
<stop offset="0.21" stop-opacity="0.32"/>
<stop offset="1" stop-opacity="0"/>
</linearGradient>
<linearGradient id="paint12_linear" x1="5452.54" y1="4477.28" x2="4926.12" y2="19157.5" gradientUnits="userSpaceOnUse">
<stop offset="0.01"/>
<stop offset="0.08" stop-opacity="0.69"/>
<stop offset="0.21" stop-opacity="0.32"/>
<stop offset="1" stop-opacity="0"/>
</linearGradient>
<linearGradient id="paint13_linear" x1="1714" y1="8032.44" x2="3652.41" y2="8676.73" gradientUnits="userSpaceOnUse">
<stop offset="0.01"/>
<stop offset="0.08" stop-opacity="0.69"/>
<stop offset="0.21" stop-opacity="0.32"/>
<stop offset="1" stop-opacity="0"/>
</linearGradient>
<linearGradient id="paint14_linear" x1="2272.24" y1="10314.2" x2="3939.49" y2="11036.5" gradientUnits="userSpaceOnUse">
<stop offset="0.01"/>
<stop offset="0.08" stop-opacity="0.69"/>
<stop offset="0.21" stop-opacity="0.32"/>
<stop offset="1" stop-opacity="0"/>
</linearGradient>
<clipPath id="clip0">
<rect width="228" height="228" fill="white"/>
</clipPath>
</defs>
</svg>
