<svg width="45" height="40" viewBox="0 0 45 40" fill="none" xmlns="http://www.w3.org/2000/svg">
<path d="M1.60714 7.34694H43.3929C44.2805 7.34694 45 6.61602 45 5.71429V1.63265C45 0.730918 44.2805 0 43.3929 0H1.60714C0.719498 0 0 0.730918 0 1.63265V5.71429C0 6.61602 0.719498 7.34694 1.60714 7.34694ZM1.60714 23.6735H43.3929C44.2805 23.6735 45 22.9426 45 22.0408V17.9592C45 17.0574 44.2805 16.3265 43.3929 16.3265H1.60714C0.719498 16.3265 0 17.0574 0 17.9592V22.0408C0 22.9426 0.719498 23.6735 1.60714 23.6735ZM1.60714 40H43.3929C44.2805 40 45 39.2691 45 38.3673V34.2857C45 33.384 44.2805 32.6531 43.3929 32.6531H1.60714C0.719498 32.6531 0 33.384 0 34.2857V38.3673C0 39.2691 0.719498 40 1.60714 40Z" fill="white"/>
</svg>
