<svg width="64" height="64" viewBox="0 0 64 64" fill="none" xmlns="http://www.w3.org/2000/svg">
<g clip-path="url(#clip0)">
<path d="M62.5001 22.3C64.2001 24 64.5001 26.5 63.3001 28L33.7001 62.4C31.9001 64.5 28.8001 64.5 26.7001 62.5L1.50006 37.3C-0.499942 35.3 -0.499942 32.1 1.60006 30.3L35.9001 0.800003C37.4001 -0.499997 39.9001 -0.0999968 41.6001 1.6L62.5001 22.3Z" fill="#AFCDDB"/>
<path d="M50.7999 10.7L12.6 48.4L3.69995 39.5L43.5 3.40002L50.7999 10.7Z" fill="#333333"/>
<path d="M49.4 18.3L22.6 45.8L29.8 53L55.7 24.6L49.4 18.3Z" fill="white"/>
<path d="M34.1 43.2999C32.6 41.8999 33.5 39.3 34 37.9C34.9 35.7 35.8 39.8999 35.8 40.5999C36 42.6999 35.7 44.9 35.2 47C34.9 48.2 34.5 49.3 33.9 50.4C33.6 51.1 33.1 51.6999 32.5 52.0999C31 52.9999 30.1 52.0999 29.8 49.5999C30 48.7999 30.3 48.1 30.9 47.5C32.8 45.1 35.8 43.9999 38 42.0999C38.2 41.8999 37.9 41.5999 37.7 41.7999C35.1 43.9999 29.7 45.7999 29.4 50.0999C29.2 52.8999 32.1 53.6 33.6 52C35.6 49.9 36.1 46.2 36.3 43.4C36.4 41.8 36.8 37.2 34.4 36.7C34.3 36.7 34.2 36.6999 34.2 36.7999C33.2 38.4999 31.9 41.9999 33.9 43.7999C34 43.8999 34.3 43.4999 34.1 43.2999" fill="#4F5B60"/>
<path d="M37.4 41.7C39.5 42.9 40.1 38.2 39.8 36.9C39.8 36.7 39.5 36.7 39.4 36.8C38.3 37.7 38.1 40.1 39 41.5C39.1 41.7 39.3 41.7 39.4 41.5C40.1 40.2 40.5 38.9 41 37.5C41.2 36.9 41.7 37.1 42.1 36.7L44.5 34.3C45.5 33.3 45.8 31.9 46.7 30.9C47.9 29.6 49 29 49.6 27.2C49.7 26.8 49.7 25.8 49 25.8C47.6 25.7 46.4 28.6 48.3 28.3C50.5 28 52.5 25.4 53.9 24C54.1 23.8 53.8 23.5 53.6 23.7C52.9 24.4 52.1 25.1 51.4 25.7C50.8 26.2 50.2 26.7 49.5 27.2C49.2 27.4 46.6 28.6 48.2 26.7C48.5 26.9 48.8 27.1 49.1 27.4C49 27.6 48.9 27.9 48.8 28.1C48.6 28.5 48.3 28.9 48 29.3C47.5 30 46.6 30.4 46 31.1C45.2 32 44.9 33.2 44.1 34.1C43.7 34.5 41.8 37 41.1 36.7C41 36.7 40.9 36.7 40.9 36.8C40.7 37.5 40.5 38.1 40.2 38.8C40.1 39 39.2 40.9 39.2 41C38.8 40 38.9 38.8 39.3 37.9C39.6 38.4 39.6 39 39.4 39.5C39.2 40.7 38.6 41.4 37.6 41.6C37.3 41.1 37.1 41.5 37.4 41.7" fill="#4F5B60"/>
</g>
<defs>
<clipPath id="clip0">
<rect width="64" height="64" fill="white"/>
</clipPath>
</defs>
</svg>
