<svg width="597" height="448" viewBox="0 0 597 448" fill="none" xmlns="http://www.w3.org/2000/svg">
<path d="M441.079 333.566C442.029 334.141 442.817 334.949 443.368 335.914C443.919 336.879 444.214 337.969 444.226 339.08C444.238 340.192 443.966 341.288 443.436 342.264C442.906 343.241 442.136 344.066 441.198 344.661L291.455 428.751C288.445 430.438 285.048 431.31 281.598 431.281C278.148 431.252 274.766 430.323 271.784 428.587L130.519 346.603C129.435 345.974 128.534 345.072 127.908 343.985C127.282 342.899 126.953 341.667 126.953 340.413C126.953 339.159 127.282 337.927 127.908 336.841C128.534 335.754 129.435 334.851 130.519 334.223L280.799 247.61C282.355 246.716 284.117 246.246 285.911 246.246C287.704 246.246 289.467 246.716 291.023 247.61L441.079 333.566Z" fill="#2C8986"/>
<path style="mix-blend-mode:multiply" d="M267.157 333.745C245.173 346.573 229.457 355.189 195.637 374.513C221.233 390.074 241.069 404.38 243.949 406.082L319.917 361.387C314.007 358.4 294.485 347.29 267.157 333.745Z" fill="url(#paint0_linear)"/>
<path d="M476.645 307.209V140.373C476.663 139.168 476.36 137.979 475.767 136.929C475.174 135.88 474.313 135.007 473.272 134.4C459.421 126.351 302.5 37.423 272.038 20.16C271.418 19.8088 270.697 19.6772 269.993 19.7867C269.955 19.7717 269.912 19.7717 269.874 19.7867C267.442 20.818 265.075 21.9949 262.784 23.311C264.087 24.2309 265.674 24.6595 267.262 24.5206V37.856L267.65 195.881C267.65 199.046 398.99 271.473 401.721 273.056L467.929 310.763C465.779 312.405 464.6 315.019 465.914 315.243C467.675 315.571 471.496 313.391 473.585 312.092C474.105 311.868 474.584 311.561 475.003 311.181C475.555 310.682 475.988 310.067 476.272 309.38C476.556 308.693 476.683 307.951 476.645 307.209Z" fill="#014579"/>
<path d="M476.645 307.209V140.373C476.663 139.168 476.36 137.979 475.767 136.929C475.174 135.88 474.313 135.007 473.272 134.4C459.421 126.351 302.5 37.423 272.038 20.16C271.418 19.8088 270.697 19.6772 269.993 19.7867C269.955 19.7717 269.912 19.7717 269.874 19.7867C267.442 20.818 265.075 21.9949 262.784 23.311C264.087 24.2309 265.674 24.6595 267.262 24.5206V37.856L267.65 195.881C267.65 199.046 398.99 271.473 401.721 273.056L467.929 310.763C465.779 312.405 464.6 315.019 465.914 315.243C467.675 315.571 471.496 313.391 473.585 312.092C474.105 311.868 474.584 311.561 475.003 311.181C475.555 310.682 475.988 310.067 476.272 309.38C476.556 308.693 476.683 307.951 476.645 307.209Z" fill="#3795A5"/>
<path d="M261.531 25.6854C261.569 25.1381 261.745 24.6094 262.042 24.1483C262.339 23.6872 262.748 23.3087 263.23 23.048C263.713 22.7873 264.253 22.6527 264.801 22.657C265.35 22.6612 265.888 22.8039 266.366 23.072C296.843 40.32 453.72 129.263 467.615 137.312C468.657 137.919 469.518 138.792 470.111 139.841C470.703 140.891 471.006 142.08 470.988 143.285V310.031C471.242 313.436 467.391 316.587 464.257 314.795L395.99 275.968C393.244 274.4 261.919 201.958 261.919 198.793L261.531 40.768V25.6854Z" fill="#014579"/>
<path d="M282.142 131.115V193.387L359.916 238.306V175.974L282.142 131.115Z" fill="white"/>
<path d="M364.006 178.842V241.114L441.765 286.033V223.716L364.006 178.842Z" fill="white"/>
<path d="M282.142 62.7499V125.022L359.916 169.941V107.61L282.142 62.7499Z" fill="white"/>
<path d="M364.006 109.222V171.494L441.765 216.414V154.097L364.006 109.222Z" fill="white"/>
<path d="M365.458 99.7612C367.284 99.2839 368.111 96.3935 367.305 93.3053C366.499 90.2172 364.364 88.1007 362.538 88.5781C360.712 89.0554 359.885 91.9458 360.691 95.034C361.497 98.1221 363.632 100.239 365.458 99.7612Z" fill="#34323D"/>
<path d="M325.48 125.183C330.171 123.513 331.986 116.572 329.535 109.68C327.083 102.787 321.293 98.5544 316.603 100.225C311.912 101.895 310.097 108.836 312.549 115.728C315 122.62 320.79 126.853 325.48 125.183Z" fill="#3795A5"/>
<path d="M299.216 134.878C299.216 134.878 304.306 117.525 317.276 121.304C330.245 125.082 338.424 135.849 338.424 157.816" fill="#3795A5"/>
<path d="M406.275 171.552C410.965 169.882 412.78 162.941 410.329 156.049C407.877 149.157 402.088 144.924 397.397 146.594C392.707 148.264 390.892 155.205 393.343 162.097C395.794 168.989 401.584 173.222 406.275 171.552Z" fill="#3795A5"/>
<path d="M380.035 181.231C380.035 181.231 385.125 163.878 398.095 167.657C411.064 171.435 419.243 182.187 419.243 204.184" fill="#3795A5"/>
<path d="M322.522 191.479C327.213 189.808 329.028 182.867 326.576 175.975C324.125 169.083 318.335 164.85 313.645 166.52C308.954 168.19 307.139 175.132 309.591 182.024C312.042 188.916 317.832 193.149 322.522 191.479Z" fill="#3795A5"/>
<path d="M296.276 201.167C296.276 201.167 301.366 183.814 314.335 187.593C327.305 191.371 335.484 202.138 335.484 224.105" fill="#3795A5"/>
<path d="M400.87 237.508C405.561 235.838 407.376 228.897 404.925 222.005C402.473 215.113 396.684 210.88 391.993 212.55C387.303 214.22 385.487 221.161 387.939 228.053C390.39 234.945 396.18 239.178 400.87 237.508Z" fill="#3795A5"/>
<path d="M374.617 247.206C374.617 247.206 379.707 229.854 392.677 233.632C405.647 237.41 413.825 248.177 413.825 270.144" fill="#3795A5"/>
<path d="M285.276 283.211C278.844 278.731 271.277 276.252 263.098 278.059C254.382 279.97 246.845 285.525 237.964 286.795C236.561 287.004 230.964 286.645 230.099 287.452C205.398 310.837 274.441 308.358 274.441 308.358C281.142 302.863 287.455 297.457 294.097 291.932C292.097 287.392 288.724 285.63 285.276 283.211Z" fill="#F8997C"/>
<path d="M252.77 317.124L250.322 387.684C250.233 390.357 254.382 390.357 254.471 387.684L256.919 317.124C257.023 314.436 252.874 314.451 252.77 317.124Z" fill="#F8997C"/>
<path d="M304.545 354.876C291.968 342.561 279.953 329.713 268.501 316.333C266.755 314.302 263.829 317.244 265.516 319.319C276.958 332.69 288.973 345.537 301.56 357.862C303.515 359.684 306.47 356.742 304.545 354.876Z" fill="#F8997C"/>
<path d="M238.367 310.613C228.606 329.051 219.412 347.768 210.786 366.763C209.681 369.182 213.263 371.243 214.368 368.868C222.994 349.873 232.188 331.157 241.949 312.719C243.277 310.33 239.621 308.224 238.367 310.613Z" fill="#F8997C"/>
<path d="M300.351 266.53C300.351 266.53 309.306 268.367 311.35 270.383C313.395 272.399 316.664 280.836 315.753 283.39C314.843 285.944 312.276 281.897 311.171 280.284C309.866 278.569 308.461 276.934 306.962 275.386C304.012 275.84 300.993 275.441 298.261 274.236" fill="#FCBF81"/>
<path d="M303.351 342.944C304.649 341.615 305.485 340.151 305.037 338.703C304.246 336.105 300.724 335.059 298.321 335.194C295.918 335.328 293.411 336.553 290.978 337.284C288.427 338.2 285.705 338.537 283.008 338.27C282.572 338.212 282.173 337.993 281.889 337.658C281.14 337.479 280.45 337.11 279.885 336.587C279.321 336.064 278.9 335.404 278.665 334.671L270.68 331.804C270.68 331.804 268.65 348.708 268.65 349.903C269.247 359.012 282.844 353.815 282.844 353.815C282.844 353.815 283.321 349.694 283.456 349.141C283.59 348.589 288.799 350.202 290.918 349.873C291.913 349.596 292.856 349.157 293.709 348.574C295.321 347.693 296.888 346.737 298.455 345.781C300.022 344.826 301.724 343.915 303.351 342.944Z" fill="#E55600"/>
<path d="M273.56 280.612C270.575 280.911 267.59 281.299 264.605 281.717C265.849 300.892 267.227 320.051 268.74 339.196C276.501 342.377 279.65 340.898 284.47 335.97C285.381 317.692 286.993 298.547 286.933 280.09C282.456 280.284 278.008 280.478 273.56 280.612Z" fill="#34323D"/>
<path d="M241.263 275.356C241.263 275.356 239.979 296.337 250.516 301.026C261.053 305.715 282.68 303.371 293.306 297.129C298.806 293.778 304.577 290.895 310.559 288.512C310.559 288.512 313.291 279.328 306.664 275.356C300.037 271.383 285.381 266.485 272.336 275.356" fill="#34323D"/>
<path d="M287.5 217.728C287.831 216.938 288.22 216.175 288.664 215.443C288.677 215.49 288.703 215.531 288.739 215.563C288.751 215.622 288.781 215.677 288.824 215.719C288.868 215.762 288.924 215.79 288.984 215.799C289.044 215.809 289.106 215.8 289.161 215.774C289.216 215.748 289.261 215.705 289.291 215.652L290.142 214.368C290.113 214.536 290.113 214.708 290.142 214.876C290.21 215.19 290.394 215.467 290.656 215.652C290.919 215.837 291.241 215.917 291.56 215.876C291.747 215.863 291.928 215.808 292.091 215.717C292.255 215.625 292.395 215.498 292.504 215.345C292.612 215.192 292.686 215.018 292.719 214.833C292.751 214.649 292.743 214.459 292.694 214.278L293.082 213.83C293.062 213.959 293.062 214.09 293.082 214.219C293.141 214.398 293.244 214.56 293.382 214.689C293.521 214.818 293.689 214.91 293.873 214.956C294.056 215.003 294.248 215.002 294.431 214.954C294.613 214.906 294.781 214.812 294.918 214.682C295.067 214.562 295.202 214.413 295.336 214.278C295.454 214.329 295.581 214.356 295.709 214.356C295.837 214.356 295.964 214.329 296.082 214.278C297.177 213.905 298.249 213.467 299.291 212.964C299.218 212.933 299.154 212.885 299.104 212.823C299.053 212.762 299.019 212.689 299.003 212.611C298.986 212.534 298.989 212.453 299.011 212.377C299.033 212.3 299.072 212.23 299.127 212.173C300.357 211.177 301.659 210.274 303.022 209.47C303.07 209.429 303.126 209.399 303.186 209.38L303.261 209.246C303.581 208.211 303.506 207.094 303.052 206.11C303.381 205.709 303.615 205.239 303.737 204.734C303.858 204.23 303.864 203.705 303.754 203.198C303.644 203.19 303.54 203.149 303.455 203.078C303.261 202.912 303.094 202.715 302.963 202.496C302.722 202.197 302.535 201.858 302.41 201.495C302.38 201.404 302.379 201.306 302.409 201.214C302.438 201.123 302.496 201.044 302.575 200.988C302.067 200.316 301.47 199.674 300.948 199.076C302.226 196.896 302.834 194.387 302.694 191.863C302.682 191.628 302.595 191.402 302.446 191.219C302.297 191.036 302.093 190.906 301.864 190.848C301.636 190.789 301.394 190.806 301.176 190.894C300.957 190.983 300.772 191.14 300.649 191.341C300.147 192.134 299.694 192.957 299.291 193.805C299.159 193.891 299.051 194.009 298.978 194.148C296.82 198.581 294.424 202.893 291.799 207.066C291.351 207.767 285.829 215.294 286.515 215.473C286.47 215.817 281.993 226.135 287.5 217.728ZM290.724 214.547C290.724 214.547 290.724 214.547 290.724 214.473C290.752 214.504 290.787 214.53 290.825 214.547C290.864 214.565 290.906 214.574 290.948 214.574C290.99 214.574 291.032 214.565 291.071 214.547C291.109 214.53 291.144 214.504 291.172 214.473C291.306 214.569 291.46 214.635 291.622 214.666C291.785 214.697 291.952 214.692 292.112 214.652C292.1 214.85 292.01 215.035 291.862 215.167C291.714 215.298 291.519 215.365 291.321 215.354C291.123 215.342 290.938 215.252 290.806 215.103C290.675 214.955 290.608 214.76 290.62 214.562L290.724 214.547Z" fill="#FCBF81"/>
<path d="M288.053 215.324C289.25 214.407 290.262 213.272 291.038 211.979C291.184 211.707 291.383 211.468 291.624 211.276C291.864 211.083 292.141 210.94 292.437 210.857C292.734 210.773 293.044 210.75 293.35 210.789C293.655 210.828 293.95 210.928 294.217 211.083C294.303 210.479 294.347 209.87 294.351 209.261C294.351 206.155 299.231 206.11 299.172 209.261C299.282 211.699 298.63 214.11 297.306 216.16C295.845 218.009 294.066 219.582 292.052 220.804C291.697 221.004 291.298 221.112 290.891 221.12C290.484 221.129 290.081 221.037 289.718 220.852C289.355 220.668 289.043 220.396 288.81 220.062C288.577 219.728 288.429 219.342 288.381 218.938L288.172 218.773C287.937 218.555 287.747 218.293 287.614 218.001C287.481 217.709 287.407 217.394 287.395 217.073C287.384 216.753 287.437 216.433 287.549 216.133C287.662 215.833 287.833 215.558 288.053 215.324Z" fill="#FCBF81"/>
<path d="M261.367 226.912C261.367 226.912 275.441 227.584 279.112 224.209C282.784 220.834 288.067 210.217 288.067 210.217C288.067 210.217 297.769 216.459 298.246 220.043C298.724 223.627 288.112 240.949 283.396 242.159" fill="#BA3E00"/>
<path d="M327.693 356.085C328.992 354.756 329.828 353.293 329.38 351.844C328.589 349.246 325.066 348.2 322.664 348.335C320.261 348.469 317.753 349.694 315.32 350.426C312.77 351.342 310.047 351.678 307.35 351.411C306.914 351.353 306.516 351.135 306.231 350.799C305.483 350.62 304.793 350.252 304.228 349.728C303.663 349.205 303.243 348.545 303.007 347.812L295.008 344.96C295.008 344.96 292.963 361.85 293.037 363.029C293.634 372.139 307.231 366.942 307.231 366.942C307.231 366.942 307.709 362.82 307.843 362.268C307.977 361.715 313.186 363.328 315.305 362.999C316.301 362.722 317.244 362.283 318.096 361.7C319.708 360.819 321.275 359.863 322.843 358.908C324.41 357.952 326.081 357.056 327.693 356.085Z" fill="#E55600"/>
<path d="M297.007 275.863C294.261 274.564 291.381 274.699 288.052 274.714C288.515 281.463 288.261 283.898 288.679 290.647L288.799 292.439C290.082 312.42 291.545 332.386 293.097 352.337C300.858 355.518 304.007 354.039 308.828 349.111C309.903 327.846 311.903 305.387 311.127 284.226C306.604 279.791 302.619 278.537 297.007 275.863Z" fill="#34323D"/>
<path d="M241.069 271.01C241.069 271.533 241.173 273.265 241.248 275.356C245.606 281.105 250.949 284.48 259.322 284.226C266.098 284.032 271.754 281.06 277.068 277.402C276.411 265.111 274.426 244.13 271.322 229.495C271.053 228.256 267.844 227.435 266.844 226.912C264.635 225.702 265.934 223.627 263.77 222.327C260.632 220.502 257.364 218.91 253.994 217.564H253.904C248.501 217.489 239.203 221.641 238.651 228.868C237.8 239.994 239.024 246.684 239.89 257.779C240.292 262.259 240.695 266.665 241.069 271.01Z" fill="#E55600"/>
<path d="M259.859 196.523C260.576 196.702 266.56 210.5 264.217 218.923C261.874 227.345 247.651 218.684 244.069 212.307C240.487 205.931 246.412 193.028 259.859 196.523Z" fill="#FCBF81"/>
<path d="M259.695 198.449C259.695 198.449 259.695 203.004 255.725 204.422C251.755 205.841 248.442 206.886 248.651 208.723C248.859 210.56 255.844 208.469 255.874 212.681C255.878 215.522 255.497 218.35 254.74 221.088C254.307 223.149 242.352 216.817 238.412 206.02C234.472 195.223 244.382 192.356 244.815 192.282C245.248 192.207 246.188 189.295 251.024 188.22C255.859 187.145 257.217 189.041 257.217 189.041C258.316 188.378 259.6 188.094 260.875 188.232C262.15 188.369 263.345 188.921 264.277 189.803C268.754 193.342 267.605 199.808 262.561 202.436L259.695 198.449Z" fill="#34323D"/>
<path d="M262.143 241.218C262.143 241.218 276.933 268.247 285.112 270.577C290.98 272.111 296.974 273.111 303.022 273.564C303.022 273.564 304.037 266.097 303.022 262.842C303.022 262.842 289.933 256.943 288.65 253.404C287.366 249.865 276.336 225.03 263.814 222.402" fill="#E55600"/>
<path d="M275.754 262.229C274.844 261.065 264.59 249.446 264.59 249.446L276.918 274.773L275.754 262.229Z" fill="#34323D"/>
<path d="M293.157 291.439C289.315 296.807 283.87 300.818 277.605 302.893C268.814 305.566 256.023 304.311 251.412 295.113C243.009 278.372 250.904 257.436 242.024 241.158C241 239.101 239.553 237.283 237.778 235.824C236.004 234.365 233.941 233.298 231.726 232.691C225.964 231.437 222.024 235.753 219.935 240.845C216.189 249.969 216.323 261.348 216.517 271.055C216.525 278.911 217.093 286.756 218.218 294.53C218.218 294.53 223.591 327.145 265.531 318.423C272.79 317.105 279.761 314.522 286.127 310.793C289.398 308.889 292.255 306.351 294.53 303.326C297.007 299.637 295.366 295.202 293.157 291.439Z" fill="#014579"/>
<path d="M153.832 303.251C148.015 310.711 145.175 320.067 145.862 329.504C146.922 344.826 155.548 349.276 155.548 349.276L165.817 349.843C165.817 349.843 178.025 345.856 176.428 325.95C174.936 307.238 168.847 302.848 168.847 302.848" fill="#014579"/>
<path d="M161.399 305.924C165.57 305.924 168.951 304.727 168.951 303.251C168.951 301.775 165.57 300.578 161.399 300.578C157.228 300.578 153.847 301.775 153.847 303.251C153.847 304.727 157.228 305.924 161.399 305.924Z" fill="#003B94"/>
<path d="M161.399 350.321C165.57 350.321 168.951 349.124 168.951 347.648C168.951 346.172 165.57 344.975 161.399 344.975C157.228 344.975 153.847 346.172 153.847 347.648C153.847 349.124 157.228 350.321 161.399 350.321Z" fill="#014579"/>
<path d="M158.295 304.058L149.146 251.552C148.951 250.402 147.205 250.895 147.399 252.03L156.548 304.535C156.712 305.685 158.489 305.208 158.295 304.058Z" fill="#007F68"/>
<path d="M159.951 304.237C160.227 304.183 160.511 304.183 160.787 304.237C161.15 304.329 161.477 304.526 161.727 304.804C162.454 290.14 162.583 275.465 162.115 260.781C162.115 259.616 160.28 259.616 160.309 260.781C160.777 275.276 160.658 289.761 159.951 304.237Z" fill="#007F68"/>
<path d="M180.518 253.284C173.701 269.76 167.801 286.601 162.847 303.729C162.811 303.951 162.858 304.178 162.98 304.367C163.102 304.556 163.289 304.693 163.505 304.753C163.722 304.812 163.953 304.789 164.154 304.688C164.354 304.588 164.511 304.416 164.593 304.207C169.548 287.078 175.447 270.238 182.264 253.762C182.697 252.702 180.951 252.224 180.518 253.284Z" fill="#007F68"/>
<path d="M151.101 273.28C151.101 273.28 150.116 273.161 145.802 268.621C141.489 264.081 146.937 260.661 144.444 255.554C141.952 250.447 145.474 243.727 146.265 238.62C146.75 242.2 148.047 245.623 150.056 248.625C153.31 253.284 155.13 257.495 154.787 263.409C154.546 267.14 153.906 270.835 152.877 274.43" fill="#007F68"/>
<path d="M160.354 281.314C160.354 281.314 159.429 280.956 156.339 275.49C153.25 270.025 159.324 268.024 158.19 262.483C157.056 256.943 162.056 251.268 164.071 246.49C163.673 250.083 164.102 253.72 165.324 257.122C167.354 262.438 168.085 266.948 166.324 272.608C165.201 276.168 163.7 279.597 161.847 282.837" fill="#007F68"/>
<path d="M173.249 271.787C173.249 271.787 172.414 271.249 170.518 265.276C168.623 259.302 174.996 258.616 174.996 252.911C174.996 247.206 181.07 242.726 183.951 238.47C182.824 241.905 182.497 245.552 182.995 249.133C183.891 254.748 183.697 259.317 180.801 264.499C178.953 267.751 176.762 270.795 174.264 273.579" fill="#007F68"/>
<path d="M487.704 107.893V153.813C487.699 154.511 487.513 155.195 487.163 155.799C486.813 156.402 486.313 156.904 485.71 157.255C485.108 157.607 484.424 157.795 483.727 157.801C483.03 157.808 482.343 157.633 481.734 157.293L434.541 130.069C433.93 129.718 433.421 129.211 433.067 128.6C432.714 127.989 432.527 127.296 432.526 126.59V80.64C432.532 79.9424 432.718 79.2582 433.068 78.6547C433.417 78.0511 433.918 77.5491 434.52 77.1979C435.123 76.8468 435.806 76.6587 436.504 76.6522C437.201 76.6456 437.888 76.8208 438.496 77.1606L485.63 104.384C486.257 104.731 486.78 105.239 487.145 105.856C487.51 106.473 487.703 107.176 487.704 107.893Z" fill="#8EA3FF"/>
<path d="M432.526 118.197V139.298L446.81 131.115L432.526 118.197Z" fill="#8EA3FF"/>
<path d="M271.142 111.433V157.338C271.137 158.035 270.951 158.719 270.601 159.323C270.252 159.927 269.751 160.429 269.149 160.78C268.546 161.131 267.863 161.319 267.165 161.326C266.468 161.332 265.781 161.157 265.172 160.817L217.995 133.609C217.383 133.257 216.874 132.75 216.521 132.139C216.167 131.528 215.98 130.835 215.98 130.129V84.2091C215.985 83.5115 216.171 82.8273 216.521 82.2237C216.87 81.6202 217.371 81.1181 217.974 80.767C218.576 80.4159 219.259 80.2278 219.957 80.2212C220.654 80.2147 221.341 80.3899 221.95 80.7297L269.083 107.953C269.703 108.299 270.22 108.803 270.582 109.415C270.944 110.026 271.137 110.722 271.142 111.433Z" fill="#8EA3FF"/>
<path d="M259.934 157.83L280.142 168.971L270.038 145.436" fill="#8EA3FF"/>
<path d="M441.959 102.502L476.899 122.304C477.403 122.515 477.968 122.533 478.485 122.356C479.003 122.179 479.438 121.818 479.708 121.342C479.978 120.866 480.064 120.308 479.951 119.773C479.837 119.237 479.532 118.762 479.092 118.436L444.228 98.6347C443.717 98.3609 443.119 98.2961 442.561 98.454C442.004 98.6118 441.529 98.9801 441.237 99.4812C440.945 99.9823 440.859 100.577 440.996 101.141C441.134 101.704 441.484 102.192 441.974 102.502H441.959Z" fill="#F2F2F2"/>
<path d="M441.079 114.255L476.018 134.042C476.529 134.315 477.126 134.38 477.684 134.222C478.242 134.064 478.717 133.696 479.009 133.195C479.301 132.694 479.387 132.099 479.25 131.536C479.112 130.972 478.762 130.484 478.272 130.174L443.272 110.387C442.761 110.113 442.164 110.049 441.606 110.207C441.048 110.364 440.574 110.733 440.282 111.234C439.99 111.735 439.903 112.33 440.041 112.893C440.178 113.457 440.529 113.945 441.019 114.255H441.079Z" fill="#F2F2F2"/>
<path d="M223.756 104.115L262.083 125.813C262.594 126.087 263.191 126.152 263.749 125.994C264.307 125.836 264.782 125.468 265.074 124.967C265.366 124.466 265.452 123.871 265.315 123.307C265.177 122.744 264.827 122.256 264.337 121.946L226.009 100.247C225.498 99.9736 224.901 99.9089 224.343 100.067C223.785 100.225 223.31 100.593 223.018 101.094C222.726 101.595 222.64 102.19 222.778 102.753C222.915 103.317 223.266 103.805 223.756 104.115Z" fill="#F2F2F2"/>
<path d="M222.785 116.988L261.113 138.701C261.624 138.975 262.221 139.039 262.779 138.882C263.337 138.724 263.812 138.355 264.104 137.854C264.396 137.353 264.482 136.758 264.345 136.195C264.207 135.631 263.857 135.143 263.367 134.833L225.039 113.12C224.528 112.846 223.931 112.781 223.373 112.939C222.815 113.097 222.34 113.465 222.048 113.967C221.756 114.468 221.67 115.063 221.807 115.626C221.945 116.19 222.296 116.678 222.785 116.988Z" fill="#F2F2F2"/>
<defs>
<linearGradient id="paint0_linear" x1="281.321" y1="353.905" x2="225.008" y2="387.522" gradientUnits="userSpaceOnUse">
<stop stop-color="#808080"/>
<stop offset="1" stop-color="white"/>
</linearGradient>
</defs>
</svg>
