<svg width="35" height="30" viewBox="0 0 35 30" fill="none" xmlns="http://www.w3.org/2000/svg">
<path d="M34.2686 4.69398C33.8661 2.84633 32.6801 1.39117 31.1743 0.897344C28.4448 0 17.5 0 17.5 0C17.5 0 6.55525 0 3.82573 0.897344C2.31988 1.39125 1.13389 2.84633 0.731359 4.69398C0 8.04297 0 15.0303 0 15.0303C0 15.0303 0 22.0177 0.731359 25.3666C1.13389 27.2143 2.31988 28.6088 3.82573 29.1027C6.55525 30 17.5 30 17.5 30C17.5 30 28.4447 30 31.1743 29.1027C32.6801 28.6088 33.8661 27.2143 34.2686 25.3666C35 22.0177 35 15.0303 35 15.0303C35 15.0303 35 8.04297 34.2686 4.69398ZM13.9204 21.3743V8.68633L23.0681 15.0305L13.9204 21.3743Z" fill="white"/>
</svg>
