<svg width="31" height="30" viewBox="0 0 31 30" fill="none" xmlns="http://www.w3.org/2000/svg">
<path d="M15.5035 7.30838C11.105 7.30838 7.55722 10.7425 7.55722 15C7.55722 19.2575 11.105 22.6916 15.5035 22.6916C19.9019 22.6916 23.4497 19.2575 23.4497 15C23.4497 10.7425 19.9019 7.30838 15.5035 7.30838ZM15.5035 20.0006C12.6611 20.0006 10.3374 17.758 10.3374 15C10.3374 12.242 12.6542 9.99944 15.5035 9.99944C18.3528 9.99944 20.6695 12.242 20.6695 15C20.6695 17.758 18.3458 20.0006 15.5035 20.0006ZM25.6282 6.99375C25.6282 7.99119 24.7983 8.7878 23.7747 8.7878C22.7443 8.7878 21.9213 7.98449 21.9213 6.99375C21.9213 6.00301 22.7512 5.19971 23.7747 5.19971C24.7983 5.19971 25.6282 6.00301 25.6282 6.99375ZM30.8911 8.81457C30.7735 6.41136 30.2064 4.28261 28.3876 2.52873C26.5756 0.774852 24.3764 0.225929 21.8936 0.105433C19.3348 -0.0351445 11.6652 -0.0351445 9.10636 0.105433C6.63051 0.219235 4.43129 0.768158 2.61244 2.52203C0.793586 4.27591 0.233408 6.40466 0.108924 8.80788C-0.0363079 11.2847 -0.0363079 18.7086 0.108924 21.1854C0.226492 23.5886 0.793586 25.7174 2.61244 27.4713C4.43129 29.2251 6.62359 29.7741 9.10636 29.8946C11.6652 30.0351 19.3348 30.0351 21.8936 29.8946C24.3764 29.7808 26.5756 29.2318 28.3876 27.4713C30.1995 25.7174 30.7666 23.5886 30.8911 21.1854C31.0363 18.7086 31.0363 11.2914 30.8911 8.81457ZM27.5853 23.843C27.0459 25.1551 26.0016 26.1659 24.6392 26.6947C22.5991 27.478 17.758 27.2972 15.5035 27.2972C13.2489 27.2972 8.40095 27.4713 6.36771 26.6947C5.01221 26.1726 3.96793 25.1618 3.42158 23.843C2.61244 21.8682 2.79916 17.1823 2.79916 15C2.79916 12.8177 2.61935 8.12507 3.42158 6.15698C3.96102 4.84492 5.0053 3.8341 6.36771 3.30525C8.40786 2.52203 13.2489 2.70278 15.5035 2.70278C17.758 2.70278 22.606 2.52873 24.6392 3.30525C25.9947 3.8274 27.039 4.83822 27.5853 6.15698C28.3945 8.13176 28.2078 12.8177 28.2078 15C28.2078 17.1823 28.3945 21.8749 27.5853 23.843Z" fill="white"/>
</svg>
