<svg width="128" height="128" viewBox="0 0 128 128" fill="none" xmlns="http://www.w3.org/2000/svg">
<path d="M107.8 75.85C106.22 73.01 104.31 70.32 102.32 67.74C99.4 63.94 96.28 60.29 93.61 56.32C90.94 52.36 88.92 48.19 85.51 44.72C82.44 41.5 78.56 39.33 74.47 38.39C72.93 37.84 71.51 36.91 70.49 35.92H71V31.93H70.24C70.25 30.93 70.36 30.61 70.59 30.04C72.14 25.59 73.56 21.18 75.11 16.73C75.47 15.65 75.82 14.64 76.54 13.8C77.37 12.72 78.68 11.97 79.63 10.89C80.58 9.81002 80.94 7.99002 79.75 7.03002C77.73 6.67002 75.59 6.90002 73.68 7.75002C74.27 6.67002 73.56 5.22002 72.49 4.62002C71.42 4.02002 70.11 4.02002 68.92 4.02002C66.06 4.02002 63.09 4.14002 60.24 4.14002C58.93 4.14002 57.38 4.26002 56.55 5.22002C56.07 5.70002 55.96 6.30002 55.48 6.78002C54.17 8.22002 51.91 7.74002 50.01 7.38002C48.11 7.02002 45.61 7.26002 45.01 9.18002C44.89 9.90002 45.01 10.5 45.13 11.22C46.68 17.47 49.5 24.44 53.3 29.6C53.91 30.61 53.96 30.92 54.33 31.92H54V35.46C54 36 51.85 36.94 51.45 37.16C46.74 39.73 42.47 44.01 38.7 47.77C34.711 51.7429 31.0678 56.0485 27.81 60.64C22.43 68.21 16.73 77.1 16.1 86.57C15.76 91.6 16.86 96.87 19.41 101.24C22.34 106.26 26.89 110.46 31.35 114.13C35.8 117.79 41 120.56 46.53 122.19C46.59 122.21 46.64 122.22 46.7 122.24C58.5 125.69 72.08 123.57 83.39 119.21C91.01 116.27 97.76 111.81 103.63 106.14C106.61 103.26 109.18 99.88 110.6 95.99C113.08 89.1 111.26 82.06 107.8 75.85V75.85Z" fill="url(#paint0_linear)"/>
<path opacity="0.2" d="M68.92 7.02002C69.54 7.02002 70.28 7.02002 70.74 7.14002C70.55 8.07002 70.8 9.06002 71.47 9.78002C72.05 10.41 72.86 10.75 73.68 10.75C74.09 10.75 74.5 10.67 74.89 10.49C75.26 10.33 75.65 10.2 76.04 10.1C75.43 10.6 74.77 11.18 74.2 11.91C73.19 13.13 72.7 14.44 72.27 15.74C71.49 17.98 70.73 20.24 70 22.43C69.28 24.58 68.53 26.81 67.77 28.99C67.42 29.88 67.25 30.56 67.24 31.89C67.23 32.64 67.5 33.37 68 33.92V34.23C67.6073 34.8134 67.4314 35.5159 67.5026 36.2155C67.5739 36.9151 67.8878 37.5677 68.39 38.06C69.78 39.42 71.58 40.54 73.46 41.21C73.57 41.25 73.69 41.28 73.8 41.31C77.42 42.14 80.72 44.03 83.37 46.81C85.52 49 87.1 51.58 88.78 54.3C89.52 55.51 90.29 56.75 91.12 57.99C93.03 60.82 95.15 63.5 97.2 66.08C98.11 67.22 99.04 68.4 99.94 69.57C102.22 72.54 103.89 75 105.18 77.31C108.79 83.8 109.66 89.74 107.76 94.97C106.64 98.04 104.55 101.08 101.53 103.99C95.79 109.53 89.32 113.71 82.29 116.42C74.58 119.39 66.66 120.97 59.39 120.97C55.15 120.97 51.16 120.43 47.53 119.37L47.37 119.32C42.27 117.82 37.38 115.23 33.24 111.82C29.25 108.54 24.79 104.53 21.99 99.74C19.81 96 18.78 91.4 19.09 86.78C19.65 78.36 24.79 70.08 30.25 62.38C33.4148 57.932 36.9472 53.7574 40.81 49.9L40.89 49.82C44.5 46.22 48.59 42.14 52.88 39.8C52.93 39.77 53.01 39.73 53.11 39.69C54.84 38.84 57 37.78 57 35.47V33.3C57.38 32.56 57.44 31.69 57.15 30.9C57.09 30.72 57.03 30.57 56.98 30.43C56.7 29.63 56.49 29.09 55.86 28.06C55.81 27.98 55.76 27.91 55.71 27.84C52.48 23.46 49.7 17.19 48.06 10.63L48.05 10.59C48.03 10.48 48.01 10.38 48 10.29C48.14 10.27 48.31 10.25 48.52 10.25C48.81 10.25 49.13 10.28 49.44 10.34L49.61 10.37C50.59 10.56 51.7 10.77 52.86 10.77C54.86 10.77 56.47 10.13 57.65 8.86002C58.15 8.34002 58.44 7.81002 58.63 7.46002C58.66 7.41002 58.69 7.35002 58.72 7.30002C58.87 7.25002 59.26 7.15002 60.23 7.15002C61.69 7.15002 63.19 7.12002 64.63 7.09002C66.06 7.05002 67.52 7.02002 68.92 7.02002V7.02002ZM68.92 4.02002C66.06 4.02002 63.09 4.14002 60.24 4.14002C58.93 4.14002 57.38 4.26002 56.55 5.22002C56.07 5.70002 55.96 6.30002 55.48 6.78002C54.8 7.53002 53.87 7.76002 52.87 7.76002C51.93 7.76002 50.93 7.56002 50.01 7.38002C49.5254 7.28744 49.0333 7.24057 48.54 7.24002C47 7.24002 45.47 7.73002 45.02 9.18002C44.9 9.90002 45.02 10.5 45.14 11.22C46.69 17.47 49.51 24.44 53.31 29.6C53.92 30.61 53.97 30.92 54.34 31.92H54V35.46C54 36 51.85 36.94 51.45 37.16C46.74 39.73 42.47 44.01 38.7 47.77C34.711 51.7429 31.0678 56.0485 27.81 60.64C22.43 68.21 16.73 77.11 16.1 86.57C15.76 91.6 16.86 96.87 19.41 101.24C22.34 106.26 26.89 110.46 31.35 114.13C35.8 117.79 41 120.56 46.53 122.19C46.59 122.21 46.64 122.22 46.7 122.24C50.78 123.43 55.07 123.96 59.41 123.96C67.62 123.96 75.99 122.07 83.39 119.21C91.01 116.27 97.76 111.81 103.63 106.14C106.61 103.26 109.18 99.88 110.6 95.99C113.11 89.09 111.28 82.05 107.82 75.84C106.24 73 104.33 70.31 102.34 67.73C99.42 63.93 96.3 60.28 93.63 56.31C90.96 52.35 88.94 48.18 85.53 44.71C82.46 41.49 78.58 39.32 74.49 38.38C72.95 37.83 71.53 36.9 70.51 35.91H71V31.92H70.24C70.25 30.92 70.36 30.6 70.59 30.03C72.14 25.58 73.56 21.17 75.11 16.72C75.47 15.64 75.82 14.63 76.54 13.79C77.37 12.71 78.68 11.96 79.63 10.88C80.58 9.80002 80.94 7.98002 79.75 7.02002C79.14 6.91002 78.52 6.86002 77.89 6.86002C76.45 6.86002 75.01 7.15002 73.68 7.74002C74.27 6.66002 73.56 5.21002 72.49 4.61002C71.42 4.02002 70.11 4.02002 68.92 4.02002V4.02002Z" fill="#424242"/>
<path opacity="0.2" d="M65.17 35.14C62.13 31.38 64.32 30.93 63.23 27.59C62.27 24.64 60.38 21.75 57.53 18.99C57.46 19.3 57.89 20.61 57.93 20.92C58.65 23.95 57.37 26.91 58.67 29.98C59.72 32.45 62.1 33.68 64.8 36.04C64.94 35.74 65.45 35.49 65.17 35.14V35.14Z" fill="#212121"/>
<path d="M71.26 36.6999H53.57C52.09 36.6999 50.88 35.4899 50.88 34.0099C50.88 32.5299 52.09 31.3199 53.57 31.3199H71.26C72.74 31.3199 73.95 32.5299 73.95 34.0099C73.95 35.4899 72.74 36.6999 71.26 36.6999Z" fill="#6D4C41"/>
<path opacity="0.2" d="M71.26 32.3199C72.19 32.3199 72.95 33.0799 72.95 34.0099C72.95 34.9399 72.19 35.6999 71.26 35.6999H53.57C52.64 35.6999 51.88 34.9399 51.88 34.0099C51.88 33.0799 52.64 32.3199 53.57 32.3199H71.26ZM71.26 31.3199H53.57C52.09 31.3199 50.88 32.5299 50.88 34.0099C50.88 35.4899 52.09 36.6999 53.57 36.6999H71.26C72.74 36.6999 73.95 35.4899 73.95 34.0099C73.95 32.5299 72.74 31.3199 71.26 31.3199V31.3199Z" fill="#424242"/>
<path d="M77.39 92.77C77.39 90.49 76.95 88.51 76.09 86.81C75.22 85.11 73.87 83.63 72.03 82.35C70.37 81.2 68.12 80.13 65.29 79.15L65.48 62.87C66.83 63.28 67.96 64.06 68.89 65.21C70.12 66.74 70.83 68.51 71 70.96C71.05 71.66 71.6 72 72.31 72H75.63C76.37 72 76.98 71.61 76.94 70.88C76.75 67.11 75.99 64.2 74.19 61.93C72.18 59.4 69 58 66 57.51V51.92C66 51.09 64.87 50.01 64.04 50.01H62.23C61.41 50 61 51.09 61 51.91V56.01L60.85 57.47C57.27 57.9 54.39 59.24 52.35 61.49C50.3 63.74 49.24 66.63 49.24 70.15C49.24 73.61 50.27 76.46 52.36 78.7C54.15 80.62 56.84 82.22 60.44 83.52L60.25 100.22C58.38 99.91 56.87 99.16 55.71 97.98C54.35 96.59 53.58 94.63 53.4 92.21C53.35 91.54 52.77 90.99 52.1 90.99H48.75C48.01 90.99 47.4 91.65 47.44 92.39C47.66 96.01 48.68 98.95 50.7 101.16C52.97 103.64 55.99 105.08 59.99 105.45V110.11C59.99 110.94 60.85 112 61.68 112H63.46C64.29 112 65 110.94 65 110.11V105.46C68.92 105.05 71.96 103.74 74.14 101.53C76.31 99.32 77.39 96.4 77.39 92.77V92.77ZM57.31 75.29C55.88 73.99 55.17 72.24 55.17 70.05C55.17 67.68 55.85 65.84 57.2 64.52C58.09 63.65 59.25 63.07 60.67 62.77L60.5 77.32C59.16 76.68 58.09 76 57.31 75.29ZM69.02 98.37C67.96 99.26 66.63 99.86 65.04 100.16L65.22 85.27C67.03 86.07 68.42 86.93 69.36 87.84C70.74 89.19 71.44 90.86 71.44 92.83C71.43 95.17 70.63 97.02 69.02 98.37Z" fill="url(#paint1_linear)"/>
<defs>
<linearGradient id="paint0_linear" x1="63.888" y1="123.97" x2="63.888" y2="4.01802" gradientUnits="userSpaceOnUse">
<stop stop-color="#FFB74D"/>
<stop offset="1" stop-color="#FFE0B2"/>
</linearGradient>
<linearGradient id="paint1_linear" x1="62.417" y1="112" x2="62.417" y2="50" gradientUnits="userSpaceOnUse">
<stop offset="0.002" stop-color="#5D4037"/>
<stop offset="1" stop-color="#795548"/>
</linearGradient>
</defs>
</svg>
